{
.appVersion = "3151";
.formatVersion = 3;
DisplayStrings = (
"/caron.alt"
);
axes = (
{
name = Weight;
tag = wght;
}
);
classes = (
{
automatic = 1;
code = "A Aacute Abreve Abreveacute Abrevedotbelow Abrevegrave Abrevehookabove Abrevetilde Acircumflex Acircumflexacute Acircumflexdotbelow Acircumflexgrave Acircumflexhookabove Acircumflextilde Adblgrave Adieresis Adotbelow Agrave Ahookabove Ainvertedbreve Amacron Aogonek Aring Aringacute Atilde AE AEacute B C Cacute Ccaron Ccedilla Ccircumflex Cdotaccent D DZ DZcaron Eth Dcaron Dcroat Ddotbelow Dz Dzcaron E Eacute Ebreve Ecaron Ecircumflex Ecircumflexacute Ecircumflexdotbelow Ecircumflexgrave Ecircumflexhookabove Ecircumflextilde Edblgrave Edieresis Edotaccent Edotbelow Egrave Ehookabove Einvertedbreve Emacron Eogonek Etilde Schwa F G Gacute Gbreve Gcircumflex Gcommaaccent Gdotaccent H Hbar Hcircumflex Hdotbelow I IJ Iacute Ibreve Icircumflex Idblgrave Idieresis Idotaccent Idotbelow Igrave Ihookabove Iinvertedbreve Imacron Iogonek Itilde J Jcircumflex K Kcommaaccent L LJ Lacute Lcaron Lcommaaccent Ldot Lj Lslash M N NJ Nacute Ncaron Ncommaaccent Ndotaccent Nj Ntilde Eng O Oacute Obreve Ocircumflex Ocircumflexacute Ocircumflexdotbelow Ocircumflexgrave Ocircumflexhookabove Ocircumflextilde Odblgrave Odieresis Odotbelow Ograve Ohookabove Ohorn Ohornacute Ohorndotbelow Ohorngrave Ohornhookabove Ohorntilde Ohungarumlaut Oinvertedbreve Omacron Oogonek Oslash Oslashacute Otilde OE P Thorn Q R Racute Rcaron Rcommaaccent Rdblgrave Rdotbelow Rinvertedbreve S Sacute Scaron Scedilla Scircumflex Scommaaccent Sdotbelow T Tbar Tcaron Tcedilla Tcommaaccent Tdotbelow U Uacute Ubreve Ucircumflex Udblgrave Udieresis Udotbelow Ugrave Uhookabove Uhorn Uhornacute Uhorndotbelow Uhorngrave Uhornhookabove Uhorntilde Uhungarumlaut Uinvertedbreve Umacron Uogonek Uring Utilde V W Wacute Wcircumflex Wdieresis Wgrave X Y Yacute Ycircumflex Ydieresis Ydotbelow Ygrave Yhookabove Ytilde Z Zacute Zcaron Zdotaccent Zdotbelow Delta Omega";

glyphs = (
{
glyphname = A;
kernLeft = A;
kernRight = A;
lastChange = "2023-02-02 16:56:08 +0000";
layers = (
{
anchors = (
{
name = bottom;
pos = (241,0);
},
{
name = ogonek;
pos = (474,10);
},
{
name = top;
pos = (508,754);
}
);
background = {
anchors = (
{
name = bottom;
pos = (241,0);
},
{
name = ogonek;
pos = (474,10);
},
{
name = top;
pos = (508,754);
}
);
shapes = (
{
closed = 1;
nodes = (
(21,20,l),
(384,551,l),
(493,764,l),
(-18,20,l)
);
},
{
closed = 1;
nodes = (
(123,0,l),
(123,25,l),
(-91,25,l),
(-91,0,l)
);
},
{
closed = 1;
nodes = (
(538,0,l),
(538,25,l),
(269,25,l),
(269,0,l)
);
},
{
closed = 1;
nodes = (
(434,247,l),
(434,275,l),
(165,275,l),
(165,247,l)
);
},
{
closed = 1;
nodes = (
(459,10,l),
(514,764,l),
(493,764,l),
(381,547,l),
(385,547,l),
(336,10,l)
);
}
);
};
layerId = "426C3F01-D24D-4224-A47E-56DA036E4742";
shapes = (
{
closed = 1;
nodes = (
(21,20,l),
(384,551,l),
(493,764,l),
(-18,20,l)
);
},
{
closed = 1;
nodes = (
(123,0,l),
(123,25,l),
(-91,25,l),
(-91,0,l)
);
},
{
closed = 1;
nodes = (
(538,0,l),
(538,25,l),
(269,25,l),
(269,0,l)
);
},
{
closed = 1;
nodes = (
(434,247,l),
(434,275,l),
(165,275,l),
(165,247,l)
);
},
{
closed = 1;
nodes = (
(459,10,l),
(514,764,l),
(493,764,l),
(381,547,l),
(385,547,l),
(336,10,l)
);
}
);
width = 585;
},
{
anchors = (
{
name = bottom;
pos = (259,0);
},
{
name = ogonek;
pos = (507,10);
},
{
name = top;
pos = (516,754);
}
);
background = {
anchors = (
{
name = bottom;
pos = (259,0);
},
{
name = ogonek;
pos = (507,10);
},
{
name = top;
pos = (516,754);
}
);
shapes = (
{
closed = 1;
nodes = (
(22,20,l),
(385,551,l),
(502,768,l),
(-20,20,l)
);
},
{
closed = 1;
nodes = (
(124,0,l),
(124,30,l),
(-66,30,l),
(-66,0,l)
);
},
{
closed = 1;
nodes = (
(569,0,l),
(569,30,l),
(250,30,l),
(250,0,l)
);
},
{
closed = 1;
nodes = (
(415,212,l),
(415,245,l),
(146,245,l),
(146,212,l)
);
},
{
closed = 1;
nodes = (
(490,10,l),
(545,768,l),
(494,768,l),
(382,547,l),
(386,547,l),
(337,10,l)
);
}
);
};
layerId = "DD3DBCA6-CF88-4DA3-ACF4-A2FFC969FFEC";
shapes = (
{
closed = 1;
nodes = (
(22,20,l),
(385,551,l),
(502,768,l),
(-20,20,l)
);
},
{
closed = 1;
nodes = (
(124,0,l),
(124,30,l),
(-66,30,l),
(-66,0,l)
);
},
{
closed = 1;
nodes = (
(569,0,l),
(569,30,l),
(250,30,l),
(250,0,l)
);
},
{
closed = 1;
nodes = (
(415,212,l),
(415,245,l),
(146,245,l),
(146,212,l)
);
},
{
closed = 1;
nodes = (
(490,10,l),
(545,768,l),
(494,768,l),
(382,547,l),
(386,547,l),
(337,10,l)
);
}
);
width = 621;
}
);
unicode = 65;
},
{
glyphname = Aacute;
kernLeft = A;
kernRight = A;
lastChange = "2023-02-02 16:56:08 +0000";
layers = (
{
background = {
anchors = (
{
name = bottom;
pos = (241,0);
},
{
name = ogonek;
pos = (474,10);
},
{
name = top;
pos = (568,1011);
}
);
shapes = (
{
closed = 1;
nodes = (
(21,20,l),
(384,551,l),
(493,764,l),
(-18,20,l)
);
},
{
closed = 1;
nodes = (
(123,0,l),
(123,25,l),
(-91,25,l),
(-91,0,l)
);
},
{
closed = 1;
nodes = (
(538,0,l),
(538,25,l),
(269,25,l),
(269,0,l)
);
},
{
closed = 1;
nodes = (
(434,247,l),
(434,275,l),
(165,275,l),
(165,247,l)
);
},
{
closed = 1;
nodes = (
(459,10,l),
(514,764,l),
(493,764,l),
(381,547,l),
(385,547,l),
(336,10,l)
);
},
{
closed = 1;
nodes = (
(508,871,l),
(682,910,ls),
(730,921,o),
(751,943,o),
(751,972,cs),
(751,997,o),
(736,1011,o),
(713,1011,cs),
(693,1011,o),
(671,1001,o),
(628,975,cs),
(456,871,l)
);
}
);
};
layerId = "426C3F01-D24D-4224-A47E-56DA036E4742";
shapes = (
{
ref = A;
},
{
pos = (209,63);
ref = acutecomb.case;
}
);
width = 585;
},
{
background = {
anchors = (
{
name = bottom;
pos = (259,0);
},
{
name = ogonek;
pos = (507,10);
},
{
name = top;
pos = (569,986);
}
);
shapes = (
{
closed = 1;
nodes = (
(22,20,l),
(385,551,l),
(502,768,l),
(-20,20,l)
);
},
{
closed = 1;
nodes = (
(124,0,l),
(124,30,l),
(-66,30,l),
(-66,0,l)
);
},
{
closed = 1;
nodes = (
(569,0,l),
(569,30,l),
(250,30,l),
(250,0,l)
);
},
{
closed = 1;
nodes = (
(415,212,l),
(415,245,l),
(146,245,l),
(146,212,l)
);
},
{
closed = 1;
nodes = (
(490,10,l),
(545,768,l),
(494,768,l),
(382,547,l),
(386,547,l),
(337,10,l)
);
},
{
closed = 1;
nodes = (
(462,845,l),
(660,884,ls),
(697,891,o),
(713,915,o),
(713,937,cs),
(713,962,o),
(692,986,o),
(655,986,cs),
(627,986,o),
(607,977,o),
(569,954,cs),
(393,845,l)
);
}
);
};
layerId = "DD3DBCA6-CF88-4DA3-ACF4-A2FFC969FFEC";
shapes = (
{
ref = A;
},
{
pos = (244,82);
ref = acutecomb.case;
}
);
width = 621;
}
);
unicode = 193;
},
{
glyphname = Abreve;
kernLeft = A;
kernRight = A;
lastChange = "2023-02-02 16:56:08 +0000";
layers = (
{
background = {
anchors = (
{
name = bottom;
pos = (241,0);
},
{
name = ogonek;
pos = (474,10);
},
{
name = top;
pos = (544,890);
}
);
shapes = (
{
closed = 1;
nodes = (
(21,20,l),
(384,551,l),
(493,764,l),
(-18,20,l)
);
},
{
closed = 1;
nodes = (
(123,0,l),
(123,25,l),
(-91,25,l),
(-91,0,l)
);
},
{
closed = 1;
nodes = (
(538,0,l),
(538,25,l),
(269,25,l),
(269,0,l)
);
},
{
closed = 1;
nodes = (
(434,247,l),
(434,275,l),
(165,275,l),
(165,247,l)
);
},
{
closed = 1;
nodes = (
(459,10,l),
(514,764,l),
(493,764,l),
(381,547,l),
(385,547,l),
(336,10,l)
);
},
{
closed = 1;
nodes = (
(614,847,o),
(664,891,o),
(678,962,c),
(648,962,l),
(636,922,o),
(599,913,o),
(527,913,cs),
(468,913,o),
(443,916,o),
(443,962,c),
(412,962,l),
(394,888,o),
(433,847,o),
(520,847,cs)
);
}
);
};
guides = (
{
pos = (433,847);
}
);
layerId = "426C3F01-D24D-4224-A47E-56DA036E4742";
shapes = (
{
ref = A;
},
{
pos = (225,62);
ref = brevecomb.case;
}
);
width = 585;
},
{
background = {
anchors = (
{
name = bottom;
pos = (259,0);
},
{
name = ogonek;
pos = (507,10);
},
{
name = top;
pos = (560,984);
}
);
shapes = (
{
closed = 1;
nodes = (
(22,20,l),
(385,551,l),
(502,768,l),
(-20,20,l)
);
},
{
closed = 1;
nodes = (
(124,0,l),
(124,30,l),
(-66,30,l),
(-66,0,l)
);
},
{
closed = 1;
nodes = (
(569,0,l),
(569,30,l),
(250,30,l),
(250,0,l)
);
},
{
closed = 1;
nodes = (
(415,212,l),
(415,245,l),
(146,245,l),
(146,212,l)
);
},
{
closed = 1;
nodes = (
(490,10,l),
(545,768,l),
(494,768,l),
(382,547,l),
(386,547,l),
(337,10,l)
);
},
{
closed = 1;
nodes = (
(601,850,o),
(676,893,o),
(694,984,c),
(655,984,l),
(644,936,o),
(585,925,o),
(532,925,cs),
(483,925,o),
(427,936,o),
(439,984,c),
(400,984,l),
(378,890,o),
(430,850,o),
(517,850,cs)
);
}
);
};
layerId = "DD3DBCA6-CF88-4DA3-ACF4-A2FFC969FFEC";
shapes = (
{
ref = A;
},
{
pos = (218,71);
ref = brevecomb.case;
}
);
width = 621;
}
);
unicode = 258;
},
{
glyphname = Abreveacute;
kernLeft = A;
kernRight = A;
lastChange = "2023-02-02 16:56:08 +0000";
layers = (
{
background = {
anchors = (
{
name = bottom;
pos = (241,0);
},
{
name = ogonek;
pos = (474,10);
},
{
name = top;
pos = (551,1017);
}
);
shapes = (
{
closed = 1;
nodes = (
(21,20,l),
(384,551,l),
(493,764,l),
(-18,20,l)
);
},
{
closed = 1;
nodes = (
(123,0,l),
(123,25,l),
(-91,25,l),
(-91,0,l)
);
},
{
closed = 1;
nodes = (
(538,0,l),
(538,25,l),
(269,25,l),
(269,0,l)
);
},
{
closed = 1;
nodes = (
(434,247,l),
(434,275,l),
(165,275,l),
(165,247,l)
);
},
{
closed = 1;
nodes = (
(459,10,l),
(514,764,l),
(493,764,l),
(381,547,l),
(385,547,l),
(336,10,l)
);
},
{
closed = 1;
nodes = (
(629,847,o),
(679,891,o),
(693,962,c),
(663,962,l),
(651,922,o),
(614,913,o),
(542,913,cs),
(483,913,o),
(458,916,o),
(458,962,c),
(427,962,l),
(409,888,o),
(448,847,o),
(535,847,cs)
);
},
{
closed = 1;
nodes = (
(571,979,l),
(745,1018,ls),
(793,1029,o),
(814,1051,o),
(814,1080,cs),
(814,1105,o),
(799,1119,o),
(776,1119,cs),
(756,1119,o),
(734,1109,o),
(691,1083,cs),
(519,979,l)
);
}
);
};
layerId = "426C3F01-D24D-4224-A47E-56DA036E4742";
shapes = (
{
ref = A;
},
{
pos = (283,304);
ref = brevecomb_acutecomb;
}
);
width = 585;
},
{
background = {
anchors = (
{
name = bottom;
pos = (259,0);
},
{
name = ogonek;
pos = (507,10);
},
{
name = top;
pos = (656,1167);
}
);
shapes = (
{
closed = 1;
nodes = (
(22,20,l),
(385,551,l),
(502,768,l),
(-20,20,l)
);
},
{
closed = 1;
nodes = (
(124,0,l),
(124,30,l),
(-66,30,l),
(-66,0,l)
);
},
{
closed = 1;
nodes = (
(569,0,l),
(569,30,l),
(250,30,l),
(250,0,l)
);
},
{
closed = 1;
nodes = (
(415,212,l),
(415,245,l),
(146,245,l),
(146,212,l)
);
},
{
closed = 1;
nodes = (
(490,10,l),
(545,768,l),
(494,768,l),
(382,547,l),
(386,547,l),
(337,10,l)
);
},
{
closed = 1;
nodes = (
(625,850,o),
(700,893,o),
(718,984,c),
(679,984,l),
(668,936,o),
(609,925,o),
(556,925,cs),
(507,925,o),
(451,936,o),
(463,984,c),
(424,984,l),
(402,890,o),
(454,850,o),
(541,850,cs)
);
},
{
closed = 1;
nodes = (
(568,1026,l),
(766,1065,ls),
(803,1072,o),
(819,1096,o),
(819,1118,cs),
(819,1143,o),
(798,1167,o),
(761,1167,cs),
(733,1167,o),
(713,1158,o),
(675,1135,cs),
(499,1026,l)
);
}
);
};
layerId = "DD3DBCA6-CF88-4DA3-ACF4-A2FFC969FFEC";
shapes = (
{
ref = A;
},
{
pos = (288,304);
ref = brevecomb_acutecomb;
}
);
width = 621;
}
);
unicode = 7854;
},
{
glyphname = Abrevedotbelow;
kernLeft = A;
kernRight = A;
lastChange = "2023-02-02 16:56:08 +0000";
layers = (
{
background = {
anchors = (
{
name = bottom;
pos = (194,-203);
},
{
name = ogonek;
pos = (474,10);
},
{
name = top;
pos = (544,890);
}
);
shapes = (
{
closed = 1;
nodes = (
(21,20,l),
(384,551,l),
(493,764,l),
(-18,20,l)
);
},
{
closed = 1;
nodes = (
(123,0,l),
(123,25,l),
(-91,25,l),
(-91,0,l)
);
},
{
closed = 1;
nodes = (
(538,0,l),
(538,25,l),
(269,25,l),
(269,0,l)
);
},
{
closed = 1;
nodes = (
(434,247,l),
(434,275,l),
(165,275,l),
(165,247,l)
);
},
{
closed = 1;
nodes = (
(459,10,l),
(514,764,l),
(493,764,l),
(381,547,l),
(385,547,l),
(336,10,l)
);
},
{
closed = 1;
nodes = (
(247,-203,o),
(277,-174,o),
(277,-136,cs),
(277,-98,o),
(247,-68,o),
(209,-68,cs),
(171,-68,o),
(142,-98,o),
(142,-136,cs),
(142,-174,o),
(171,-203,o),
(209,-203,cs)
);
},
{
closed = 1;
nodes = (
(614,847,o),
(664,891,o),
(678,962,c),
(648,962,l),
(636,922,o),
(599,913,o),
(527,913,cs),
(468,913,o),
(443,916,o),
(443,962,c),
(412,962,l),
(394,888,o),
(433,847,o),
(520,847,cs)
);
}
);
};
layerId = "426C3F01-D24D-4224-A47E-56DA036E4742";
shapes = (
{
ref = A;
},
{
ref = dotbelowcomb;
},
{
pos = (225,62);
ref = brevecomb.case;
}
);
width = 585;
},
{
background = {
anchors = (
{
name = bottom;
pos = (205,-233);
},
{
name = ogonek;
pos = (507,10);
},
{
name = top;
pos = (560,984);
}
);
shapes = (
{
closed = 1;
nodes = (
(22,20,l),
(385,551,l),
(502,768,l),
(-20,20,l)
);
},
{
closed = 1;
nodes = (
(124,0,l),
(124,30,l),
(-66,30,l),
(-66,0,l)
);
},
{
closed = 1;
nodes = (
(569,0,l),
(569,30,l),
(250,30,l),
(250,0,l)
);
},
{
closed = 1;
nodes = (
(415,212,l),
(415,245,l),
(146,245,l),
(146,212,l)
);
},
{
closed = 1;
nodes = (
(490,10,l),
(545,768,l),
(494,768,l),
(382,547,l),
(386,547,l),
(337,10,l)
);
},
{
closed = 1;
nodes = (
(267,-233,o),
(304,-196,o),
(304,-153,cs),
(304,-109,o),
(267,-72,o),
(223,-72,cs),
(180,-72,o),
(143,-109,o),
(143,-153,cs),
(143,-196,o),
(180,-233,o),
(223,-233,cs)
);
},
{
closed = 1;
nodes = (
(601,850,o),
(676,893,o),
(694,984,c),
(655,984,l),
(644,936,o),
(585,925,o),
(532,925,cs),
(483,925,o),
(427,936,o),
(439,984,c),
(400,984,l),
(378,890,o),
(430,850,o),
(517,850,cs)
);
}
);
};
layerId = "DD3DBCA6-CF88-4DA3-ACF4-A2FFC969FFEC";
shapes = (
{
ref = A;
},
{
pos = (9,0);
ref = dotbelowcomb;
},
{
pos = (218,71);
ref = brevecomb.case;
}
);
width = 621;
}
);
unicode = 7862;
},
{
glyphname = Abrevegrave;
kernLeft = A;
kernRight = A;
lastChange = "2023-02-02 16:56:08 +0000";
layers = (
{
background = {
anchors = (
{
name = bottom;
pos = (241,0);
},
{
name = ogonek;
pos = (474,10);
},
{
name = top;
pos = (538,1128);
}
);
shapes = (
{
closed = 1;
nodes = (
(21,20,l),
(384,551,l),
(493,764,l),
(-18,20,l)
);
},
{
closed = 1;
nodes = (
(123,0,l),
(123,25,l),
(-91,25,l),
(-91,0,l)
);
},
{
closed = 1;
nodes = (
(538,0,l),
(538,25,l),
(269,25,l),
(269,0,l)
);
},
{
closed = 1;
nodes = (
(434,247,l),
(434,275,l),
(165,275,l),
(165,247,l)
);
},
{
closed = 1;
nodes = (
(459,10,l),
(514,764,l),
(493,764,l),
(381,547,l),
(385,547,l),
(336,10,l)
);
},
{
closed = 1;
nodes = (
(615,847,o),
(665,891,o),
(679,962,c),
(649,962,l),
(637,922,o),
(600,913,o),
(528,913,cs),
(469,913,o),
(444,916,o),
(444,962,c),
(413,962,l),
(395,888,o),
(434,847,o),
(521,847,cs)
);
},
{
closed = 1;
nodes = (
(591,988,l),
(452,1092,ls),
(415,1120,o),
(403,1128,o),
(386,1128,cs),
(354,1128,o),
(332,1103,o),
(332,1075,cs),
(332,1054,o),
(345,1039,o),
(372,1032,cs),
(538,988,l)
);
}
);
};
layerId = "426C3F01-D24D-4224-A47E-56DA036E4742";
shapes = (
{
ref = A;
},
{
pos = (175,304);
ref = brevecomb_gravecomb;
}
);
width = 585;
},
{
background = {
anchors = (
{
name = bottom;
pos = (259,0);
},
{
name = ogonek;
pos = (507,10);
},
{
name = top;
pos = (562,1164);
}
);
shapes = (
{
closed = 1;
nodes = (
(22,20,l),
(385,551,l),
(502,768,l),
(-20,20,l)
);
},
{
closed = 1;
nodes = (
(124,0,l),
(124,30,l),
(-66,30,l),
(-66,0,l)
);
},
{
closed = 1;
nodes = (
(569,0,l),
(569,30,l),
(250,30,l),
(250,0,l)
);
},
{
closed = 1;
nodes = (
(415,212,l),
(415,245,l),
(146,245,l),
(146,212,l)
);
},
{
closed = 1;
nodes = (
(490,10,l),
(545,768,l),
(494,768,l),
(382,547,l),
(386,547,l),
(337,10,l)
);
},
{
closed = 1;
nodes = (
(612,850,o),
(687,893,o),
(705,984,c),
(666,984,l),
(655,936,o),
(596,925,o),
(543,925,cs),
(494,925,o),
(438,936,o),
(450,984,c),
(411,984,l),
(389,890,o),
(441,850,o),
(528,850,cs)
);
},
{
closed = 1;
nodes = (
(666,1023,l),
(490,1132,ls),
(452,1155,o),
(432,1164,o),
(404,1164,cs),
(367,1164,o),
(346,1140,o),
(346,1115,cs),
(346,1093,o),
(362,1069,o),
(399,1062,cs),
(597,1023,l)
);
}
);
};
layerId = "DD3DBCA6-CF88-4DA3-ACF4-A2FFC969FFEC";
shapes = (
{
ref = A;
},
{
pos = (180,304);
ref = brevecomb_gravecomb;
}
);
width = 621;
}
);
unicode = 7856;
},
{
glyphname = Abrevehookabove;
kernLeft = A;
kernRight = A;
lastChange = "2023-02-02 16:56:08 +0000";
layers = (
{
background = {
anchors = (
{
name = bottom;
pos = (241,0);
},
{
name = ogonek;
pos = (474,10);
},
{
name = top;
pos = (572,1125);
}
);
shapes = (
{
closed = 1;
nodes = (
(21,20,l),
(384,551,l),
(493,764,l),
(-18,20,l)
);
},
{
closed = 1;
nodes = (
(123,0,l),
(123,25,l),
(-91,25,l),
(-91,0,l)
);
},
{
closed = 1;
nodes = (
(538,0,l),
(538,25,l),
(269,25,l),
(269,0,l)
);
},
{
closed = 1;
nodes = (
(434,247,l),
(434,275,l),
(165,275,l),
(165,247,l)
);
},
{
closed = 1;
nodes = (
(459,10,l),
(514,764,l),
(493,764,l),
(381,547,l),
(385,547,l),
(336,10,l)
);
},
{
closed = 1;
nodes = (
(611,847,o),
(661,891,o),
(675,962,c),
(645,962,l),
(633,922,o),
(596,913,o),
(524,913,cs),
(465,913,o),
(440,916,o),
(440,962,c),
(409,962,l),
(391,888,o),
(430,847,o),
(517,847,cs)
);
},
{
closed = 1;
nodes = (
(552,964,l),
(569,990,o),
(629,1000,o),
(636,1040,cs),
(647,1097,o),
(612,1123,o),
(552,1123,cs),
(508,1123,o),
(455,1102,o),
(444,1043,cs),
(440,1023,o),
(453,1008,o),
(476,1008,cs),
(497,1008,o),
(510,1016,o),
(512,1030,cs),
(516,1048,o),
(502,1046,o),
(505,1058,cs),
(508,1073,o),
(526,1083,o),
(546,1083,cs),
(567,1083,o),
(584,1076,o),
(577,1038,cs),
(572,1014,o),
(532,1000,o),
(525,964,c)
);
}
);
};
layerId = "426C3F01-D24D-4224-A47E-56DA036E4742";
shapes = (
{
ref = A;
},
{
pos = (279,304);
ref = brevecomb_hookabovecomb;
}
);
width = 585;
},
{
background = {
anchors = (
{
name = bottom;
pos = (259,0);
},
{
name = ogonek;
pos = (507,10);
},
{
name = top;
pos = (613,1171);
}
);
shapes = (
{
closed = 1;
nodes = (
(22,20,l),
(385,551,l),
(502,768,l),
(-20,20,l)
);
},
{
closed = 1;
nodes = (
(124,0,l),
(124,30,l),
(-66,30,l),
(-66,0,l)
);
},
{
closed = 1;
nodes = (
(569,0,l),
(569,30,l),
(250,30,l),
(250,0,l)
);
},
{
closed = 1;
nodes = (
(415,212,l),
(415,245,l),
(146,245,l),
(146,212,l)
);
},
{
closed = 1;
nodes = (
(490,10,l),
(545,768,l),
(494,768,l),
(382,547,l),
(386,547,l),
(337,10,l)
);
},
{
closed = 1;
nodes = (
(632,850,o),
(707,893,o),
(725,984,c),
(686,984,l),
(675,936,o),
(616,925,o),
(563,925,cs),
(514,925,o),
(458,936,o),
(470,984,c),
(431,984,l),
(409,890,o),
(461,850,o),
(548,850,cs)
);
},
{
closed = 1;
nodes = (
(598,991,l),
(608,1041,o),
(678,1022,o),
(690,1084,cs),
(704,1155,o),
(675,1184,o),
(602,1184,cs),
(542,1184,o),
(490,1157,o),
(477,1092,cs),
(471,1062,o),
(487,1043,o),
(511,1043,cs),
(528,1043,o),
(552,1050,o),
(555,1069,cs),
(559,1097,o),
(539,1085,o),
(542,1109,cs),
(544,1123,o),
(565,1141,o),
(593,1141,cs),
(622,1141,o),
(637,1125,o),
(630,1093,cs),
(625,1069,o),
(573,1061,o),
(559,991,c)
);
}
);
};
layerId = "DD3DBCA6-CF88-4DA3-ACF4-A2FFC969FFEC";
shapes = (
{
ref = A;
},
{
pos = (296,304);
ref = brevecomb_hookabovecomb;
}
);
width = 621;
}
);
unicode = 7858;
},
{
glyphname = Abrevetilde;
kernLeft = A;
kernRight = A;
lastChange = "2023-02-02 16:56:08 +0000";
layers = (
{
background = {
anchors = (
{
name = bottom;
pos = (241,0);
},
{
name = ogonek;
pos = (474,10);
},
{
name = top;
pos = (612,1115);
}
);
shapes = (
{
closed = 1;
nodes = (
(21,20,l),
(384,551,l),
(493,764,l),
(-18,20,l)
);
},
{
closed = 1;
nodes = (
(123,0,l),
(123,25,l),
(-91,25,l),
(-91,0,l)
);
},
{
closed = 1;
nodes = (
(538,0,l),
(538,25,l),
(269,25,l),
(269,0,l)
);
},
{
closed = 1;
nodes = (
(434,247,l),
(434,275,l),
(165,275,l),
(165,247,l)
);
},
{
closed = 1;
nodes = (
(459,10,l),
(514,764,l),
(493,764,l),
(381,547,l),
(385,547,l),
(336,10,l)
);
},
{
closed = 1;
nodes = (
(614,847,o),
(664,891,o),
(678,962,c),
(648,962,l),
(636,922,o),
(599,913,o),
(527,913,cs),
(468,913,o),
(443,916,o),
(443,962,c),
(412,962,l),
(394,888,o),
(433,847,o),
(520,847,cs)
);
},
{
closed = 1;
nodes = (
(429,987,l),
(442,1015,o),
(469,1036,o),
(502,1036,cs),
(550,1036,o),
(570,988,o),
(632,988,cs),
(688,988,o),
(739,1028,o),
(765,1115,c),
(731,1115,l),
(718,1092,o),
(693,1064,o),
(657,1064,cs),
(610,1064,o),
(586,1112,o),
(529,1112,cs),
(469,1112,o),
(417,1059,o),
(397,987,c)
);
}
);
};
layerId = "426C3F01-D24D-4224-A47E-56DA036E4742";
shapes = (
{
ref = A;
},
{
pos = (261,304);
ref = brevecomb_tildecomb;
}
);
width = 585;
},
{
background = {
anchors = (
{
name = bottom;
pos = (259,0);
},
{
name = ogonek;
pos = (507,10);
},
{
name = top;
pos = (610,1158);
}
);
shapes = (
{
closed = 1;
nodes = (
(22,20,l),
(385,551,l),
(502,768,l),
(-20,20,l)
);
},
{
closed = 1;
nodes = (
(124,0,l),
(124,30,l),
(-66,30,l),
(-66,0,l)
);
},
{
closed = 1;
nodes = (
(569,0,l),
(569,30,l),
(250,30,l),
(250,0,l)
);
},
{
closed = 1;
nodes = (
(415,212,l),
(415,245,l),
(146,245,l),
(146,212,l)
);
},
{
closed = 1;
nodes = (
(490,10,l),
(545,768,l),
(494,768,l),
(382,547,l),
(386,547,l),
(337,10,l)
);
},
{
closed = 1;
nodes = (
(621,850,o),
(696,893,o),
(714,984,c),
(675,984,l),
(664,936,o),
(605,925,o),
(552,925,cs),
(503,925,o),
(447,936,o),
(459,984,c),
(420,984,l),
(398,890,o),
(450,850,o),
(537,850,cs)
);
},
{
closed = 1;
nodes = (
(441,1024,l),
(453,1049,o),
(484,1069,o),
(520,1069,cs),
(573,1069,o),
(589,1025,o),
(652,1025,cs),
(722,1025,o),
(769,1078,o),
(797,1158,c),
(761,1158,l),
(751,1140,o),
(721,1113,o),
(680,1113,cs),
(629,1113,o),
(613,1157,o),
(550,1157,cs),
(475,1157,o),
(428,1093,o),
(407,1024,c)
);
}
);
};
layerId = "DD3DBCA6-CF88-4DA3-ACF4-A2FFC969FFEC";
shapes = (
{
ref = A;
},
{
pos = (263,304);
ref = brevecomb_tildecomb;
}
);
width = 621;
}
);
unicode = 7860;
},
{
glyphname = Acircumflex;
kernLeft = A;
kernRight = A;
lastChange = "2023-02-02 16:56:08 +0000";
layers = (
{
background = {
anchors = (
{
name = bottom;
pos = (241,0);
},
{
name = ogonek;
pos = (474,10);
},
{
name = top;
pos = (524,873);
}
);
shapes = (
{
closed = 1;
nodes = (
(21,20,l),
(384,551,l),
(493,764,l),
(-18,20,l)
);
},
{
closed = 1;
nodes = (
(123,0,l),
(123,25,l),
(-91,25,l),
(-91,0,l)
);
},
{
closed = 1;
nodes = (
(538,0,l),
(538,25,l),
(269,25,l),
(269,0,l)
);
},
{
closed = 1;
nodes = (
(434,247,l),
(434,275,l),
(165,275,l),
(165,247,l)
);
},
{
closed = 1;
nodes = (
(459,10,l),
(514,764,l),
(493,764,l),
(381,547,l),
(385,547,l),
(336,10,l)
);
},
{
closed = 1;
nodes = (
(414,843,l),
(526,884,l),
(612,843,l),
(655,843,l),
(563,943,l),
(501,943,l),
(372,843,l)
);
}
);
};
layerId = "426C3F01-D24D-4224-A47E-56DA036E4742";
shapes = (
{
ref = A;
},
{
pos = (221,20);
ref = circumflexcomb.case;
}
);
width = 585;
},
{
background = {
anchors = (
{
name = bottom;
pos = (259,0);
},
{
name = ogonek;
pos = (507,10);
},
{
name = top;
pos = (561,950);
}
);
shapes = (
{
closed = 1;
nodes = (
(22,20,l),
(385,551,l),
(502,768,l),
(-20,20,l)
);
},
{
closed = 1;
nodes = (
(124,0,l),
(124,30,l),
(-66,30,l),
(-66,0,l)
);
},
{
closed = 1;
nodes = (
(569,0,l),
(569,30,l),
(250,30,l),
(250,0,l)
);
},
{
closed = 1;
nodes = (
(415,212,l),
(415,245,l),
(146,245,l),
(146,212,l)
);
},
{
closed = 1;
nodes = (
(490,10,l),
(545,768,l),
(494,768,l),
(382,547,l),
(386,547,l),
(337,10,l)
);
},
{
closed = 1;
nodes = (
(426,838,l),
(558,883,l),
(670,838,l),
(717,838,l),
(594,950,l),
(538,950,l),
(380,838,l)
);
}
);
};
layerId = "DD3DBCA6-CF88-4DA3-ACF4-A2FFC969FFEC";
shapes = (
{
ref = A;
},
{
pos = (209,12);
ref = circumflexcomb.case;
}
);
width = 621;
}
);
unicode = 194;
},
{
glyphname = Acircumflexacute;
kernLeft = A;
kernRight = A;
lastChange = "2023-02-02 16:56:08 +0000";
layers = (
{
background = {
anchors = (
{
name = bottom;
pos = (241,0);
},
{
name = ogonek;
pos = (474,10);
},
{
name = top;
pos = (566,1117);
}
);
shapes = (
{
closed = 1;
nodes = (
(21,20,l),
(384,551,l),
(493,764,l),
(-18,20,l)
);
},
{
closed = 1;
nodes = (
(123,0,l),
(123,25,l),
(-91,25,l),
(-91,0,l)
);
},
{
closed = 1;
nodes = (
(538,0,l),
(538,25,l),
(269,25,l),
(269,0,l)
);
},
{
closed = 1;
nodes = (
(434,247,l),
(434,275,l),
(165,275,l),
(165,247,l)
);
},
{
closed = 1;
nodes = (
(459,10,l),
(514,764,l),
(493,764,l),
(381,547,l),
(385,547,l),
(336,10,l)
);
},
{
closed = 1;
nodes = (
(418,843,l),
(530,884,l),
(616,843,l),
(659,843,l),
(567,943,l),
(505,943,l),
(376,843,l)
);
},
{
closed = 1;
nodes = (
(450,977,l),
(624,1016,ls),
(672,1027,o),
(693,1049,o),
(693,1078,cs),
(693,1103,o),
(678,1117,o),
(655,1117,cs),
(635,1117,o),
(613,1107,o),
(570,1081,cs),
(398,977,l)
);
}
);
};
layerId = "426C3F01-D24D-4224-A47E-56DA036E4742";
shapes = (
{
ref = A;
},
{
pos = (140,304);
ref = circumflexcomb_acutecomb;
}
);
width = 585;
},
{
background = {
anchors = (
{
name = bottom;
pos = (259,0);
},
{
name = ogonek;
pos = (507,10);
},
{
name = top;
pos = (571,1124);
}
);
shapes = (
{
closed = 1;
nodes = (
(22,20,l),
(385,551,l),
(502,768,l),
(-20,20,l)
);
},
{
closed = 1;
nodes = (
(124,0,l),
(124,30,l),
(-66,30,l),
(-66,0,l)
);
},
{
closed = 1;
nodes = (
(569,0,l),
(569,30,l),
(250,30,l),
(250,0,l)
);
},
{
closed = 1;
nodes = (
(415,212,l),
(415,245,l),
(146,245,l),
(146,212,l)
);
},
{
closed = 1;
nodes = (
(490,10,l),
(545,768,l),
(494,768,l),
(382,547,l),
(386,547,l),
(337,10,l)
);
},
{
closed = 1;
nodes = (
(404,838,l),
(536,883,l),
(648,838,l),
(695,838,l),
(572,950,l),
(516,950,l),
(358,838,l)
);
},
{
closed = 1;
nodes = (
(466,983,l),
(664,1022,ls),
(701,1029,o),
(717,1053,o),
(717,1075,cs),
(717,1100,o),
(696,1124,o),
(659,1124,cs),
(631,1124,o),
(611,1115,o),
(573,1092,cs),
(397,983,l)
);
}
);
};
layerId = "DD3DBCA6-CF88-4DA3-ACF4-A2FFC969FFEC";
shapes = (
{
ref = A;
},
{
pos = (149,304);
ref = circumflexcomb_acutecomb;
}
);
width = 621;
}
);
unicode = 7844;
},
{
glyphname = Acircumflexdotbelow;
kernLeft = A;
kernRight = A;
lastChange = "2023-02-02 16:56:08 +0000";
layers = (
{
background = {
anchors = (
{
name = bottom;
pos = (194,-203);
},
{
name = ogonek;
pos = (474,10);
},
{
name = top;
pos = (524,873);
}
);
shapes = (
{
closed = 1;
nodes = (
(21,20,l),
(384,551,l),
(493,764,l),
(-18,20,l)
);
},
{
closed = 1;
nodes = (
(123,0,l),
(123,25,l),
(-91,25,l),
(-91,0,l)
);
},
{
closed = 1;
nodes = (
(538,0,l),
(538,25,l),
(269,25,l),
(269,0,l)
);
},
{
closed = 1;
nodes = (
(434,247,l),
(434,275,l),
(165,275,l),
(165,247,l)
);
},
{
closed = 1;
nodes = (
(459,10,l),
(514,764,l),
(493,764,l),
(381,547,l),
(385,547,l),
(336,10,l)
);
},
{
closed = 1;
nodes = (
(247,-203,o),
(277,-174,o),
(277,-136,cs),
(277,-98,o),
(247,-68,o),
(209,-68,cs),
(171,-68,o),
(142,-98,o),
(142,-136,cs),
(142,-174,o),
(171,-203,o),
(209,-203,cs)
);
},
{
closed = 1;
nodes = (
(414,843,l),
(526,884,l),
(612,843,l),
(655,843,l),
(563,943,l),
(501,943,l),
(372,843,l)
);
}
);
};
layerId = "426C3F01-D24D-4224-A47E-56DA036E4742";
shapes = (
{
ref = A;
},
{
ref = dotbelowcomb;
},
{
pos = (221,20);
ref = circumflexcomb.case;
}
);
width = 585;
},
{
background = {
anchors = (
{
name = bottom;
pos = (205,-233);
},
{
name = ogonek;
pos = (507,10);
},
{
name = top;
pos = (561,950);
}
);
shapes = (
{
closed = 1;
nodes = (
(22,20,l),
(385,551,l),
(502,768,l),
(-20,20,l)
);
},
{
closed = 1;
nodes = (
(124,0,l),
(124,30,l),
(-66,30,l),
(-66,0,l)
);
},
{
closed = 1;
nodes = (
(569,0,l),
(569,30,l),
(250,30,l),
(250,0,l)
);
},
{
closed = 1;
nodes = (
(415,212,l),
(415,245,l),
(146,245,l),
(146,212,l)
);
},
{
closed = 1;
nodes = (
(490,10,l),
(545,768,l),
(494,768,l),
(382,547,l),
(386,547,l),
(337,10,l)
);
},
{
closed = 1;
nodes = (
(267,-233,o),
(304,-196,o),
(304,-153,cs),
(304,-109,o),
(267,-72,o),
(223,-72,cs),
(180,-72,o),
(143,-109,o),
(143,-153,cs),
(143,-196,o),
(180,-233,o),
(223,-233,cs)
);
},
{
closed = 1;
nodes = (
(426,838,l),
(558,883,l),
(670,838,l),
(717,838,l),
(594,950,l),
(538,950,l),
(380,838,l)
);
}
);
};
layerId = "DD3DBCA6-CF88-4DA3-ACF4-A2FFC969FFEC";
shapes = (
{
ref = A;
},
{
pos = (9,0);
ref = dotbelowcomb;
},
{
pos = (209,12);
ref = circumflexcomb.case;
}
);
width = 621;
}
);
unicode = 7852;
},
{
glyphname = Acircumflexgrave;
kernLeft = A;
kernRight = A;
lastChange = "2023-02-02 16:56:08 +0000";
layers = (
{
background = {
anchors = (
{
name = bottom;
pos = (241,0);
},
{
name = ogonek;
pos = (474,10);
},
{
name = top;
pos = (569,1129);
}
);
shapes = (
{
closed = 1;
nodes = (
(21,20,l),
(384,551,l),
(493,764,l),
(-18,20,l)
);
},
{
closed = 1;
nodes = (
(123,0,l),
(123,25,l),
(-91,25,l),
(-91,0,l)
);
},
{
closed = 1;
nodes = (
(538,0,l),
(538,25,l),
(269,25,l),
(269,0,l)
);
},
{
closed = 1;
nodes = (
(434,247,l),
(434,275,l),
(165,275,l),
(165,247,l)
);
},
{
closed = 1;
nodes = (
(459,10,l),
(514,764,l),
(493,764,l),
(381,547,l),
(385,547,l),
(336,10,l)
);
},
{
closed = 1;
nodes = (
(422,843,l),
(534,884,l),
(620,843,l),
(663,843,l),
(571,943,l),
(509,943,l),
(380,843,l)
);
},
{
closed = 1;
nodes = (
(691,989,l),
(552,1093,ls),
(515,1121,o),
(503,1129,o),
(486,1129,cs),
(454,1129,o),
(432,1104,o),
(432,1076,cs),
(432,1055,o),
(445,1040,o),
(472,1033,cs),
(638,989,l)
);
}
);
};
layerId = "426C3F01-D24D-4224-A47E-56DA036E4742";
shapes = (
{
ref = A;
},
{
pos = (144,304);
ref = circumflexcomb_gravecomb;
}
);
width = 585;
},
{
background = {
anchors = (
{
name = bottom;
pos = (259,0);
},
{
name = ogonek;
pos = (507,10);
},
{
name = top;
pos = (584,1118);
}
);
shapes = (
{
closed = 1;
nodes = (
(22,20,l),
(385,551,l),
(502,768,l),
(-20,20,l)
);
},
{
closed = 1;
nodes = (
(124,0,l),
(124,30,l),
(-66,30,l),
(-66,0,l)
);
},
{
closed = 1;
nodes = (
(569,0,l),
(569,30,l),
(250,30,l),
(250,0,l)
);
},
{
closed = 1;
nodes = (
(415,212,l),
(415,245,l),
(146,245,l),
(146,212,l)
);
},
{
closed = 1;
nodes = (
(490,10,l),
(545,768,l),
(494,768,l),
(382,547,l),
(386,547,l),
(337,10,l)
);
},
{
closed = 1;
nodes = (
(408,838,l),
(540,883,l),
(652,838,l),
(699,838,l),
(576,950,l),
(520,950,l),
(362,838,l)
);
},
{
closed = 1;
nodes = (
(742,977,l),
(566,1086,ls),
(528,1109,o),
(508,1118,o),
(480,1118,cs),
(443,1118,o),
(422,1094,o),
(422,1069,cs),
(422,1047,o),
(438,1023,o),
(475,1016,cs),
(673,977,l)
);
}
);
};
layerId = "DD3DBCA6-CF88-4DA3-ACF4-A2FFC969FFEC";
shapes = (
{
ref = A;
},
{
pos = (153,304);
ref = circumflexcomb_gravecomb;
}
);
width = 621;
}
);
unicode = 7846;
},
{
glyphname = Acircumflexhookabove;
kernLeft = A;
kernRight = A;
lastChange = "2023-02-02 16:56:08 +0000";
layers = (
{
background = {
anchors = (
{
name = bottom;
pos = (241,0);
},
{
name = ogonek;
pos = (474,10);
},
{
name = top;
pos = (597,1089);
}
);
shapes = (
{
closed = 1;
nodes = (
(21,20,l),
(384,551,l),
(493,764,l),
(-18,20,l)
);
},
{
closed = 1;
nodes = (
(123,0,l),
(123,25,l),
(-91,25,l),
(-91,0,l)
);
},
{
closed = 1;
nodes = (
(538,0,l),
(538,25,l),
(269,25,l),
(269,0,l)
);
},
{
closed = 1;
nodes = (
(434,247,l),
(434,275,l),
(165,275,l),
(165,247,l)
);
},
{
closed = 1;
nodes = (
(459,10,l),
(514,764,l),
(493,764,l),
(381,547,l),
(385,547,l),
(336,10,l)
);
},
{
closed = 1;
nodes = (
(416,843,l),
(528,884,l),
(614,843,l),
(657,843,l),
(565,943,l),
(503,943,l),
(374,843,l)
);
},
{
closed = 1;
nodes = (
(648,925,l),
(665,951,o),
(725,961,o),
(732,1001,cs),
(743,1058,o),
(708,1084,o),
(648,1084,cs),
(604,1084,o),
(551,1063,o),
(540,1004,cs),
(536,984,o),
(549,969,o),
(572,969,cs),
(593,969,o),
(606,977,o),
(608,991,cs),
(612,1009,o),
(598,1007,o),
(601,1019,cs),
(604,1034,o),
(622,1044,o),
(642,1044,cs),
(663,1044,o),
(680,1037,o),
(673,999,cs),
(668,975,o),
(628,961,o),
(621,925,c)
);
}
);
};
layerId = "426C3F01-D24D-4224-A47E-56DA036E4742";
shapes = (
{
ref = A;
},
{
pos = (138,304);
ref = circumflexcomb_hookabovecomb;
}
);
width = 585;
},
{
background = {
anchors = (
{
name = bottom;
pos = (259,0);
},
{
name = ogonek;
pos = (507,10);
},
{
name = top;
pos = (615,1110);
}
);
shapes = (
{
closed = 1;
nodes = (
(22,20,l),
(385,551,l),
(502,768,l),
(-20,20,l)
);
},
{
closed = 1;
nodes = (
(124,0,l),
(124,30,l),
(-66,30,l),
(-66,0,l)
);
},
{
closed = 1;
nodes = (
(569,0,l),
(569,30,l),
(250,30,l),
(250,0,l)
);
},
{
closed = 1;
nodes = (
(415,212,l),
(415,245,l),
(146,245,l),
(146,212,l)
);
},
{
closed = 1;
nodes = (
(490,10,l),
(545,768,l),
(494,768,l),
(382,547,l),
(386,547,l),
(337,10,l)
);
},
{
closed = 1;
nodes = (
(405,838,l),
(537,883,l),
(649,838,l),
(696,838,l),
(573,950,l),
(517,950,l),
(359,838,l)
);
},
{
closed = 1;
nodes = (
(698,934,l),
(708,984,o),
(778,965,o),
(790,1027,cs),
(804,1098,o),
(775,1127,o),
(702,1127,cs),
(642,1127,o),
(590,1100,o),
(577,1035,cs),
(571,1005,o),
(587,986,o),
(611,986,cs),
(628,986,o),
(652,993,o),
(655,1012,cs),
(659,1040,o),
(639,1028,o),
(642,1052,cs),
(644,1066,o),
(665,1084,o),
(693,1084,cs),
(722,1084,o),
(737,1068,o),
(730,1036,cs),
(725,1012,o),
(673,1004,o),
(659,934,c)
);
}
);
};
layerId = "DD3DBCA6-CF88-4DA3-ACF4-A2FFC969FFEC";
shapes = (
{
ref = A;
},
{
pos = (150,304);
ref = circumflexcomb_hookabovecomb;
}
);
width = 621;
}
);
unicode = 7848;
},
{
glyphname = Acircumflextilde;
kernLeft = A;
kernRight = A;
lastChange = "2023-02-02 16:56:08 +0000";
layers = (
{
background = {
anchors = (
{
name = bottom;
pos = (241,0);
},
{
name = ogonek;
pos = (474,10);
},
{
name = top;
pos = (592,1098);
}
);
shapes = (
{
closed = 1;
nodes = (
(21,20,l),
(384,551,l),
(493,764,l),
(-18,20,l)
);
},
{
closed = 1;
nodes = (
(123,0,l),
(123,25,l),
(-91,25,l),
(-91,0,l)
);
},
{
closed = 1;
nodes = (
(538,0,l),
(538,25,l),
(269,25,l),
(269,0,l)
);
},
{
closed = 1;
nodes = (
(434,247,l),
(434,275,l),
(165,275,l),
(165,247,l)
);
},
{
closed = 1;
nodes = (
(459,10,l),
(514,764,l),
(493,764,l),
(381,547,l),
(385,547,l),
(336,10,l)
);
},
{
closed = 1;
nodes = (
(418,843,l),
(530,884,l),
(616,843,l),
(659,843,l),
(567,943,l),
(505,943,l),
(376,843,l)
);
},
{
closed = 1;
nodes = (
(413,970,l),
(426,998,o),
(453,1019,o),
(486,1019,cs),
(534,1019,o),
(554,971,o),
(616,971,cs),
(672,971,o),
(723,1011,o),
(749,1098,c),
(715,1098,l),
(702,1075,o),
(677,1047,o),
(641,1047,cs),
(594,1047,o),
(570,1095,o),
(513,1095,cs),
(453,1095,o),
(401,1042,o),
(381,970,c)
);
}
);
};
layerId = "426C3F01-D24D-4224-A47E-56DA036E4742";
shapes = (
{
ref = A;
},
{
pos = (140,304);
ref = circumflexcomb_tildecomb;
}
);
width = 585;
},
{
background = {
anchors = (
{
name = bottom;
pos = (259,0);
},
{
name = ogonek;
pos = (507,10);
},
{
name = top;
pos = (610,1104);
}
);
shapes = (
{
closed = 1;
nodes = (
(22,20,l),
(385,551,l),
(502,768,l),
(-20,20,l)
);
},
{
closed = 1;
nodes = (
(124,0,l),
(124,30,l),
(-66,30,l),
(-66,0,l)
);
},
{
closed = 1;
nodes = (
(569,0,l),
(569,30,l),
(250,30,l),
(250,0,l)
);
},
{
closed = 1;
nodes = (
(415,212,l),
(415,245,l),
(146,245,l),
(146,212,l)
);
},
{
closed = 1;
nodes = (
(490,10,l),
(545,768,l),
(494,768,l),
(382,547,l),
(386,547,l),
(337,10,l)
);
},
{
closed = 1;
nodes = (
(402,838,l),
(534,883,l),
(646,838,l),
(693,838,l),
(570,950,l),
(514,950,l),
(356,838,l)
);
},
{
closed = 1;
nodes = (
(420,970,l),
(432,995,o),
(463,1015,o),
(499,1015,cs),
(552,1015,o),
(568,971,o),
(631,971,cs),
(701,971,o),
(748,1024,o),
(776,1104,c),
(740,1104,l),
(730,1086,o),
(700,1059,o),
(659,1059,cs),
(608,1059,o),
(592,1103,o),
(529,1103,cs),
(454,1103,o),
(407,1039,o),
(386,970,c)
);
}
);
};
layerId = "DD3DBCA6-CF88-4DA3-ACF4-A2FFC969FFEC";
shapes = (
{
ref = A;
},
{
pos = (147,304);
ref = circumflexcomb_tildecomb;
}
);
width = 621;
}
);
unicode = 7850;
},
{
glyphname = Adblgrave;
kernLeft = A;
kernRight = A;
lastChange = "2023-02-02 16:56:08 +0000";
layers = (
{
background = {
anchors = (
{
name = bottom;
pos = (241,0);
},
{
name = ogonek;
pos = (474,10);
},
{
name = top;
pos = (508,754);
}
);
shapes = (
{
closed = 1;
nodes = (
(21,20,l),
(384,551,l),
(493,764,l),
(-18,20,l)
);
},
{
closed = 1;
nodes = (
(123,0,l),
(123,25,l),
(-91,25,l),
(-91,0,l)
);
},
{
closed = 1;
nodes = (
(538,0,l),
(538,25,l),
(269,25,l),
(269,0,l)
);
},
{
closed = 1;
nodes = (
(434,247,l),
(434,275,l),
(165,275,l),
(165,247,l)
);
},
{
closed = 1;
nodes = (
(459,10,l),
(514,764,l),
(493,764,l),
(381,547,l),
(385,547,l),
(336,10,l)
);
},
{
closed = 1;
nodes = (
(662,784,l),
(523,888,ls),
(486,916,o),
(474,924,o),
(457,924,cs),
(425,924,o),
(403,899,o),
(403,871,cs),
(403,850,o),
(416,835,o),
(443,828,cs),
(609,784,l)
);
},
{
closed = 1;
nodes = (
(458,784,l),
(319,888,ls),
(282,916,o),
(270,924,o),
(253,924,cs),
(221,924,o),
(199,899,o),
(199,871,cs),
(199,850,o),
(212,835,o),
(239,828,cs),
(405,784,l)
);
}
);
};
layerId = "426C3F01-D24D-4224-A47E-56DA036E4742";
shapes = (
{
ref = A;
},
{
pos = (131,0);
ref = dblgravecomb.case;
}
);
width = 585;
},
{
background = {
anchors = (
{
name = bottom;
pos = (259,0);
},
{
name = ogonek;
pos = (507,10);
},
{
name = top;
pos = (516,754);
}
);
shapes = (
{
closed = 1;
nodes = (
(22,20,l),
(385,551,l),
(502,768,l),
(-20,20,l)
);
},
{
closed = 1;
nodes = (
(124,0,l),
(124,30,l),
(-66,30,l),
(-66,0,l)
);
},
{
closed = 1;
nodes = (
(569,0,l),
(569,30,l),
(250,30,l),
(250,0,l)
);
},
{
closed = 1;
nodes = (
(415,212,l),
(415,245,l),
(146,245,l),
(146,212,l)
);
},
{
closed = 1;
nodes = (
(490,10,l),
(545,768,l),
(494,768,l),
(382,547,l),
(386,547,l),
(337,10,l)
);
},
{
closed = 1;
nodes = (
(736,794,l),
(605,895,ls),
(573,919,o),
(551,924,o),
(525,924,cs),
(492,924,o),
(473,902,o),
(473,879,cs),
(473,859,o),
(488,838,o),
(522,830,cs),
(673,794,l)
);
},
{
closed = 1;
nodes = (
(505,794,l),
(374,895,ls),
(342,919,o),
(320,924,o),
(294,924,cs),
(261,924,o),
(242,902,o),
(242,879,cs),
(242,859,o),
(257,838,o),
(291,830,cs),
(442,794,l)
);
}
);
};
layerId = "DD3DBCA6-CF88-4DA3-ACF4-A2FFC969FFEC";
shapes = (
{
ref = A;
},
{
pos = (84,12);
ref = dblgravecomb.case;
}
);
width = 621;
}
);
unicode = 512;
},
{
glyphname = Adieresis;
kernLeft = A;
kernRight = A;
lastChange = "2023-02-02 16:56:08 +0000";
layers = (
{
background = {
anchors = (
{
name = bottom;
pos = (241,0);
},
{
name = ogonek;
pos = (474,10);
},
{
name = top;
pos = (508,754);
}
);
shapes = (
{
closed = 1;
nodes = (
(21,20,l),
(384,551,l),
(493,764,l),
(-18,20,l)
);
},
{
closed = 1;
nodes = (
(123,0,l),
(123,25,l),
(-91,25,l),
(-91,0,l)
);
},
{
closed = 1;
nodes = (
(538,0,l),
(538,25,l),
(269,25,l),
(269,0,l)
);
},
{
closed = 1;
nodes = (
(434,247,l),
(434,275,l),
(165,275,l),
(165,247,l)
);
},
{
closed = 1;
nodes = (
(459,10,l),
(514,764,l),
(493,764,l),
(381,547,l),
(385,547,l),
(336,10,l)
);
},
{
closed = 1;
nodes = (
(654,814,o),
(679,838,o),
(679,869,cs),
(679,899,o),
(654,924,o),
(624,924,cs),
(593,924,o),
(569,899,o),
(569,869,cs),
(569,838,o),
(593,814,o),
(624,814,cs)
);
},
{
closed = 1;
nodes = (
(464,814,o),
(489,838,o),
(489,869,cs),
(489,899,o),
(464,924,o),
(434,924,cs),
(403,924,o),
(379,899,o),
(379,869,cs),
(379,838,o),
(403,814,o),
(434,814,cs)
);
}
);
};
layerId = "426C3F01-D24D-4224-A47E-56DA036E4742";
shapes = (
{
ref = A;
},
{
pos = (210,0);
ref = dieresiscomb.case;
}
);
width = 585;
},
{
background = {
anchors = (
{
name = bottom;
pos = (259,0);
},
{
name = ogonek;
pos = (507,10);
},
{
name = top;
pos = (516,754);
}
);
shapes = (
{
closed = 1;
nodes = (
(22,20,l),
(385,551,l),
(502,768,l),
(-20,20,l)
);
},
{
closed = 1;
nodes = (
(124,0,l),
(124,30,l),
(-66,30,l),
(-66,0,l)
);
},
{
closed = 1;
nodes = (
(569,0,l),
(569,30,l),
(250,30,l),
(250,0,l)
);
},
{
closed = 1;
nodes = (
(415,212,l),
(415,245,l),
(146,245,l),
(146,212,l)
);
},
{
closed = 1;
nodes = (
(490,10,l),
(545,768,l),
(494,768,l),
(382,547,l),
(386,547,l),
(337,10,l)
);
},
{
closed = 1;
nodes = (
(660,797,o),
(689,825,o),
(689,860,cs),
(689,895,o),
(660,923,o),
(625,923,cs),
(591,923,o),
(562,895,o),
(562,860,cs),
(562,825,o),
(591,797,o),
(625,797,cs)
);
},
{
closed = 1;
nodes = (
(477,797,o),
(506,825,o),
(506,860,cs),
(506,895,o),
(477,923,o),
(443,923,cs),
(408,923,o),
(379,895,o),
(379,860,cs),
(379,825,o),
(408,797,o),
(443,797,cs)
);
}
);
};
layerId = "DD3DBCA6-CF88-4DA3-ACF4-A2FFC969FFEC";
shapes = (
{
ref = A;
},
{
pos = (216,11);
ref = dieresiscomb.case;
}
);
width = 621;
}
);
unicode = 196;
},
{
glyphname = Adotbelow;
kernLeft = A;
kernRight = A;
lastChange = "2023-02-02 16:56:08 +0000";
layers = (
{
background = {
anchors = (
{
name = bottom;
pos = (194,-203);
},
{
name = ogonek;
pos = (474,10);
},
{
name = top;
pos = (508,754);
}
);
shapes = (
{
closed = 1;
nodes = (
(21,20,l),
(384,551,l),
(493,764,l),
(-18,20,l)
);
},
{
closed = 1;
nodes = (
(123,0,l),
(123,25,l),
(-91,25,l),
(-91,0,l)
);
},
{
closed = 1;
nodes = (
(538,0,l),
(538,25,l),
(269,25,l),
(269,0,l)
);
},
{
closed = 1;
nodes = (
(434,247,l),
(434,275,l),
(165,275,l),
(165,247,l)
);
},
{
closed = 1;
nodes = (
(459,10,l),
(514,764,l),
(493,764,l),
(381,547,l),
(385,547,l),
(336,10,l)
);
},
{
closed = 1;
nodes = (
(247,-203,o),
(277,-174,o),
(277,-136,cs),
(277,-98,o),
(247,-68,o),
(209,-68,cs),
(171,-68,o),
(142,-98,o),
(142,-136,cs),
(142,-174,o),
(171,-203,o),
(209,-203,cs)
);
}
);
};
layerId = "426C3F01-D24D-4224-A47E-56DA036E4742";
shapes = (
{
ref = A;
},
{
ref = dotbelowcomb;
}
);
width = 585;
},
{
background = {
anchors = (
{
name = bottom;
pos = (205,-233);
},
{
name = ogonek;
pos = (507,10);
},
{
name = top;
pos = (516,754);
}
);
shapes = (
{
closed = 1;
nodes = (
(22,20,l),
(385,551,l),
(502,768,l),
(-20,20,l)
);
},
{
closed = 1;
nodes = (
(124,0,l),
(124,30,l),
(-66,30,l),
(-66,0,l)
);
},
{
closed = 1;
nodes = (
(569,0,l),
(569,30,l),
(250,30,l),
(250,0,l)
);
},
{
closed = 1;
nodes = (
(415,212,l),
(415,245,l),
(146,245,l),
(146,212,l)
);
},
{
closed = 1;
nodes = (
(490,10,l),
(545,768,l),
(494,768,l),
(382,547,l),
(386,547,l),
(337,10,l)
);
},
{
closed = 1;
nodes = (
(267,-233,o),
(304,-196,o),
(304,-153,cs),
(304,-109,o),
(267,-72,o),
(223,-72,cs),
(180,-72,o),
(143,-109,o),
(143,-153,cs),
(143,-196,o),
(180,-233,o),
(223,-233,cs)
);
}
);
};
layerId = "DD3DBCA6-CF88-4DA3-ACF4-A2FFC969FFEC";
shapes = (
{
ref = A;
},
{
pos = (9,0);
ref = dotbelowcomb;
}
);
width = 621;
}
);
unicode = 7840;
},
{
glyphname = Agrave;
kernLeft = A;
kernRight = A;
lastChange = "2023-02-02 16:56:08 +0000";
layers = (
{
background = {
anchors = (
{
name = bottom;
pos = (241,0);
},
{
name = ogonek;
pos = (474,10);
},
{
name = top;
pos = (563,992);
}
);
shapes = (
{
closed = 1;
nodes = (
(21,20,l),
(384,551,l),
(493,764,l),
(-18,20,l)
);
},
{
closed = 1;
nodes = (
(123,0,l),
(123,25,l),
(-91,25,l),
(-91,0,l)
);
},
{
closed = 1;
nodes = (
(538,0,l),
(538,25,l),
(269,25,l),
(269,0,l)
);
},
{
closed = 1;
nodes = (
(434,247,l),
(434,275,l),
(165,275,l),
(165,247,l)
);
},
{
closed = 1;
nodes = (
(459,10,l),
(514,764,l),
(493,764,l),
(381,547,l),
(385,547,l),
(336,10,l)
);
},
{
closed = 1;
nodes = (
(627,852,l),
(488,956,ls),
(451,984,o),
(439,992,o),
(422,992,cs),
(390,992,o),
(368,967,o),
(368,939,cs),
(368,918,o),
(381,903,o),
(408,896,cs),
(574,852,l)
);
}
);
};
layerId = "426C3F01-D24D-4224-A47E-56DA036E4742";
shapes = (
{
ref = A;
},
{
pos = (232,65);
ref = gravecomb.case;
}
);
width = 585;
},
{
background = {
anchors = (
{
name = bottom;
pos = (259,0);
},
{
name = ogonek;
pos = (507,10);
},
{
name = top;
pos = (571,995);
}
);
shapes = (
{
closed = 1;
nodes = (
(22,20,l),
(385,551,l),
(502,768,l),
(-20,20,l)
);
},
{
closed = 1;
nodes = (
(124,0,l),
(124,30,l),
(-66,30,l),
(-66,0,l)
);
},
{
closed = 1;
nodes = (
(569,0,l),
(569,30,l),
(250,30,l),
(250,0,l)
);
},
{
closed = 1;
nodes = (
(415,212,l),
(415,245,l),
(146,245,l),
(146,212,l)
);
},
{
closed = 1;
nodes = (
(490,10,l),
(545,768,l),
(494,768,l),
(382,547,l),
(386,547,l),
(337,10,l)
);
},
{
closed = 1;
nodes = (
(715,854,l),
(539,963,ls),
(501,986,o),
(481,995,o),
(453,995,cs),
(416,995,o),
(395,971,o),
(395,946,cs),
(395,924,o),
(411,900,o),
(448,893,cs),
(646,854,l)
);
}
);
};
layerId = "DD3DBCA6-CF88-4DA3-ACF4-A2FFC969FFEC";
shapes = (
{
ref = A;
},
{
pos = (224,33);
ref = gravecomb.case;
}
);
width = 621;
}
);
unicode = 192;
},
{
glyphname = Ahookabove;
kernLeft = A;
kernRight = A;
lastChange = "2023-02-02 16:56:08 +0000";
layers = (
{
background = {
anchors = (
{
name = bottom;
pos = (241,0);
},
{
name = ogonek;
pos = (474,10);
},
{
name = top;
pos = (562,987);
}
);
shapes = (
{
closed = 1;
nodes = (
(21,20,l),
(384,551,l),
(493,764,l),
(-18,20,l)
);
},
{
closed = 1;
nodes = (
(123,0,l),
(123,25,l),
(-91,25,l),
(-91,0,l)
);
},
{
closed = 1;
nodes = (
(538,0,l),
(538,25,l),
(269,25,l),
(269,0,l)
);
},
{
closed = 1;
nodes = (
(434,247,l),
(434,275,l),
(165,275,l),
(165,247,l)
);
},
{
closed = 1;
nodes = (
(459,10,l),
(514,764,l),
(493,764,l),
(381,547,l),
(385,547,l),
(336,10,l)
);
},
{
closed = 1;
nodes = (
(555,828,l),
(572,854,o),
(632,864,o),
(639,904,cs),
(650,961,o),
(615,987,o),
(555,987,cs),
(511,987,o),
(458,966,o),
(447,907,cs),
(443,887,o),
(456,872,o),
(479,872,cs),
(500,872,o),
(513,880,o),
(515,894,cs),
(519,912,o),
(505,910,o),
(508,922,cs),
(511,937,o),
(529,947,o),
(549,947,cs),
(570,947,o),
(587,940,o),
(580,902,cs),
(575,878,o),
(535,864,o),
(528,828,c)
);
}
);
};
layerId = "426C3F01-D24D-4224-A47E-56DA036E4742";
shapes = (
{
ref = A;
},
{
pos = (185,304);
ref = hookabovecomb;
}
);
width = 585;
},
{
background = {
anchors = (
{
name = bottom;
pos = (259,0);
},
{
name = ogonek;
pos = (507,10);
},
{
name = top;
pos = (574,1004);
}
);
shapes = (
{
closed = 1;
nodes = (
(22,20,l),
(385,551,l),
(502,768,l),
(-20,20,l)
);
},
{
closed = 1;
nodes = (
(124,0,l),
(124,30,l),
(-66,30,l),
(-66,0,l)
);
},
{
closed = 1;
nodes = (
(569,0,l),
(569,30,l),
(250,30,l),
(250,0,l)
);
},
{
closed = 1;
nodes = (
(415,212,l),
(415,245,l),
(146,245,l),
(146,212,l)
);
},
{
closed = 1;
nodes = (
(490,10,l),
(545,768,l),
(494,768,l),
(382,547,l),
(386,547,l),
(337,10,l)
);
},
{
closed = 1;
nodes = (
(565,811,l),
(575,861,o),
(645,842,o),
(657,904,cs),
(671,975,o),
(642,1004,o),
(569,1004,cs),
(509,1004,o),
(457,977,o),
(444,912,cs),
(438,882,o),
(454,863,o),
(478,863,cs),
(495,863,o),
(519,870,o),
(522,889,cs),
(526,917,o),
(506,905,o),
(509,929,cs),
(511,943,o),
(532,961,o),
(560,961,cs),
(589,961,o),
(604,945,o),
(597,913,cs),
(592,889,o),
(540,881,o),
(526,811,c)
);
}
);
};
layerId = "DD3DBCA6-CF88-4DA3-ACF4-A2FFC969FFEC";
shapes = (
{
ref = A;
},
{
pos = (184,304);
ref = hookabovecomb;
}
);
width = 621;
}
);
unicode = 7842;
},
{
glyphname = Ainvertedbreve;
kernLeft = A;
kernRight = A;
lastChange = "2023-02-02 16:56:08 +0000";
layers = (
{
background = {
anchors = (
{
name = bottom;
pos = (241,0);
},
{
name = ogonek;
pos = (474,10);
},
{
name = top;
pos = (508,754);
}
);
shapes = (
{
closed = 1;
nodes = (
(21,20,l),
(384,551,l),
(493,764,l),
(-18,20,l)
);
},
{
closed = 1;
nodes = (
(123,0,l),
(123,25,l),
(-91,25,l),
(-91,0,l)
);
},
{
closed = 1;
nodes = (
(538,0,l),
(538,25,l),
(269,25,l),
(269,0,l)
);
},
{
closed = 1;
nodes = (
(434,247,l),
(434,275,l),
(165,275,l),
(165,247,l)
);
},
{
closed = 1;
nodes = (
(459,10,l),
(514,764,l),
(493,764,l),
(381,547,l),
(385,547,l),
(336,10,l)
);
},
{
closed = 1;
nodes = (
(387,787,l),
(400,831,o),
(450,851,o),
(530,851,cs),
(595,851,o),
(632,838,o),
(632,787,c),
(666,787,l),
(669,799,o),
(670,809,o),
(670,818,cs),
(670,877,o),
(619,924,o),
(533,924,cs),
(436,924,o),
(368,864,o),
(353,787,c)
);
}
);
};
layerId = "426C3F01-D24D-4224-A47E-56DA036E4742";
shapes = (
{
ref = A;
},
{
pos = (203,0);
ref = breveinvertedcomb.case;
}
);
width = 585;
},
{
background = {
anchors = (
{
name = bottom;
pos = (259,0);
},
{
name = ogonek;
pos = (507,10);
},
{
name = top;
pos = (516,754);
}
);
shapes = (
{
closed = 1;
nodes = (
(22,20,l),
(385,551,l),
(502,768,l),
(-20,20,l)
);
},
{
closed = 1;
nodes = (
(124,0,l),
(124,30,l),
(-66,30,l),
(-66,0,l)
);
},
{
closed = 1;
nodes = (
(569,0,l),
(569,30,l),
(250,30,l),
(250,0,l)
);
},
{
closed = 1;
nodes = (
(415,212,l),
(415,245,l),
(146,245,l),
(146,212,l)
);
},
{
closed = 1;
nodes = (
(490,10,l),
(545,768,l),
(494,768,l),
(382,547,l),
(386,547,l),
(337,10,l)
);
},
{
closed = 1;
nodes = (
(405,780,l),
(416,828,o),
(465,849,o),
(528,849,cs),
(587,849,o),
(633,828,o),
(621,780,c),
(660,780,l),
(664,797,o),
(666,811,o),
(666,824,cs),
(666,894,o),
(619,924,o),
(543,924,cs),
(449,924,o),
(384,871,o),
(366,780,c)
);
}
);
};
layerId = "DD3DBCA6-CF88-4DA3-ACF4-A2FFC969FFEC";
shapes = (
{
ref = A;
},
{
pos = (198,0);
ref = breveinvertedcomb.case;
}
);
width = 621;
}
);
unicode = 514;
},
{
glyphname = Amacron;
kernLeft = A;
kernRight = A;
lastChange = "2023-02-02 16:56:08 +0000";
layers = (
{
background = {
anchors = (
{
name = bottom;
pos = (241,0);
},
{
name = ogonek;
pos = (474,10);
},
{
name = top;
pos = (508,754);
}
);
shapes = (
{
closed = 1;
nodes = (
(21,20,l),
(384,551,l),
(493,764,l),
(-18,20,l)
);
},
{
closed = 1;
nodes = (
(123,0,l),
(123,25,l),
(-91,25,l),
(-91,0,l)
);
},
{
closed = 1;
nodes = (
(538,0,l),
(538,25,l),
(269,25,l),
(269,0,l)
);
},
{
closed = 1;
nodes = (
(434,247,l),
(434,275,l),
(165,275,l),
(165,247,l)
);
},
{
closed = 1;
nodes = (
(459,10,l),
(514,764,l),
(493,764,l),
(381,547,l),
(385,547,l),
(336,10,l)
);
},
{
closed = 1;
nodes = (
(669,858,l),
(684,924,l),
(364,924,l),
(349,858,l)
);
}
);
};
layerId = "426C3F01-D24D-4224-A47E-56DA036E4742";
shapes = (
{
ref = A;
},
{
pos = (193,0);
ref = macroncomb.case;
}
);
width = 585;
},
{
background = {
anchors = (
{
name = bottom;
pos = (259,0);
},
{
name = ogonek;
pos = (507,10);
},
{
name = top;
pos = (516,754);
}
);
shapes = (
{
closed = 1;
nodes = (
(22,20,l),
(385,551,l),
(502,768,l),
(-20,20,l)
);
},
{
closed = 1;
nodes = (
(124,0,l),
(124,30,l),
(-66,30,l),
(-66,0,l)
);
},
{
closed = 1;
nodes = (
(569,0,l),
(569,30,l),
(250,30,l),
(250,0,l)
);
},
{
closed = 1;
nodes = (
(415,212,l),
(415,245,l),
(146,245,l),
(146,212,l)
);
},
{
closed = 1;
nodes = (
(490,10,l),
(545,768,l),
(494,768,l),
(382,547,l),
(386,547,l),
(337,10,l)
);
},
{
closed = 1;
nodes = (
(688,837,l),
(707,923,l),
(367,923,l),
(348,837,l)
);
}
);
};
layerId = "DD3DBCA6-CF88-4DA3-ACF4-A2FFC969FFEC";
shapes = (
{
ref = A;
},
{
pos = (199,0);
ref = macroncomb.case;
}
);
width = 621;
}
);
unicode = 256;
},
{
glyphname = Aogonek;
kernLeft = A;
kernRight = A;
lastChange = "2023-02-02 16:56:08 +0000";
layers = (
{
background = {
anchors = (
{
name = bottom;
pos = (241,0);
},
{
name = ogonek;
pos = (474,10);
},
{
name = top;
pos = (508,754);
}
);
shapes = (
{
closed = 1;
nodes = (
(21,20,l),
(384,551,l),
(493,764,l),
(-18,20,l)
);
},
{
closed = 1;
nodes = (
(123,0,l),
(123,25,l),
(-91,25,l),
(-91,0,l)
);
},
{
closed = 1;
nodes = (
(538,0,l),
(538,25,l),
(269,25,l),
(269,0,l)
);
},
{
closed = 1;
nodes = (
(434,247,l),
(434,275,l),
(165,275,l),
(165,247,l)
);
},
{
closed = 1;
nodes = (
(459,10,l),
(514,764,l),
(493,764,l),
(381,547,l),
(385,547,l),
(336,10,l)
);
},
{
closed = 1;
nodes = (
(433,-244,o),
(478,-225,o),
(505,-198,c),
(493,-182,l),
(469,-197,o),
(452,-203,o),
(436,-203,cs),
(412,-203,o),
(398,-189,o),
(398,-163,cs),
(398,-114,o),
(449,-55,o),
(538,0,c),
(502,6,l),
(389,-53,o),
(315,-128,o),
(315,-184,cs),
(315,-220,o),
(346,-244,o),
(392,-244,cs),
(392,-244,ls)
);
}
);
};
layerId = "426C3F01-D24D-4224-A47E-56DA036E4742";
shapes = (
{
ref = A;
},
{
pos = (424,-12);
ref = ogonekcomb;
}
);
width = 585;
},
{
background = {
anchors = (
{
name = bottom;
pos = (259,0);
},
{
name = ogonek;
pos = (507,10);
},
{
name = top;
pos = (516,754);
}
);
shapes = (
{
closed = 1;
nodes = (
(22,20,l),
(385,551,l),
(502,768,l),
(-20,20,l)
);
},
{
closed = 1;
nodes = (
(124,0,l),
(124,30,l),
(-66,30,l),
(-66,0,l)
);
},
{
closed = 1;
nodes = (
(569,0,l),
(569,30,l),
(250,30,l),
(250,0,l)
);
},
{
closed = 1;
nodes = (
(415,212,l),
(415,245,l),
(146,245,l),
(146,212,l)
);
},
{
closed = 1;
nodes = (
(490,10,l),
(545,768,l),
(494,768,l),
(382,547,l),
(386,547,l),
(337,10,l)
);
},
{
closed = 1;
nodes = (
(410,-237,o),
(474,-214,o),
(502,-186,c),
(487,-155,l),
(454,-170,o),
(430,-176,o),
(411,-176,cs),
(381,-176,o),
(362,-161,o),
(362,-136,cs),
(362,-91,o),
(419,-33,o),
(505,12,c),
(459,12,l),
(326,-57,o),
(269,-111,o),
(269,-168,cs),
(269,-211,o),
(302,-237,o),
(358,-237,cs),
(358,-237,ls)
);
}
);
};
layerId = "DD3DBCA6-CF88-4DA3-ACF4-A2FFC969FFEC";
shapes = (
{
ref = A;
},
{
pos = (360,0);
ref = ogonekcomb;
}
);
width = 621;
}
);
unicode = 260;
},
{
glyphname = Aring;
kernLeft = A;
kernRight = A;
lastChange = "2023-02-02 16:56:08 +0000";
layers = (
{
background = {
anchors = (
{
name = bottom;
pos = (241,0);
},
{
name = ogonek;
pos = (474,10);
},
{
name = top;
pos = (508,754);
}
);
shapes = (
{
closed = 1;
nodes = (
(21,20,l),
(384,551,l),
(493,764,l),
(-18,20,l)
);
},
{
closed = 1;
nodes = (
(123,0,l),
(123,25,l),
(-91,25,l),
(-91,0,l)
);
},
{
closed = 1;
nodes = (
(538,0,l),
(538,25,l),
(269,25,l),
(269,0,l)
);
},
{
closed = 1;
nodes = (
(434,247,l),
(434,275,l),
(165,275,l),
(165,247,l)
);
},
{
closed = 1;
nodes = (
(459,10,l),
(514,764,l),
(493,764,l),
(381,547,l),
(385,547,l),
(336,10,l)
);
},
{
closed = 1;
nodes = (
(560,777,o),
(592,811,o),
(592,852,cs),
(592,893,o),
(559,924,o),
(519,924,cs),
(479,924,o),
(445,892,o),
(445,852,cs),
(445,811,o),
(479,777,o),
(519,777,cs)
);
},
{
closed = 1;
nodes = (
(497,810,o),
(478,830,o),
(478,852,cs),
(478,873,o),
(498,891,o),
(519,891,cs),
(540,891,o),
(559,873,o),
(559,852,cs),
(559,830,o),
(541,810,o),
(519,810,cs)
);
}
);
};
layerId = "426C3F01-D24D-4224-A47E-56DA036E4742";
shapes = (
{
ref = A;
},
{
pos = (270,0);
ref = ringcomb.case;
}
);
width = 585;
},
{
background = {
anchors = (
{
name = bottom;
pos = (259,0);
},
{
name = ogonek;
pos = (507,10);
},
{
name = top;
pos = (516,754);
}
);
shapes = (
{
closed = 1;
nodes = (
(22,20,l),
(385,551,l),
(502,768,l),
(-20,20,l)
);
},
{
closed = 1;
nodes = (
(124,0,l),
(124,30,l),
(-66,30,l),
(-66,0,l)
);
},
{
closed = 1;
nodes = (
(569,0,l),
(569,30,l),
(250,30,l),
(250,0,l)
);
},
{
closed = 1;
nodes = (
(415,212,l),
(415,245,l),
(146,245,l),
(146,212,l)
);
},
{
closed = 1;
nodes = (
(490,10,l),
(545,768,l),
(494,768,l),
(382,547,l),
(386,547,l),
(337,10,l)
);
},
{
closed = 1;
nodes = (
(568,783,o),
(595,810,o),
(595,854,cs),
(595,898,o),
(568,924,o),
(524,924,cs),
(480,924,o),
(453,898,o),
(453,854,cs),
(453,810,o),
(480,783,o),
(524,783,cs)
);
},
{
closed = 1;
nodes = (
(500,813,o),
(488,830,o),
(488,854,cs),
(488,878,o),
(500,893,o),
(524,893,cs),
(548,893,o),
(560,878,o),
(560,854,cs),
(560,830,o),
(548,813,o),
(524,813,cs)
);
}
);
};
layerId = "DD3DBCA6-CF88-4DA3-ACF4-A2FFC969FFEC";
shapes = (
{
ref = A;
},
{
pos = (281,0);
ref = ringcomb.case;
}
);
width = 621;
}
);
unicode = 197;
},
{
glyphname = Aringacute;
kernLeft = A;
kernRight = A;
lastChange = "2023-02-02 16:56:08 +0000";
layers = (
{
background = {
anchors = (
{
name = bottom;
pos = (241,0);
},
{
name = ogonek;
pos = (474,10);
},
{
name = top;
pos = (508,754);
}
);
shapes = (
{
closed = 1;
nodes = (
(21,20,l),
(384,551,l),
(493,764,l),
(-18,20,l)
);
},
{
closed = 1;
nodes = (
(123,0,l),
(123,25,l),
(-91,25,l),
(-91,0,l)
);
},
{
closed = 1;
nodes = (
(538,0,l),
(538,25,l),
(269,25,l),
(269,0,l)
);
},
{
closed = 1;
nodes = (
(434,247,l),
(434,275,l),
(165,275,l),
(165,247,l)
);
},
{
closed = 1;
nodes = (
(459,10,l),
(514,764,l),
(493,764,l),
(381,547,l),
(385,547,l),
(336,10,l)
);
},
{
closed = 1;
nodes = (
(563,729,o),
(595,763,o),
(595,804,cs),
(595,845,o),
(562,876,o),
(522,876,cs),
(482,876,o),
(448,844,o),
(448,804,cs),
(448,763,o),
(482,729,o),
(522,729,cs)
);
},
{
closed = 1;
nodes = (
(500,762,o),
(481,782,o),
(481,804,cs),
(481,825,o),
(501,843,o),
(522,843,cs),
(543,843,o),
(562,825,o),
(562,804,cs),
(562,782,o),
(544,762,o),
(522,762,cs)
);
},
{
closed = 1;
nodes = (
(591,839,l),
(765,878,ls),
(813,889,o),
(834,911,o),
(834,940,cs),
(834,965,o),
(819,979,o),
(796,979,cs),
(776,979,o),
(754,969,o),
(711,943,cs),
(539,839,l)
);
}
);
};
layerId = "426C3F01-D24D-4224-A47E-56DA036E4742";
shapes = (
{
ref = A;
},
{
alignment = -1;
pos = (261,-48);
ref = ringcomb.case;
},
{
alignment = -1;
pos = (369,55);
ref = acutecomb.case;
}
);
width = 585;
},
{
background = {
anchors = (
{
name = bottom;
pos = (259,0);
},
{
name = ogonek;
pos = (507,10);
},
{
name = top;
pos = (516,754);
}
);
shapes = (
{
closed = 1;
nodes = (
(22,20,l),
(385,551,l),
(502,768,l),
(-20,20,l)
);
},
{
closed = 1;
nodes = (
(124,0,l),
(124,30,l),
(-66,30,l),
(-66,0,l)
);
},
{
closed = 1;
nodes = (
(569,0,l),
(569,30,l),
(250,30,l),
(250,0,l)
);
},
{
closed = 1;
nodes = (
(415,212,l),
(415,245,l),
(146,245,l),
(146,212,l)
);
},
{
closed = 1;
nodes = (
(490,10,l),
(545,768,l),
(494,768,l),
(382,547,l),
(386,547,l),
(337,10,l)
);
},
{
closed = 1;
nodes = (
(561,737,o),
(588,764,o),
(588,808,cs),
(588,852,o),
(561,878,o),
(517,878,cs),
(473,878,o),
(446,852,o),
(446,808,cs),
(446,764,o),
(473,737,o),
(517,737,cs)
);
},
{
closed = 1;
nodes = (
(493,767,o),
(481,784,o),
(481,808,cs),
(481,832,o),
(493,847,o),
(517,847,cs),
(541,847,o),
(553,832,o),
(553,808,cs),
(553,784,o),
(541,767,o),
(517,767,cs)
);
},
{
closed = 1;
nodes = (
(611,823,l),
(809,862,ls),
(846,869,o),
(862,893,o),
(862,915,cs),
(862,940,o),
(841,964,o),
(804,964,cs),
(776,964,o),
(756,955,o),
(718,932,cs),
(542,823,l)
);
}
);
};
layerId = "DD3DBCA6-CF88-4DA3-ACF4-A2FFC969FFEC";
shapes = (
{
ref = A;
},
{
alignment = -1;
pos = (259,-46);
ref = ringcomb.case;
},
{
alignment = -1;
pos = (392,60);
ref = acutecomb.case;
}
);
width = 621;
}
);
unicode = 506;
},
{
glyphname = Atilde;
kernLeft = A;
kernRight = A;
lastChange = "2023-02-02 16:56:08 +0000";
layers = (
{
background = {
anchors = (
{
name = bottom;
pos = (241,0);
},
{
name = ogonek;
pos = (474,10);
},
{
name = top;
pos = (560,979);
}
);
shapes = (
{
closed = 1;
nodes = (
(21,20,l),
(384,551,l),
(493,764,l),
(-18,20,l)
);
},
{
closed = 1;
nodes = (
(123,0,l),
(123,25,l),
(-91,25,l),
(-91,0,l)
);
},
{
closed = 1;
nodes = (
(538,0,l),
(538,25,l),
(269,25,l),
(269,0,l)
);
},
{
closed = 1;
nodes = (
(434,247,l),
(434,275,l),
(165,275,l),
(165,247,l)
);
},
{
closed = 1;
nodes = (
(459,10,l),
(514,764,l),
(493,764,l),
(381,547,l),
(385,547,l),
(336,10,l)
);
},
{
closed = 1;
nodes = (
(393,851,l),
(406,879,o),
(433,900,o),
(466,900,cs),
(514,900,o),
(534,852,o),
(596,852,cs),
(652,852,o),
(703,892,o),
(729,979,c),
(695,979,l),
(682,956,o),
(657,928,o),
(621,928,cs),
(574,928,o),
(550,976,o),
(493,976,cs),
(433,976,o),
(381,923,o),
(361,851,c)
);
}
);
};
layerId = "426C3F01-D24D-4224-A47E-56DA036E4742";
shapes = (
{
ref = A;
},
{
pos = (185,52);
ref = tildecomb.case;
}
);
width = 585;
},
{
background = {
anchors = (
{
name = bottom;
pos = (259,0);
},
{
name = ogonek;
pos = (507,10);
},
{
name = top;
pos = (569,984);
}
);
shapes = (
{
closed = 1;
nodes = (
(22,20,l),
(385,551,l),
(502,768,l),
(-20,20,l)
);
},
{
closed = 1;
nodes = (
(124,0,l),
(124,30,l),
(-66,30,l),
(-66,0,l)
);
},
{
closed = 1;
nodes = (
(569,0,l),
(569,30,l),
(250,30,l),
(250,0,l)
);
},
{
closed = 1;
nodes = (
(415,212,l),
(415,245,l),
(146,245,l),
(146,212,l)
);
},
{
closed = 1;
nodes = (
(490,10,l),
(545,768,l),
(494,768,l),
(382,547,l),
(386,547,l),
(337,10,l)
);
},
{
closed = 1;
nodes = (
(393,850,l),
(405,875,o),
(436,895,o),
(472,895,cs),
(525,895,o),
(541,851,o),
(604,851,cs),
(674,851,o),
(721,904,o),
(749,984,c),
(713,984,l),
(703,966,o),
(673,939,o),
(632,939,cs),
(581,939,o),
(565,983,o),
(502,983,cs),
(427,983,o),
(380,919,o),
(359,850,c)
);
}
);
};
layerId = "DD3DBCA6-CF88-4DA3-ACF4-A2FFC969FFEC";
shapes = (
{
ref = A;
},
{
pos = (200,60);
ref = tildecomb.case;
}
);
width = 621;
}
);
unicode = 195;
},
{
glyphname = AE;
kernLeft = AE;
kernRight = E;
lastChange = "2023-02-02 16:56:08 +0000";
layers = (
{
anchors = (
{
name = bottom;
pos = (421,0);
},
{
name = top;
pos = (675,754);
}
);
background = {
shapes = (
{
closed = 1;
nodes = (
(-1,20,l),
(486,734,l),
(455,741,l),
(-40,20,l)
);
},
{
closed = 1;
nodes = (
(101,0,l),
(101,25,l),
(-113,25,l),
(-113,0,l)
);
},
{
closed = 1;
nodes = (
(412,247,l),
(412,275,l),
(143,275,l),
(143,247,l)
);
},
{
closed = 1;
nodes = (
(837,0,l),
(897,232,l),
(867,232,l),
(791,64,o),
(729,25,o),
(640,25,cs),
(247,25,l),
(247,0,l)
);
},
{
closed = 1;
nodes = (
(456,0,l),
(624,754,l),
(507,754,l),
(343,0,l)
);
},
{
closed = 1;
nodes = (
(706,226,l),
(765,534,l),
(740,534,l),
(709,430,o),
(674,403,o),
(594,403,cs),
(491,403,l),
(491,378,l),
(578,378,ls),
(661,378,o),
(676,351,o),
(676,226,c)
);
},
{
closed = 1;
nodes = (
(929,553,l),
(957,754,l),
(338,754,l),
(338,729,l),
(728,729,ls),
(870,729,o),
(899,692,o),
(899,553,c)
);
}
);
};
layerId = "426C3F01-D24D-4224-A47E-56DA036E4742";
shapes = (
{
closed = 1;
nodes = (
(-1,20,l),
(486,734,l),
(455,741,l),
(-40,20,l)
);
},
{
closed = 1;
nodes = (
(101,0,l),
(101,25,l),
(-113,25,l),
(-113,0,l)
);
},
{
closed = 1;
nodes = (
(412,247,l),
(412,275,l),
(143,275,l),
(143,247,l)
);
},
{
closed = 1;
nodes = (
(837,0,l),
(897,232,l),
(867,232,l),
(791,64,o),
(729,25,o),
(640,25,cs),
(247,25,l),
(247,0,l)
);
},
{
closed = 1;
nodes = (
(456,0,l),
(624,754,l),
(507,754,l),
(343,0,l)
);
},
{
closed = 1;
nodes = (
(706,226,l),
(765,534,l),
(740,534,l),
(709,430,o),
(674,403,o),
(594,403,cs),
(491,403,l),
(491,378,l),
(578,378,ls),
(661,378,o),
(676,351,o),
(676,226,c)
);
},
{
closed = 1;
nodes = (
(929,553,l),
(957,754,l),
(338,754,l),
(338,729,l),
(728,729,ls),
(870,729,o),
(899,692,o),
(899,553,c)
);
}
);
width = 946;
},
{
anchors = (
{
name = bottom;
pos = (447,0);
},
{
name = top;
pos = (741,754);
}
);
background = {
shapes = (
{
closed = 1;
nodes = (
(-14,20,l),
(542,734,l),
(505,741,l),
(-56,20,l)
);
},
{
closed = 1;
nodes = (
(88,0,l),
(88,30,l),
(-102,30,l),
(-102,0,l)
);
},
{
closed = 1;
nodes = (
(439,212,l),
(439,245,l),
(130,245,l),
(130,212,l)
);
},
{
closed = 1;
nodes = (
(905,0,l),
(965,232,l),
(925,232,l),
(849,68,o),
(787,30,o),
(698,30,cs),
(295,30,l),
(295,0,l)
);
},
{
closed = 1;
nodes = (
(534,0,l),
(702,754,l),
(551,754,l),
(387,0,l)
);
},
{
closed = 1;
nodes = (
(786,227,l),
(851,535,l),
(816,535,l),
(786,441,o),
(737,404,o),
(670,404,cs),
(567,404,l),
(567,374,l),
(654,374,ls),
(714,374,o),
(752,348,o),
(752,227,c)
);
},
{
closed = 1;
nodes = (
(997,548,l),
(1033,754,l),
(396,754,l),
(396,724,l),
(796,724,ls),
(920,724,o),
(957,687,o),
(957,548,c)
);
}
);
};
layerId = "DD3DBCA6-CF88-4DA3-ACF4-A2FFC969FFEC";
shapes = (
{
closed = 1;
nodes = (
(-14,20,l),
(542,734,l),
(505,741,l),
(-56,20,l)
);
},
{
closed = 1;
nodes = (
(88,0,l),
(88,30,l),
(-102,30,l),
(-102,0,l)
);
},
{
closed = 1;
nodes = (
(439,212,l),
(439,245,l),
(130,245,l),
(130,212,l)
);
},
{
closed = 1;
nodes = (
(905,0,l),
(965,232,l),
(925,232,l),
(849,68,o),
(787,30,o),
(698,30,cs),
(295,30,l),
(295,0,l)
);
},
{
closed = 1;
nodes = (
(534,0,l),
(702,754,l),
(551,754,l),
(387,0,l)
);
},
{
closed = 1;
nodes = (
(786,227,l),
(851,535,l),
(816,535,l),
(786,441,o),
(737,404,o),
(670,404,cs),
(567,404,l),
(567,374,l),
(654,374,ls),
(714,374,o),
(752,348,o),
(752,227,c)
);
},
{
closed = 1;
nodes = (
(997,548,l),
(1033,754,l),
(396,754,l),
(396,724,l),
(796,724,ls),
(920,724,o),
(957,687,o),
(957,548,c)
);
}
);
width = 998;
}
);
unicode = 198;
},
{
glyphname = AEacute;
kernLeft = AE;
kernRight = E;
lastChange = "2023-02-02 16:56:08 +0000";
layers = (
{
background = {
shapes = (
{
closed = 1;
nodes = (
(-1,20,l),
(486,734,l),
(455,741,l),
(-40,20,l)
);
},
{
closed = 1;
nodes = (
(101,0,l),
(101,25,l),
(-113,25,l),
(-113,0,l)
);
},
{
closed = 1;
nodes = (
(412,247,l),
(412,275,l),
(143,275,l),
(143,247,l)
);
},
{
closed = 1;
nodes = (
(837,0,l),
(897,232,l),
(867,232,l),
(791,64,o),
(729,25,o),
(640,25,cs),
(247,25,l),
(247,0,l)
);
},
{
closed = 1;
nodes = (
(456,0,l),
(624,754,l),
(507,754,l),
(343,0,l)
);
},
{
closed = 1;
nodes = (
(706,226,l),
(765,534,l),
(740,534,l),
(709,430,o),
(674,403,o),
(594,403,cs),
(491,403,l),
(491,378,l),
(578,378,ls),
(661,378,o),
(676,351,o),
(676,226,c)
);
},
{
closed = 1;
nodes = (
(929,553,l),
(957,754,l),
(338,754,l),
(338,729,l),
(728,729,ls),
(870,729,o),
(899,692,o),
(899,553,c)
);
},
{
closed = 1;
nodes = (
(595,784,l),
(769,823,ls),
(817,834,o),
(838,856,o),
(838,885,cs),
(838,910,o),
(823,924,o),
(800,924,cs),
(780,924,o),
(758,914,o),
(715,888,cs),
(543,784,l)
);
}
);
};
layerId = "426C3F01-D24D-4224-A47E-56DA036E4742";
shapes = (
{
ref = AE;
},
{
pos = (376,63);
ref = acutecomb.case;
}
);
width = 946;
},
{
background = {
shapes = (
{
closed = 1;
nodes = (
(-14,20,l),
(542,734,l),
(505,741,l),
(-56,20,l)
);
},
{
closed = 1;
nodes = (
(88,0,l),
(88,30,l),
(-102,30,l),
(-102,0,l)
);
},
{
closed = 1;
nodes = (
(439,212,l),
(439,245,l),
(130,245,l),
(130,212,l)
);
},
{
closed = 1;
nodes = (
(905,0,l),
(965,232,l),
(925,232,l),
(849,68,o),
(787,30,o),
(698,30,cs),
(295,30,l),
(295,0,l)
);
},
{
closed = 1;
nodes = (
(534,0,l),
(702,754,l),
(551,754,l),
(387,0,l)
);
},
{
closed = 1;
nodes = (
(786,227,l),
(851,535,l),
(816,535,l),
(786,441,o),
(737,404,o),
(670,404,cs),
(567,404,l),
(567,374,l),
(654,374,ls),
(714,374,o),
(752,348,o),
(752,227,c)
);
},
{
closed = 1;
nodes = (
(997,548,l),
(1033,754,l),
(396,754,l),
(396,724,l),
(796,724,ls),
(920,724,o),
(957,687,o),
(957,548,c)
);
},
{
closed = 1;
nodes = (
(670,783,l),
(868,822,ls),
(905,829,o),
(921,853,o),
(921,875,cs),
(921,900,o),
(900,924,o),
(863,924,cs),
(835,924,o),
(815,915,o),
(777,892,cs),
(601,783,l)
);
}
);
};
layerId = "DD3DBCA6-CF88-4DA3-ACF4-A2FFC969FFEC";
shapes = (
{
alignment = -1;
ref = AE;
},
{
alignment = -1;
pos = (469,52);
ref = acutecomb.case;
}
);
width = 998;
}
);
unicode = 508;
},
{
glyphname = B;
lastChange = "2023-02-02 16:56:08 +0000";
layers = (
{
anchors = (
{
name = bottom;
pos = (285,0);
},
{
name = top;
pos = (459,754);
}
);
background = {
anchors = (
{
name = bottom;
pos = (285,0);
},
{
name = top;
pos = (459,754);
}
);
shapes = (
{
closed = 1;
nodes = (
(374,0,ls),
(540,0,o),
(632,85,o),
(632,198,cs),
(632,285,o),
(565,373,o),
(454,391,c),
(425,398,o),
(379,404,o),
(363,404,cs),
(231,404,l),
(231,378,l),
(378,378,l),
(458,378,o),
(503,337,o),
(503,236,cs),
(503,107,o),
(430,25,o),
(346,25,cs),
(-7,25,l),
(-7,0,l)
);
},
{
closed = 1;
nodes = (
(192,0,l),
(360,754,l),
(243,754,l),
(79,0,l)
);
},
{
closed = 1;
nodes = (
(343,378,ls),
(546,378,o),
(680,464,o),
(680,586,cs),
(680,684,o),
(593,754,o),
(423,754,cs),
(144,754,l),
(144,729,l),
(423,729,ls),
(526,729,o),
(553,690,o),
(553,609,cs),
(553,490,o),
(494,403,o),
(399,403,cs),
(201,403,l),
(201,378,l)
);
}
);
};
layerId = "426C3F01-D24D-4224-A47E-56DA036E4742";
shapes = (
{
closed = 1;
nodes = (
(374,0,ls),
(540,0,o),
(632,85,o),
(632,198,cs),
(632,285,o),
(565,373,o),
(454,391,c),
(425,398,o),
(379,404,o),
(363,404,cs),
(231,404,l),
(231,378,l),
(378,378,l),
(458,378,o),
(503,337,o),
(503,236,cs),
(503,107,o),
(430,25,o),
(346,25,cs),
(-7,25,l),
(-7,0,l)
);
},
{
closed = 1;
nodes = (
(192,0,l),
(360,754,l),
(243,754,l),
(79,0,l)
);
},
{
closed = 1;
nodes = (
(343,378,ls),
(546,378,o),
(680,464,o),
(680,586,cs),
(680,684,o),
(593,754,o),
(423,754,cs),
(144,754,l),
(144,729,l),
(423,729,ls),
(526,729,o),
(553,690,o),
(553,609,cs),
(553,490,o),
(494,403,o),
(399,403,cs),
(201,403,l),
(201,378,l)
);
}
);
width = 674;
},
{
anchors = (
{
name = bottom;
pos = (295,0);
},
{
name = top;
pos = (469,754);
}
);
background = {
anchors = (
{
name = bottom;
pos = (295,0);
},
{
name = top;
pos = (469,754);
}
);
shapes = (
{
closed = 1;
nodes = (
(370,0,ls),
(519,0,o),
(644,82,o),
(644,224,cs),
(644,310,o),
(598,363,o),
(485,389,c),
(447,401,o),
(423,409,o),
(391,409,cs),
(198,409,l),
(198,379,l),
(379,379,ls),
(453,379,o),
(471,331,o),
(471,256,cs),
(471,104,o),
(398,31,o),
(291,31,cs),
(-28,31,l),
(-28,0,l)
);
},
{
closed = 1;
nodes = (
(198,0,l),
(366,754,l),
(215,754,l),
(51,0,l)
);
},
{
closed = 1;
nodes = (
(331,379,ls),
(558,379,o),
(684,455,o),
(684,584,cs),
(684,684,o),
(607,754,o),
(431,754,cs),
(110,754,l),
(110,724,l),
(419,724,ls),
(498,724,o),
(518,689,o),
(518,615,cs),
(518,489,o),
(461,409,o),
(359,409,cs),
(167,409,l),
(167,379,l)
);
}
);
};
layerId = "DD3DBCA6-CF88-4DA3-ACF4-A2FFC969FFEC";
shapes = (
{
closed = 1;
nodes = (
(370,0,ls),
(519,0,o),
(644,82,o),
(644,224,cs),
(644,310,o),
(598,363,o),
(485,389,c),
(447,401,o),
(423,409,o),
(391,409,cs),
(198,409,l),
(198,379,l),
(379,379,ls),
(453,379,o),
(471,331,o),
(471,256,cs),
(471,104,o),
(398,31,o),
(291,31,cs),
(-28,31,l),
(-28,0,l)
);
},
{
closed = 1;
nodes = (
(198,0,l),
(366,754,l),
(215,754,l),
(51,0,l)
);
},
{
closed = 1;
nodes = (
(331,379,ls),
(558,379,o),
(684,455,o),
(684,584,cs),
(684,684,o),
(607,754,o),
(431,754,cs),
(110,754,l),
(110,724,l),
(419,724,ls),
(498,724,o),
(518,689,o),
(518,615,cs),
(518,489,o),
(461,409,o),
(359,409,cs),
(167,409,l),
(167,379,l)
);
}
);
width = 694;
}
);
unicode = 66;
},
{
glyphname = C;
kernLeft = C;
kernRight = C;
lastChange = "2023-02-02 16:56:08 +0000";
layers = (
{
anchors = (
{
name = bottom;
pos = (359,0);
},
{
name = top;
pos = (499,754);
}
);
background = {
anchors = (
{
name = bottom;
pos = (295,0);
},
{
name = top;
pos = (469,754);
}
);
shapes = (
{
closed = 1;
nodes = (
(420,-13,o),
(484,12,o),
(539,49,c),
(569,0,l),
(594,0,l),
(647,206,l),
(622,206,l),
(532,56,o),
(435,19,o),
(355,19,cs),
(266,19,o),
(217,64,o),
(217,207,cs),
(217,389,o),
(297,736,o),
(489,736,cs),
(578,736,o),
(648,662,o),
(648,541,c),
(673,541,l),
(720,754,l),
(695,754,l),
(646,702,l),
(601,746,o),
(557,765,o),
(496,765,cs),
(275,765,o),
(79,515,o),
(79,288,cs),
(79,127,o),
(177,-13,o),
(348,-13,cs)
);
}
);
};
layerId = "426C3F01-D24D-4224-A47E-56DA036E4742";
shapes = (
{
closed = 1;
nodes = (
(420,-13,o),
(484,12,o),
(539,49,c),
(569,0,l),
(594,0,l),
(647,206,l),
(622,206,l),
(532,56,o),
(435,19,o),
(355,19,cs),
(266,19,o),
(217,64,o),
(217,207,cs),
(217,389,o),
(297,736,o),
(489,736,cs),
(578,736,o),
(648,662,o),
(648,541,c),
(673,541,l),
(720,754,l),
(695,754,l),
(646,702,l),
(601,746,o),
(557,765,o),
(496,765,cs),
(275,765,o),
(79,515,o),
(79,288,cs),
(79,127,o),
(177,-13,o),
(348,-13,cs)
);
}
);
width = 693;
},
{
anchors = (
{
name = bottom;
pos = (346,0);
},
{
name = top;
pos = (513,754);
}
);
background = {
anchors = (
{
name = bottom;
pos = (289,0);
},
{
name = top;
pos = (463,754);
}
);
shapes = (
{
closed = 1;
nodes = (
(414,-13,o),
(474,8,o),
(529,34,c),
(559,0,l),
(589,0,l),
(642,206,l),
(612,206,l),
(523,59,o),
(424,24,o),
(357,24,cs),
(282,24,o),
(241,68,o),
(241,200,cs),
(241,390,o),
(327,731,o),
(495,731,cs),
(576,731,o),
(643,652,o),
(643,521,c),
(673,521,l),
(720,754,l),
(685,754,l),
(641,707,l),
(599,748,o),
(557,765,o),
(501,765,cs),
(289,765,o),
(64,517,o),
(64,283,cs),
(64,128,o),
(162,-13,o),
(344,-13,cs)
);
}
);
};
layerId = "DD3DBCA6-CF88-4DA3-ACF4-A2FFC969FFEC";
shapes = (
{
closed = 1;
nodes = (
(414,-13,o),
(474,8,o),
(529,34,c),
(559,0,l),
(589,0,l),
(642,206,l),
(612,206,l),
(523,59,o),
(424,24,o),
(357,24,cs),
(282,24,o),
(241,68,o),
(241,200,cs),
(241,390,o),
(327,731,o),
(495,731,cs),
(576,731,o),
(643,652,o),
(643,521,c),
(673,521,l),
(720,754,l),
(685,754,l),
(641,707,l),
(599,748,o),
(557,765,o),
(501,765,cs),
(289,765,o),
(64,517,o),
(64,283,cs),
(64,128,o),
(162,-13,o),
(344,-13,cs)
);
}
);
width = 681;
}
);
unicode = 67;
},
{
glyphname = Cacute;
kernLeft = C;
kernRight = C;
lastChange = "2023-02-02 16:56:08 +0000";
layers = (
{
background = {
anchors = (
{
name = bottom;
pos = (295,0);
},
{
name = top;
pos = (469,754);
}
);
shapes = (
{
closed = 1;
nodes = (
(420,-13,o),
(484,12,o),
(539,49,c),
(569,0,l),
(594,0,l),
(647,206,l),
(622,206,l),
(532,56,o),
(435,19,o),
(355,19,cs),
(266,19,o),
(217,64,o),
(217,207,cs),
(217,389,o),
(297,736,o),
(489,736,cs),
(578,736,o),
(648,662,o),
(648,541,c),
(673,541,l),
(720,754,l),
(695,754,l),
(646,702,l),
(601,746,o),
(557,765,o),
(496,765,cs),
(275,765,o),
(79,515,o),
(79,288,cs),
(79,127,o),
(177,-13,o),
(348,-13,cs)
);
},
{
closed = 1;
nodes = (
(547,784,l),
(721,823,ls),
(769,834,o),
(790,856,o),
(790,885,cs),
(790,910,o),
(775,924,o),
(752,924,cs),
(732,924,o),
(710,914,o),
(667,888,cs),
(495,784,l)
);
}
);
};
layerId = "426C3F01-D24D-4224-A47E-56DA036E4742";
shapes = (
{
ref = C;
},
{
pos = (200,63);
ref = acutecomb.case;
}
);
width = 693;
},
{
background = {
anchors = (
{
name = bottom;
pos = (289,0);
},
{
name = top;
pos = (463,754);
}
);
shapes = (
{
closed = 1;
nodes = (
(414,-13,o),
(474,8,o),
(529,34,c),
(559,0,l),
(589,0,l),
(642,206,l),
(612,206,l),
(523,59,o),
(424,24,o),
(357,24,cs),
(282,24,o),
(241,68,o),
(241,200,cs),
(241,390,o),
(327,731,o),
(495,731,cs),
(576,731,o),
(643,652,o),
(643,521,c),
(673,521,l),
(720,754,l),
(685,754,l),
(641,707,l),
(599,748,o),
(557,765,o),
(501,765,cs),
(289,765,o),
(64,517,o),
(64,283,cs),
(64,128,o),
(162,-13,o),
(344,-13,cs)
);
},
{
closed = 1;
nodes = (
(537,783,l),
(735,822,ls),
(772,829,o),
(788,853,o),
(788,875,cs),
(788,900,o),
(767,924,o),
(730,924,cs),
(702,924,o),
(682,915,o),
(644,892,cs),
(468,783,l)
);
}
);
};
layerId = "DD3DBCA6-CF88-4DA3-ACF4-A2FFC969FFEC";
shapes = (
{
ref = C;
},
{
pos = (241,82);
ref = acutecomb.case;
}
);
width = 681;
}
);
unicode = 262;
},
{
glyphname = Ccaron;
kernLeft = C;
kernRight = C;
lastChange = "2023-02-02 16:56:08 +0000";
layers = (
{
background = {
anchors = (
{
name = bottom;
pos = (295,0);
},
{
name = top;
pos = (469,754);
}
);
shapes = (
{
closed = 1;
nodes = (
(420,-13,o),
(484,12,o),
(539,49,c),
(569,0,l),
(594,0,l),
(647,206,l),
(622,206,l),
(532,56,o),
(435,19,o),
(355,19,cs),
(266,19,o),
(217,64,o),
(217,207,cs),
(217,389,o),
(297,736,o),
(489,736,cs),
(578,736,o),
(648,662,o),
(648,541,c),
(673,541,l),
(720,754,l),
(695,754,l),
(646,702,l),
(601,746,o),
(557,765,o),
(496,765,cs),
(275,765,o),
(79,515,o),
(79,288,cs),
(79,127,o),
(177,-13,o),
(348,-13,cs)
);
},
{
closed = 1;
nodes = (
(540,784,l),
(700,924,l),
(657,924,l),
(525,863,l),
(419,924,l),
(376,924,l),
(478,784,l)
);
}
);
};
layerId = "426C3F01-D24D-4224-A47E-56DA036E4742";
shapes = (
{
ref = C;
},
{
pos = (193,10);
ref = caroncomb.case;
}
);
width = 693;
},
{
background = {
anchors = (
{
name = bottom;
pos = (289,0);
},
{
name = top;
pos = (463,754);
}
);
shapes = (
{
closed = 1;
nodes = (
(414,-13,o),
(474,8,o),
(529,34,c),
(559,0,l),
(589,0,l),
(642,206,l),
(612,206,l),
(523,59,o),
(424,24,o),
(357,24,cs),
(282,24,o),
(241,68,o),
(241,200,cs),
(241,390,o),
(327,731,o),
(495,731,cs),
(576,731,o),
(643,652,o),
(643,521,c),
(673,521,l),
(720,754,l),
(685,754,l),
(641,707,l),
(599,748,o),
(557,765,o),
(501,765,cs),
(289,765,o),
(64,517,o),
(64,283,cs),
(64,128,o),
(162,-13,o),
(344,-13,cs)
);
},
{
closed = 1;
nodes = (
(553,791,l),
(731,923,l),
(685,923,l),
(543,878,l),
(421,923,l),
(374,923,l),
(497,791,l)
);
}
);
};
layerId = "DD3DBCA6-CF88-4DA3-ACF4-A2FFC969FFEC";
shapes = (
{
ref = C;
},
{
pos = (201,16);
ref = caroncomb.case;
}
);
width = 681;
}
);
unicode = 268;
},
{
glyphname = Ccedilla;
kernLeft = C;
kernRight = C;
lastChange = "2023-02-02 16:56:08 +0000";
layers = (
{
background = {
anchors = (
{
name = bottom;
pos = (295,0);
},
{
name = top;
pos = (469,754);
}
);
shapes = (
{
closed = 1;
nodes = (
(420,-13,o),
(484,12,o),
(539,49,c),
(569,0,l),
(594,0,l),
(647,206,l),
(622,206,l),
(532,56,o),
(435,19,o),
(355,19,cs),
(266,19,o),
(217,64,o),
(217,207,cs),
(217,389,o),
(297,736,o),
(489,736,cs),
(578,736,o),
(648,662,o),
(648,541,c),
(673,541,l),
(720,754,l),
(695,754,l),
(646,702,l),
(601,746,o),
(557,765,o),
(496,765,cs),
(275,765,o),
(79,515,o),
(79,288,cs),
(79,127,o),
(177,-13,o),
(348,-13,cs)
);
},
{
closed = 1;
nodes = (
(350,-230,o),
(438,-200,o),
(438,-134,cs),
(438,-95,o),
(408,-70,o),
(356,-70,cs),
(337,-70,l),
(380,6,l),
(350,6,l),
(291,-94,l),
(335,-95,o),
(354,-113,o),
(354,-142,cs),
(354,-181,o),
(318,-199,o),
(280,-199,cs),
(260,-199,o),
(235,-194,o),
(227,-188,c),
(210,-213,l),
(220,-220,o),
(246,-230,o),
(284,-230,cs)
);
}
);
};
layerId = "426C3F01-D24D-4224-A47E-56DA036E4742";
shapes = (
{
ref = C;
},
{
pos = (277,0);
ref = cedillacomb;
}
);
width = 693;
},
{
background = {
anchors = (
{
name = bottom;
pos = (289,0);
},
{
name = top;
pos = (463,754);
}
);
shapes = (
{
closed = 1;
nodes = (
(414,-13,o),
(474,8,o),
(529,34,c),
(559,0,l),
(589,0,l),
(642,206,l),
(612,206,l),
(523,59,o),
(424,24,o),
(357,24,cs),
(282,24,o),
(241,68,o),
(241,200,cs),
(241,390,o),
(327,731,o),
(495,731,cs),
(576,731,o),
(643,652,o),
(643,521,c),
(673,521,l),
(720,754,l),
(685,754,l),
(641,707,l),
(599,748,o),
(557,765,o),
(501,765,cs),
(289,765,o),
(64,517,o),
(64,283,cs),
(64,128,o),
(162,-13,o),
(344,-13,cs)
);
},
{
closed = 1;
nodes = (
(341,-235,o),
(434,-202,o),
(434,-131,cs),
(434,-91,o),
(405,-66,o),
(352,-66,cs),
(333,-66,l),
(376,10,l),
(329,10,l),
(263,-100,l),
(318,-101,o),
(333,-117,o),
(333,-140,cs),
(333,-172,o),
(305,-190,o),
(261,-190,cs),
(238,-190,o),
(213,-185,o),
(206,-179,c),
(189,-218,l),
(199,-225,o),
(224,-235,o),
(266,-235,cs)
);
}
);
};
layerId = "DD3DBCA6-CF88-4DA3-ACF4-A2FFC969FFEC";
shapes = (
{
ref = C;
},
{
pos = (275,0);
ref = cedillacomb;
}
);
width = 681;
}
);
unicode = 199;
},
{
glyphname = Ccircumflex;
kernLeft = C;
kernRight = C;
lastChange = "2023-02-02 16:56:08 +0000";
layers = (
{
background = {
anchors = (
{
name = bottom;
pos = (295,0);
},
{
name = top;
pos = (469,754);
}
);
shapes = (
{
closed = 1;
nodes = (
(420,-13,o),
(484,12,o),
(539,49,c),
(569,0,l),
(594,0,l),
(647,206,l),
(622,206,l),
(532,56,o),
(435,19,o),
(355,19,cs),
(266,19,o),
(217,64,o),
(217,207,cs),
(217,389,o),
(297,736,o),
(489,736,cs),
(578,736,o),
(648,662,o),
(648,541,c),
(673,541,l),
(720,754,l),
(695,754,l),
(646,702,l),
(601,746,o),
(557,765,o),
(496,765,cs),
(275,765,o),
(79,515,o),
(79,288,cs),
(79,127,o),
(177,-13,o),
(348,-13,cs)
);
},
{
closed = 1;
nodes = (
(385,784,l),
(517,845,l),
(623,784,l),
(666,784,l),
(564,924,l),
(502,924,l),
(343,784,l)
);
}
);
};
layerId = "426C3F01-D24D-4224-A47E-56DA036E4742";
shapes = (
{
ref = C;
},
{
pos = (212,20);
ref = circumflexcomb.case;
}
);
width = 693;
},
{
background = {
anchors = (
{
name = bottom;
pos = (289,0);
},
{
name = top;
pos = (463,754);
}
);
shapes = (
{
closed = 1;
nodes = (
(414,-13,o),
(474,8,o),
(529,34,c),
(559,0,l),
(589,0,l),
(642,206,l),
(612,206,l),
(523,59,o),
(424,24,o),
(357,24,cs),
(282,24,o),
(241,68,o),
(241,200,cs),
(241,390,o),
(327,731,o),
(495,731,cs),
(576,731,o),
(643,652,o),
(643,521,c),
(673,521,l),
(720,754,l),
(685,754,l),
(641,707,l),
(599,748,o),
(557,765,o),
(501,765,cs),
(289,765,o),
(64,517,o),
(64,283,cs),
(64,128,o),
(162,-13,o),
(344,-13,cs)
);
},
{
closed = 1;
nodes = (
(383,791,l),
(525,836,l),
(647,791,l),
(694,791,l),
(571,923,l),
(515,923,l),
(337,791,l)
);
}
);
};
layerId = "DD3DBCA6-CF88-4DA3-ACF4-A2FFC969FFEC";
shapes = (
{
ref = C;
},
{
pos = (206,12);
ref = circumflexcomb.case;
}
);
width = 681;
}
);
unicode = 264;
},
{
glyphname = Cdotaccent;
kernLeft = C;
kernRight = C;
lastChange = "2023-02-02 16:56:08 +0000";
layers = (
{
background = {
anchors = (
{
name = bottom;
pos = (295,0);
},
{
name = top;
pos = (469,754);
}
);
shapes = (
{
closed = 1;
nodes = (
(420,-13,o),
(484,12,o),
(539,49,c),
(569,0,l),
(594,0,l),
(647,206,l),
(622,206,l),
(532,56,o),
(435,19,o),
(355,19,cs),
(266,19,o),
(217,64,o),
(217,207,cs),
(217,389,o),
(297,736,o),
(489,736,cs),
(578,736,o),
(648,662,o),
(648,541,c),
(673,541,l),
(720,754,l),
(695,754,l),
(646,702,l),
(601,746,o),
(557,765,o),
(496,765,cs),
(275,765,o),
(79,515,o),
(79,288,cs),
(79,127,o),
(177,-13,o),
(348,-13,cs)
);
},
{
closed = 1;
nodes = (
(582,789,o),
(612,818,o),
(612,856,cs),
(612,894,o),
(582,924,o),
(544,924,cs),
(506,924,o),
(477,894,o),
(477,856,cs),
(477,818,o),
(506,789,o),
(544,789,cs)
);
}
);
};
layerId = "426C3F01-D24D-4224-A47E-56DA036E4742";
shapes = (
{
ref = C;
},
{
pos = (284,0);
ref = dotaccentcomb.case;
}
);
width = 693;
},
{
background = {
anchors = (
{
name = bottom;
pos = (289,0);
},
{
name = top;
pos = (463,754);
}
);
shapes = (
{
closed = 1;
nodes = (
(414,-13,o),
(474,8,o),
(529,34,c),
(559,0,l),
(589,0,l),
(642,206,l),
(612,206,l),
(523,59,o),
(424,24,o),
(357,24,cs),
(282,24,o),
(241,68,o),
(241,200,cs),
(241,390,o),
(327,731,o),
(495,731,cs),
(576,731,o),
(643,652,o),
(643,521,c),
(673,521,l),
(720,754,l),
(685,754,l),
(641,707,l),
(599,748,o),
(557,765,o),
(501,765,cs),
(289,765,o),
(64,517,o),
(64,283,cs),
(64,128,o),
(162,-13,o),
(344,-13,cs)
);
},
{
closed = 1;
nodes = (
(556,793,o),
(587,823,o),
(587,858,cs),
(587,893,o),
(556,924,o),
(521,924,cs),
(486,924,o),
(456,893,o),
(456,858,cs),
(456,823,o),
(486,793,o),
(521,793,cs)
);
}
);
};
layerId = "DD3DBCA6-CF88-4DA3-ACF4-A2FFC969FFEC";
shapes = (
{
ref = C;
},
{
pos = (274,15);
ref = dotaccentcomb.case;
}
);
width = 681;
}
);
unicode = 266;
},
{
glyphname = D;
kernLeft = D;
kernRight = D;
lastChange = "2023-02-02 16:56:08 +0000";
layers = (
{
anchors = (
{
name = bottom;
pos = (330,0);
},
{
name = center;
pos = (199,385);
},
{
name = top;
pos = (504,754);
}
);
background = {
anchors = (
{
name = bottom;
pos = (330,0);
},
{
name = center;
pos = (417,377);
},
{
name = top;
pos = (504,754);
}
);
shapes = (
{
closed = 1;
nodes = (
(312,0,ls),
(564,0,o),
(745,189,o),
(745,438,cs),
(745,634,o),
(623,754,o),
(416,754,cs),
(137,754,l),
(137,729,l),
(416,729,ls),
(553,729,o),
(617,667,o),
(617,498,cs),
(617,223,o),
(485,27,o),
(300,27,cs),
(-14,27,l),
(-14,0,l)
);
},
{
closed = 1;
nodes = (
(185,0,l),
(353,754,l),
(236,754,l),
(72,0,l)
);
}
);
};
layerId = "426C3F01-D24D-4224-A47E-56DA036E4742";
shapes = (
{
closed = 1;
nodes = (
(312,0,ls),
(564,0,o),
(745,189,o),
(745,438,cs),
(745,634,o),
(623,754,o),
(416,754,cs),
(137,754,l),
(137,729,l),
(416,729,ls),
(553,729,o),
(617,667,o),
(617,498,cs),
(617,223,o),
(485,27,o),
(300,27,cs),
(-14,27,l),
(-14,0,l)
);
},
{
closed = 1;
nodes = (
(185,0,l),
(353,754,l),
(236,754,l),
(72,0,l)
);
}
);
width = 764;
},
{
anchors = (
{
name = bottom;
pos = (333,0);
},
{
name = center;
pos = (221,382);
},
{
name = top;
pos = (507,754);
}
);
background = {
anchors = (
{
name = bottom;
pos = (333,0);
},
{
name = center;
pos = (420,377);
},
{
name = top;
pos = (507,754);
}
);
shapes = (
{
closed = 1;
nodes = (
(325,0,ls),
(571,0,o),
(748,209,o),
(748,438,cs),
(748,634,o),
(643,754,o),
(436,754,cs),
(100,754,l),
(100,724,l),
(429,724,ls),
(574,724,o),
(590,631,o),
(590,518,cs),
(590,215,o),
(474,32,o),
(296,32,cs),
(-41,32,l),
(-41,0,l)
);
},
{
closed = 1;
nodes = (
(195,0,l),
(363,754,l),
(212,754,l),
(48,0,l)
);
}
);
};
layerId = "DD3DBCA6-CF88-4DA3-ACF4-A2FFC969FFEC";
shapes = (
{
closed = 1;
nodes = (
(325,0,ls),
(571,0,o),
(748,209,o),
(748,438,cs),
(748,634,o),
(643,754,o),
(436,754,cs),
(100,754,l),
(100,724,l),
(429,724,ls),
(574,724,o),
(590,631,o),
(590,518,cs),
(590,215,o),
(474,32,o),
(296,32,cs),
(-41,32,l),
(-41,0,l)
);
},
{
closed = 1;
nodes = (
(195,0,l),
(363,754,l),
(212,754,l),
(48,0,l)
);
}
);
width = 770;
}
);
unicode = 68;
},
{
glyphname = DZ;
kernLeft = D;
kernRight = Z;
lastChange = "2023-02-02 16:56:08 +0000";
layers = (
{
background = {
anchors = (
{
name = bottom;
pos = (1037,0);
},
{
name = center;
pos = (417,377);
},
{
name = top;
pos = (1211,754);
}
);
shapes = (
{
closed = 1;
nodes = (
(312,0,ls),
(564,0,o),
(745,189,o),
(745,438,cs),
(745,634,o),
(623,754,o),
(416,754,cs),
(137,754,l),
(137,729,l),
(416,729,ls),
(553,729,o),
(617,667,o),
(617,498,cs),
(617,223,o),
(485,27,o),
(300,27,cs),
(-14,27,l),
(-14,0,l)
);
},
{
closed = 1;
nodes = (
(185,0,l),
(353,754,l),
(236,754,l),
(72,0,l)
);
},
{
closed = 1;
nodes = (
(913,25,l),
(913,29,l),
(1466,729,l),
(1320,729,l),
(1320,725,l),
(773,25,l)
);
},
{
closed = 1;
nodes = (
(1314,0,l),
(1374,232,l),
(1344,232,l),
(1268,64,o),
(1206,25,o),
(1117,25,cs),
(773,25,l),
(773,0,l)
);
},
{
closed = 1;
nodes = (
(944,542,l),
(1020,694,o),
(1082,729,o),
(1171,729,cs),
(1466,729,l),
(1466,754,l),
(974,754,l),
(914,542,l)
);
}
);
};
layerId = "426C3F01-D24D-4224-A47E-56DA036E4742";
shapes = (
{
ref = D;
},
{
pos = (764,0);
ref = Z;
}
);
width = 1413;
},
{
background = {
anchors = (
{
name = bottom;
pos = (1053,0);
},
{
name = center;
pos = (420,377);
},
{
name = top;
pos = (1227,754);
}
);
shapes = (
{
closed = 1;
nodes = (
(325,0,ls),
(571,0,o),
(748,209,o),
(748,438,cs),
(748,634,o),
(643,754,o),
(436,754,cs),
(100,754,l),
(100,724,l),
(429,724,ls),
(574,724,o),
(590,631,o),
(590,518,cs),
(590,215,o),
(474,32,o),
(296,32,cs),
(-41,32,l),
(-41,0,l)
);
},
{
closed = 1;
nodes = (
(195,0,l),
(363,754,l),
(212,754,l),
(48,0,l)
);
},
{
closed = 1;
nodes = (
(960,30,l),
(960,35,l),
(1490,724,l),
(1313,724,l),
(1313,720,l),
(769,30,l)
);
},
{
closed = 1;
nodes = (
(1326,0,l),
(1386,232,l),
(1346,232,l),
(1270,68,o),
(1208,30,o),
(1119,30,cs),
(769,30,l),
(769,0,l)
);
},
{
closed = 1;
nodes = (
(951,533,l),
(1005,664,o),
(1088,724,o),
(1162,724,cs),
(1490,724,l),
(1490,754,l),
(978,754,l),
(916,533,l)
);
}
);
};
layerId = "DD3DBCA6-CF88-4DA3-ACF4-A2FFC969FFEC";
shapes = (
{
ref = D;
},
{
pos = (770,0);
ref = Z;
}
);
width = 1439;
}
);
unicode = 497;
},
{
glyphname = DZcaron;
kernLeft = D;
kernRight = Z;
lastChange = "2023-02-02 16:56:08 +0000";
layers = (
{
background = {
anchors = (
{
name = bottom;
pos = (1037,0);
},
{
name = center;
pos = (417,377);
},
{
name = top;
pos = (1211,754);
}
);
shapes = (
{
closed = 1;
nodes = (
(312,0,ls),
(564,0,o),
(745,189,o),
(745,438,cs),
(745,634,o),
(623,754,o),
(416,754,cs),
(137,754,l),
(137,729,l),
(416,729,ls),
(553,729,o),
(617,667,o),
(617,498,cs),
(617,223,o),
(485,27,o),
(300,27,cs),
(-14,27,l),
(-14,0,l)
);
},
{
closed = 1;
nodes = (
(185,0,l),
(353,754,l),
(236,754,l),
(72,0,l)
);
},
{
closed = 1;
nodes = (
(913,25,l),
(913,29,l),
(1466,729,l),
(1320,729,l),
(1320,725,l),
(773,25,l)
);
},
{
closed = 1;
nodes = (
(1314,0,l),
(1374,232,l),
(1344,232,l),
(1268,64,o),
(1206,25,o),
(1117,25,cs),
(773,25,l),
(773,0,l)
);
},
{
closed = 1;
nodes = (
(944,542,l),
(1020,694,o),
(1082,729,o),
(1171,729,cs),
(1466,729,l),
(1466,754,l),
(974,754,l),
(914,542,l)
);
},
{
closed = 1;
nodes = (
(1272,784,l),
(1432,924,l),
(1389,924,l),
(1257,863,l),
(1151,924,l),
(1108,924,l),
(1210,784,l)
);
}
);
};
layerId = "426C3F01-D24D-4224-A47E-56DA036E4742";
shapes = (
{
ref = DZ;
},
{
pos = (905,10);
ref = caroncomb.case;
}
);
width = 1413;
},
{
background = {
anchors = (
{
name = bottom;
pos = (1053,0);
},
{
name = center;
pos = (420,377);
},
{
name = top;
pos = (1227,754);
}
);
shapes = (
{
closed = 1;
nodes = (
(325,0,ls),
(571,0,o),
(748,209,o),
(748,438,cs),
(748,634,o),
(643,754,o),
(436,754,cs),
(100,754,l),
(100,724,l),
(429,724,ls),
(574,724,o),
(590,631,o),
(590,518,cs),
(590,215,o),
(474,32,o),
(296,32,cs),
(-41,32,l),
(-41,0,l)
);
},
{
closed = 1;
nodes = (
(195,0,l),
(363,754,l),
(212,754,l),
(48,0,l)
);
},
{
closed = 1;
nodes = (
(960,30,l),
(960,35,l),
(1490,724,l),
(1313,724,l),
(1313,720,l),
(769,30,l)
);
},
{
closed = 1;
nodes = (
(1326,0,l),
(1386,232,l),
(1346,232,l),
(1270,68,o),
(1208,30,o),
(1119,30,cs),
(769,30,l),
(769,0,l)
);
},
{
closed = 1;
nodes = (
(951,533,l),
(1005,664,o),
(1088,724,o),
(1162,724,cs),
(1490,724,l),
(1490,754,l),
(978,754,l),
(916,533,l)
);
},
{
closed = 1;
nodes = (
(1296,791,l),
(1474,923,l),
(1428,923,l),
(1286,878,l),
(1164,923,l),
(1117,923,l),
(1240,791,l)
);
}
);
};
layerId = "DD3DBCA6-CF88-4DA3-ACF4-A2FFC969FFEC";
shapes = (
{
ref = DZ;
},
{
pos = (915,16);
ref = caroncomb.case;
}
);
width = 1439;
}
);
unicode = 452;
},
{
glyphname = Eth;
kernRight = D;
lastChange = "2023-02-02 16:56:08 +0000";
layers = (
{
background = {
anchors = (
{
name = bottom;
pos = (330,0);
},
{
name = center;
pos = (417,377);
},
{
name = top;
pos = (504,754);
}
);
shapes = (
{
closed = 1;
nodes = (
(381,367,l),
(381,402,l),
(16,402,l),
(16,367,l)
);
},
{
closed = 1;
nodes = (
(312,0,ls),
(564,0,o),
(745,189,o),
(745,438,cs),
(745,634,o),
(623,754,o),
(416,754,cs),
(137,754,l),
(137,729,l),
(416,729,ls),
(553,729,o),
(617,667,o),
(617,498,cs),
(617,223,o),
(485,27,o),
(300,27,cs),
(-14,27,l),
(-14,0,l)
);
},
{
closed = 1;
nodes = (
(185,0,l),
(353,754,l),
(236,754,l),
(72,0,l)
);
}
);
};
layerId = "426C3F01-D24D-4224-A47E-56DA036E4742";
shapes = (
{
ref = D;
},
{
pos = (107,123);
ref = strokeshortcomb;
}
);
width = 764;
},
{
background = {
anchors = (
{
name = bottom;
pos = (333,0);
},
{
name = center;
pos = (420,377);
},
{
name = top;
pos = (507,754);
}
);
shapes = (
{
closed = 1;
nodes = (
(404,362,l),
(404,402,l),
(39,402,l),
(39,362,l)
);
},
{
closed = 1;
nodes = (
(325,0,ls),
(571,0,o),
(748,209,o),
(748,438,cs),
(748,634,o),
(643,754,o),
(436,754,cs),
(100,754,l),
(100,724,l),
(429,724,ls),
(574,724,o),
(590,631,o),
(590,518,cs),
(590,215,o),
(474,32,o),
(296,32,cs),
(-41,32,l),
(-41,0,l)
);
},
{
closed = 1;
nodes = (
(195,0,l),
(363,754,l),
(212,754,l),
(48,0,l)
);
}
);
};
layerId = "DD3DBCA6-CF88-4DA3-ACF4-A2FFC969FFEC";
shapes = (
{
ref = D;
},
{
pos = (-83,161);
ref = strokeshortcomb;
}
);
width = 770;
}
);
unicode = 208;
},
{
glyphname = Dcaron;
kernLeft = D;
kernRight = D;
lastChange = "2023-02-02 16:56:08 +0000";
layers = (
{
background = {
anchors = (
{
name = bottom;
pos = (330,0);
},
{
name = center;
pos = (417,377);
},
{
name = top;
pos = (504,754);
}
);
shapes = (
{
closed = 1;
nodes = (
(312,0,ls),
(564,0,o),
(745,189,o),
(745,438,cs),
(745,634,o),
(623,754,o),
(416,754,cs),
(137,754,l),
(137,729,l),
(416,729,ls),
(553,729,o),
(617,667,o),
(617,498,cs),
(617,223,o),
(485,27,o),
(300,27,cs),
(-14,27,l),
(-14,0,l)
);
},
{
closed = 1;
nodes = (
(185,0,l),
(353,754,l),
(236,754,l),
(72,0,l)
);
},
{
closed = 1;
nodes = (
(496,784,l),
(656,924,l),
(613,924,l),
(481,863,l),
(375,924,l),
(332,924,l),
(434,784,l)
);
}
);
};
layerId = "426C3F01-D24D-4224-A47E-56DA036E4742";
shapes = (
{
ref = D;
},
{
pos = (198,10);
ref = caroncomb.case;
}
);
width = 764;
},
{
background = {
anchors = (
{
name = bottom;
pos = (333,0);
},
{
name = center;
pos = (420,377);
},
{
name = top;
pos = (507,754);
}
);
shapes = (
{
closed = 1;
nodes = (
(325,0,ls),
(571,0,o),
(748,209,o),
(748,438,cs),
(748,634,o),
(643,754,o),
(436,754,cs),
(100,754,l),
(100,724,l),
(429,724,ls),
(574,724,o),
(590,631,o),
(590,518,cs),
(590,215,o),
(474,32,o),
(296,32,cs),
(-41,32,l),
(-41,0,l)
);
},
{
closed = 1;
nodes = (
(195,0,l),
(363,754,l),
(212,754,l),
(48,0,l)
);
},
{
closed = 1;
nodes = (
(522,791,l),
(700,923,l),
(654,923,l),
(512,878,l),
(390,923,l),
(343,923,l),
(466,791,l)
);
}
);
};
layerId = "DD3DBCA6-CF88-4DA3-ACF4-A2FFC969FFEC";
shapes = (
{
ref = D;
},
{
pos = (195,16);
ref = caroncomb.case;
}
);
width = 770;
}
);
unicode = 270;
},
{
glyphname = Dcroat;
kernRight = D;
lastChange = "2023-02-02 16:56:08 +0000";
layers = (
{
background = {
anchors = (
{
name = bottom;
pos = (330,0);
},
{
name = center;
pos = (417,377);
},
{
name = top;
pos = (504,754);
}
);
shapes = (
{
closed = 1;
nodes = (
(381,367,l),
(381,402,l),
(16,402,l),
(16,367,l)
);
},
{
closed = 1;
nodes = (
(312,0,ls),
(564,0,o),
(745,189,o),
(745,438,cs),
(745,634,o),
(623,754,o),
(416,754,cs),
(137,754,l),
(137,729,l),
(416,729,ls),
(553,729,o),
(617,667,o),
(617,498,cs),
(617,223,o),
(485,27,o),
(300,27,cs),
(-14,27,l),
(-14,0,l)
);
},
{
closed = 1;
nodes = (
(185,0,l),
(353,754,l),
(236,754,l),
(72,0,l)
);
}
);
};
layerId = "426C3F01-D24D-4224-A47E-56DA036E4742";
shapes = (
{
ref = Eth;
}
);
width = 764;
},
{
background = {
anchors = (
{
name = bottom;
pos = (333,0);
},
{
name = center;
pos = (420,377);
},
{
name = top;
pos = (507,754);
}
);
shapes = (
{
closed = 1;
nodes = (
(404,362,l),
(404,402,l),
(39,402,l),
(39,362,l)
);
},
{
closed = 1;
nodes = (
(325,0,ls),
(571,0,o),
(748,209,o),
(748,438,cs),
(748,634,o),
(643,754,o),
(436,754,cs),
(100,754,l),
(100,724,l),
(429,724,ls),
(574,724,o),
(590,631,o),
(590,518,cs),
(590,215,o),
(474,32,o),
(296,32,cs),
(-41,32,l),
(-41,0,l)
);
},
{
closed = 1;
nodes = (
(195,0,l),
(363,754,l),
(212,754,l),
(48,0,l)
);
}
);
};
layerId = "DD3DBCA6-CF88-4DA3-ACF4-A2FFC969FFEC";
shapes = (
{
ref = Eth;
}
);
width = 770;
}
);
unicode = 272;
},
{
glyphname = Ddotbelow;
kernLeft = D;
kernRight = D;
lastChange = "2023-02-02 16:56:08 +0000";
layers = (
{
background = {
anchors = (
{
name = bottom;
pos = (330,0);
},
{
name = center;
pos = (417,377);
},
{
name = top;
pos = (504,754);
}
);
shapes = (
{
closed = 1;
nodes = (
(312,0,ls),
(564,0,o),
(745,189,o),
(745,438,cs),
(745,634,o),
(623,754,o),
(416,754,cs),
(137,754,l),
(137,729,l),
(416,729,ls),
(553,729,o),
(617,667,o),
(617,498,cs),
(617,223,o),
(485,27,o),
(300,27,cs),
(-14,27,l),
(-14,0,l)
);
},
{
closed = 1;
nodes = (
(185,0,l),
(353,754,l),
(236,754,l),
(72,0,l)
);
},
{
closed = 1;
nodes = (
(315,-233,o),
(345,-204,o),
(345,-166,cs),
(345,-128,o),
(315,-98,o),
(277,-98,cs),
(239,-98,o),
(210,-128,o),
(210,-166,cs),
(210,-166,ls),
(210,-204,o),
(239,-233,o),
(277,-233,cs)
);
}
);
};
layerId = "426C3F01-D24D-4224-A47E-56DA036E4742";
shapes = (
{
ref = D;
},
{
pos = (89,0);
ref = dotbelowcomb;
}
);
width = 764;
},
{
background = {
anchors = (
{
name = bottom;
pos = (333,0);
},
{
name = center;
pos = (420,377);
},
{
name = top;
pos = (507,754);
}
);
shapes = (
{
closed = 1;
nodes = (
(325,0,ls),
(571,0,o),
(748,209,o),
(748,438,cs),
(748,634,o),
(643,754,o),
(436,754,cs),
(100,754,l),
(100,724,l),
(429,724,ls),
(574,724,o),
(590,631,o),
(590,518,cs),
(590,215,o),
(474,32,o),
(296,32,cs),
(-41,32,l),
(-41,0,l)
);
},
{
closed = 1;
nodes = (
(195,0,l),
(363,754,l),
(212,754,l),
(48,0,l)
);
},
{
closed = 1;
nodes = (
(301,-260,o),
(338,-223,o),
(338,-180,cs),
(338,-136,o),
(301,-99,o),
(257,-99,cs),
(214,-99,o),
(177,-136,o),
(177,-180,cs),
(177,-180,ls),
(177,-223,o),
(214,-260,o),
(257,-260,cs)
);
}
);
};
layerId = "DD3DBCA6-CF88-4DA3-ACF4-A2FFC969FFEC";
shapes = (
{
ref = D;
},
{
pos = (83,0);
ref = dotbelowcomb;
}
);
width = 770;
}
);
unicode = 7692;
},
{
glyphname = Dz;
kernLeft = D;
kernRight = z;
lastChange = "2023-02-02 16:56:08 +0000";
layers = (
{
background = {
anchors = (
{
name = bottom;
pos = (949,0);
},
{
name = center;
pos = (417,377);
},
{
name = top;
pos = (1053,450);
}
);
shapes = (
{
closed = 1;
nodes = (
(312,0,ls),
(564,0,o),
(745,189,o),
(745,438,cs),
(745,634,o),
(623,754,o),
(416,754,cs),
(137,754,l),
(137,729,l),
(416,729,ls),
(553,729,o),
(617,667,o),
(617,498,cs),
(617,223,o),
(485,27,o),
(300,27,cs),
(-14,27,l),
(-14,0,l)
);
},
{
closed = 1;
nodes = (
(185,0,l),
(353,754,l),
(236,754,l),
(72,0,l)
);
},
{
closed = 1;
nodes = (
(858,-8,o),
(798,47,o),
(841,47,cs),
(876,47,o),
(952,-13,o),
(1030,-13,cs),
(1108,-13,o),
(1175,46,o),
(1175,120,cs),
(1175,155,o),
(1160,185,o),
(1132,185,cs),
(1114,185,o),
(1096,173,o),
(1096,148,cs),
(1096,105,o),
(1151,127,o),
(1151,99,cs),
(1151,86,o),
(1140,70,o),
(1114,70,cs),
(1070,70,o),
(983,116,o),
(897,116,c),
(897,120,l),
(1171,382,ls),
(1213,423,o),
(1217,434,o),
(1217,441,cs),
(1217,452,o),
(1210,457,o),
(1199,457,cs),
(1165,457,o),
(1187,412,o),
(1160,412,cs),
(1058,412,o),
(1031,415,o),
(918,450,c),
(903,450,l),
(829,294,l),
(846,287,l),
(882,354,l),
(912,342,o),
(940,339,o),
(971,339,cs),
(1008,339,o),
(1050,345,o),
(1101,357,c),
(1103,354,l),
(850,112,ls),
(796,60,o),
(781,35,o),
(781,15,cs),
(781,1,o),
(787,-8,o),
(802,-8,cs)
);
}
);
};
layerId = "426C3F01-D24D-4224-A47E-56DA036E4742";
shapes = (
{
ref = D;
},
{
pos = (764,0);
ref = z;
}
);
width = 1238;
},
{
background = {
anchors = (
{
name = bottom;
pos = (965,0);
},
{
name = center;
pos = (420,377);
},
{
name = top;
pos = (1069,450);
}
);
shapes = (
{
closed = 1;
nodes = (
(325,0,ls),
(571,0,o),
(748,209,o),
(748,438,cs),
(748,634,o),
(643,754,o),
(436,754,cs),
(100,754,l),
(100,724,l),
(429,724,ls),
(574,724,o),
(590,631,o),
(590,518,cs),
(590,215,o),
(474,32,o),
(296,32,cs),
(-41,32,l),
(-41,0,l)
);
},
{
closed = 1;
nodes = (
(195,0,l),
(363,754,l),
(212,754,l),
(48,0,l)
);
},
{
closed = 1;
nodes = (
(877,-13,o),
(824,47,o),
(859,47,cs),
(923,47,o),
(983,-13,o),
(1060,-13,cs),
(1155,-13,o),
(1222,78,o),
(1222,162,cs),
(1222,208,o),
(1202,239,o),
(1168,239,cs),
(1144,239,o),
(1120,224,o),
(1120,194,cs),
(1120,142,o),
(1189,160,o),
(1189,136,cs),
(1189,126,o),
(1179,103,o),
(1149,103,cs),
(1112,103,o),
(1084,138,o),
(929,138,c),
(929,142,l),
(1237,399,ls),
(1254,413,o),
(1262,427,o),
(1262,440,cs),
(1262,454,o),
(1253,462,o),
(1236,462,cs),
(1197,462,o),
(1214,417,o),
(1193,417,cs),
(1103,417,o),
(1008,428,o),
(936,450,c),
(911,450,l),
(824,264,l),
(851,253,l),
(888,326,l),
(915,315,o),
(939,315,o),
(968,315,cs),
(1004,315,o),
(1058,321,o),
(1109,336,c),
(1111,333,l),
(849,112,ls),
(789,62,o),
(779,43,o),
(779,24,cs),
(779,2,o),
(793,-13,o),
(817,-13,cs)
);
}
);
};
layerId = "DD3DBCA6-CF88-4DA3-ACF4-A2FFC969FFEC";
shapes = (
{
ref = D;
},
{
pos = (770,0);
ref = z;
}
);
width = 1264;
}
);
unicode = 498;
},
{
glyphname = Dzcaron;
kernLeft = D;
kernRight = z;
lastChange = "2023-02-02 16:56:08 +0000";
layers = (
{
background = {
anchors = (
{
name = bottom;
pos = (949,0);
},
{
name = center;
pos = (417,377);
},
{
name = top;
pos = (1053,450);
}
);
shapes = (
{
closed = 1;
nodes = (
(312,0,ls),
(564,0,o),
(745,189,o),
(745,438,cs),
(745,634,o),
(623,754,o),
(416,754,cs),
(137,754,l),
(137,729,l),
(416,729,ls),
(553,729,o),
(617,667,o),
(617,498,cs),
(617,223,o),
(485,27,o),
(300,27,cs),
(-14,27,l),
(-14,0,l)
);
},
{
closed = 1;
nodes = (
(185,0,l),
(353,754,l),
(236,754,l),
(72,0,l)
);
},
{
closed = 1;
nodes = (
(858,-8,o),
(798,47,o),
(841,47,cs),
(876,47,o),
(952,-13,o),
(1030,-13,cs),
(1108,-13,o),
(1175,46,o),
(1175,120,cs),
(1175,155,o),
(1160,185,o),
(1132,185,cs),
(1114,185,o),
(1096,173,o),
(1096,148,cs),
(1096,105,o),
(1151,127,o),
(1151,99,cs),
(1151,86,o),
(1140,70,o),
(1114,70,cs),
(1070,70,o),
(983,116,o),
(897,116,c),
(897,120,l),
(1171,382,ls),
(1213,423,o),
(1217,434,o),
(1217,441,cs),
(1217,452,o),
(1210,457,o),
(1199,457,cs),
(1165,457,o),
(1187,412,o),
(1160,412,cs),
(1058,412,o),
(1031,415,o),
(918,450,c),
(903,450,l),
(829,294,l),
(846,287,l),
(882,354,l),
(912,342,o),
(940,339,o),
(971,339,cs),
(1008,339,o),
(1050,345,o),
(1101,357,c),
(1103,354,l),
(850,112,ls),
(796,60,o),
(781,35,o),
(781,15,cs),
(781,1,o),
(787,-8,o),
(802,-8,cs)
);
},
{
closed = 1;
nodes = (
(1111,554,l),
(1285,754,l),
(1242,754,l),
(1100,648,l),
(1004,754,l),
(961,754,l),
(1049,554,l)
);
}
);
};
layerId = "426C3F01-D24D-4224-A47E-56DA036E4742";
shapes = (
{
ref = D;
},
{
pos = (764,0);
ref = zcaron;
}
);
width = 1238;
},
{
background = {
anchors = (
{
name = bottom;
pos = (965,0);
},
{
name = center;
pos = (420,377);
},
{
name = top;
pos = (1069,450);
}
);
shapes = (
{
closed = 1;
nodes = (
(325,0,ls),
(571,0,o),
(748,209,o),
(748,438,cs),
(748,634,o),
(643,754,o),
(436,754,cs),
(100,754,l),
(100,724,l),
(429,724,ls),
(574,724,o),
(590,631,o),
(590,518,cs),
(590,215,o),
(474,32,o),
(296,32,cs),
(-41,32,l),
(-41,0,l)
);
},
{
closed = 1;
nodes = (
(195,0,l),
(363,754,l),
(212,754,l),
(48,0,l)
);
},
{
closed = 1;
nodes = (
(877,-13,o),
(824,47,o),
(859,47,cs),
(923,47,o),
(983,-13,o),
(1060,-13,cs),
(1155,-13,o),
(1222,78,o),
(1222,162,cs),
(1222,208,o),
(1202,239,o),
(1168,239,cs),
(1144,239,o),
(1120,224,o),
(1120,194,cs),
(1120,142,o),
(1189,160,o),
(1189,136,cs),
(1189,126,o),
(1179,103,o),
(1149,103,cs),
(1112,103,o),
(1084,138,o),
(929,138,c),
(929,142,l),
(1237,399,ls),
(1254,413,o),
(1262,427,o),
(1262,440,cs),
(1262,454,o),
(1253,462,o),
(1236,462,cs),
(1197,462,o),
(1214,417,o),
(1193,417,cs),
(1103,417,o),
(1008,428,o),
(936,450,c),
(911,450,l),
(824,264,l),
(851,253,l),
(888,326,l),
(915,315,o),
(939,315,o),
(968,315,cs),
(1004,315,o),
(1058,321,o),
(1109,336,c),
(1111,333,l),
(849,112,ls),
(789,62,o),
(779,43,o),
(779,24,cs),
(779,2,o),
(793,-13,o),
(817,-13,cs)
);
},
{
closed = 1;
nodes = (
(1105,554,l),
(1299,754,l),
(1256,754,l),
(1098,668,l),
(978,754,l),
(935,754,l),
(1043,554,l)
);
}
);
};
layerId = "DD3DBCA6-CF88-4DA3-ACF4-A2FFC969FFEC";
shapes = (
{
ref = D;
},
{
pos = (770,0);
ref = zcaron;
}
);
width = 1264;
}
);
unicode = 453;
},
{
glyphname = E;
kernLeft = E;
kernRight = E;
lastChange = "2023-02-02 16:56:08 +0000";
layers = (
{
anchors = (
{
name = bottom;
pos = (279,0);
},
{
name = ogonek;
pos = (416,22);
},
{
name = top;
pos = (419,754);
},
{
name = topleft;
pos = (142,754);
}
);
background = {
anchors = (
{
name = bottom;
pos = (279,0);
},
{
name = ogonek;
pos = (544,10);
},
{
name = top;
pos = (453,754);
},
{
name = topleft;
pos = (142,754);
}
);
shapes = (
{
closed = 1;
nodes = (
(172,0,l),
(340,754,l),
(223,754,l),
(59,0,l)
);
},
{
closed = 1;
nodes = (
(553,0,l),
(613,232,l),
(583,232,l),
(507,64,o),
(445,25,o),
(356,25,cs),
(-37,25,l),
(-37,0,l)
);
},
{
closed = 1;
nodes = (
(422,226,l),
(481,534,l),
(456,534,l),
(425,430,o),
(390,403,o),
(310,403,cs),
(207,403,l),
(207,378,l),
(294,378,ls),
(377,378,o),
(392,351,o),
(392,226,c)
);
},
{
closed = 1;
nodes = (
(645,553,l),
(673,754,l),
(114,754,l),
(114,729,l),
(444,729,ls),
(586,729,o),
(615,692,o),
(615,553,c)
);
}
);
};
layerId = "426C3F01-D24D-4224-A47E-56DA036E4742";
shapes = (
{
closed = 1;
nodes = (
(172,0,l),
(340,754,l),
(223,754,l),
(59,0,l)
);
},
{
closed = 1;
nodes = (
(553,0,l),
(613,232,l),
(583,232,l),
(507,64,o),
(445,25,o),
(356,25,cs),
(-37,25,l),
(-37,0,l)
);
},
{
closed = 1;
nodes = (
(422,226,l),
(481,534,l),
(456,534,l),
(425,430,o),
(390,403,o),
(310,403,cs),
(207,403,l),
(207,378,l),
(294,378,ls),
(377,378,o),
(392,351,o),
(392,226,c)
);
},
{
closed = 1;
nodes = (
(645,553,l),
(673,754,l),
(114,754,l),
(114,729,l),
(444,729,ls),
(586,729,o),
(615,692,o),
(615,553,c)
);
}
);
width = 662;
},
{
anchors = (
{
name = bottom;
pos = (293,0);
},
{
name = ogonek;
pos = (537,10);
},
{
name = top;
pos = (467,754);
},
{
name = topleft;
pos = (142,754);
}
);
background = {
anchors = (
{
name = bottom;
pos = (293,0);
},
{
name = ogonek;
pos = (569,10);
},
{
name = top;
pos = (467,754);
},
{
name = topleft;
pos = (142,754);
}
);
shapes = (
{
closed = 1;
nodes = (
(226,0,l),
(394,754,l),
(243,754,l),
(79,0,l)
);
},
{
closed = 1;
nodes = (
(597,0,l),
(657,232,l),
(617,232,l),
(541,68,o),
(479,30,o),
(390,30,cs),
(-13,30,l),
(-13,0,l)
);
},
{
closed = 1;
nodes = (
(478,227,l),
(543,535,l),
(508,535,l),
(478,441,o),
(429,404,o),
(362,404,cs),
(259,404,l),
(259,374,l),
(346,374,ls),
(406,374,o),
(444,348,o),
(444,227,c)
);
},
{
closed = 1;
nodes = (
(689,548,l),
(725,754,l),
(128,754,l),
(128,724,l),
(488,724,ls),
(612,724,o),
(649,687,o),
(649,548,c)
);
}
);
};
layerId = "DD3DBCA6-CF88-4DA3-ACF4-A2FFC969FFEC";
shapes = (
{
closed = 1;
nodes = (
(226,0,l),
(394,754,l),
(243,754,l),
(79,0,l)
);
},
{
closed = 1;
nodes = (
(597,0,l),
(657,232,l),
(617,232,l),
(541,68,o),
(479,30,o),
(390,30,cs),
(-13,30,l),
(-13,0,l)
);
},
{
closed = 1;
nodes = (
(478,227,l),
(543,535,l),
(508,535,l),
(478,441,o),
(429,404,o),
(362,404,cs),
(259,404,l),
(259,374,l),
(346,374,ls),
(406,374,o),
(444,348,o),
(444,227,c)
);
},
{
closed = 1;
nodes = (
(689,548,l),
(725,754,l),
(128,754,l),
(128,724,l),
(488,724,ls),
(612,724,o),
(649,687,o),
(649,548,c)
);
}
);
width = 690;
}
);
unicode = 69;
},
{
glyphname = Eacute;
kernLeft = E;
kernRight = E;
lastChange = "2023-02-02 16:56:08 +0000";
layers = (
{
background = {
anchors = (
{
name = bottom;
pos = (279,0);
},
{
name = ogonek;
pos = (544,10);
},
{
name = top;
pos = (513,1011);
},
{
name = topleft;
pos = (142,754);
}
);
shapes = (
{
closed = 1;
nodes = (
(172,0,l),
(340,754,l),
(223,754,l),
(59,0,l)
);
},
{
closed = 1;
nodes = (
(553,0,l),
(613,232,l),
(583,232,l),
(507,64,o),
(445,25,o),
(356,25,cs),
(-37,25,l),
(-37,0,l)
);
},
{
closed = 1;
nodes = (
(422,226,l),
(481,534,l),
(456,534,l),
(425,430,o),
(390,403,o),
(310,403,cs),
(207,403,l),
(207,378,l),
(294,378,ls),
(377,378,o),
(392,351,o),
(392,226,c)
);
},
{
closed = 1;
nodes = (
(645,553,l),
(673,754,l),
(114,754,l),
(114,729,l),
(444,729,ls),
(586,729,o),
(615,692,o),
(615,553,c)
);
},
{
closed = 1;
nodes = (
(453,871,l),
(627,910,ls),
(675,921,o),
(696,943,o),
(696,972,cs),
(696,997,o),
(681,1011,o),
(658,1011,cs),
(638,1011,o),
(616,1001,o),
(573,975,cs),
(401,871,l)
);
}
);
};
layerId = "426C3F01-D24D-4224-A47E-56DA036E4742";
shapes = (
{
ref = E;
},
{
pos = (120,63);
ref = acutecomb.case;
}
);
width = 662;
},
{
background = {
anchors = (
{
name = bottom;
pos = (293,0);
},
{
name = ogonek;
pos = (569,10);
},
{
name = top;
pos = (520,986);
},
{
name = topleft;
pos = (142,754);
}
);
shapes = (
{
closed = 1;
nodes = (
(226,0,l),
(394,754,l),
(243,754,l),
(79,0,l)
);
},
{
closed = 1;
nodes = (
(597,0,l),
(657,232,l),
(617,232,l),
(541,68,o),
(479,30,o),
(390,30,cs),
(-13,30,l),
(-13,0,l)
);
},
{
closed = 1;
nodes = (
(478,227,l),
(543,535,l),
(508,535,l),
(478,441,o),
(429,404,o),
(362,404,cs),
(259,404,l),
(259,374,l),
(346,374,ls),
(406,374,o),
(444,348,o),
(444,227,c)
);
},
{
closed = 1;
nodes = (
(689,548,l),
(725,754,l),
(128,754,l),
(128,724,l),
(488,724,ls),
(612,724,o),
(649,687,o),
(649,548,c)
);
},
{
closed = 1;
nodes = (
(413,845,l),
(611,884,ls),
(648,891,o),
(664,915,o),
(664,937,cs),
(664,962,o),
(643,986,o),
(606,986,cs),
(578,986,o),
(558,977,o),
(520,954,cs),
(344,845,l)
);
}
);
};
layerId = "DD3DBCA6-CF88-4DA3-ACF4-A2FFC969FFEC";
shapes = (
{
ref = E;
},
{
pos = (195,82);
ref = acutecomb.case;
}
);
width = 690;
}
);
unicode = 201;
},
{
glyphname = Ebreve;
kernLeft = E;
kernRight = E;
lastChange = "2023-02-02 16:56:08 +0000";
layers = (
{
background = {
anchors = (
{
name = bottom;
pos = (279,0);
},
{
name = ogonek;
pos = (544,10);
},
{
name = top;
pos = (453,754);
},
{
name = topleft;
pos = (142,754);
}
);
shapes = (
{
closed = 1;
nodes = (
(172,0,l),
(340,754,l),
(223,754,l),
(59,0,l)
);
},
{
closed = 1;
nodes = (
(553,0,l),
(613,232,l),
(583,232,l),
(507,64,o),
(445,25,o),
(356,25,cs),
(-37,25,l),
(-37,0,l)
);
},
{
closed = 1;
nodes = (
(422,226,l),
(481,534,l),
(456,534,l),
(425,430,o),
(390,403,o),
(310,403,cs),
(207,403,l),
(207,378,l),
(294,378,ls),
(377,378,o),
(392,351,o),
(392,226,c)
);
},
{
closed = 1;
nodes = (
(645,553,l),
(673,754,l),
(114,754,l),
(114,729,l),
(444,729,ls),
(586,729,o),
(615,692,o),
(615,553,c)
);
},
{
closed = 1;
nodes = (
(526,787,o),
(591,846,o),
(607,924,c),
(573,924,l),
(560,880,o),
(510,860,o),
(430,860,cs),
(365,860,o),
(328,873,o),
(328,924,c),
(294,924,l),
(274,842,o),
(327,787,o),
(423,787,cs)
);
}
);
};
layerId = "426C3F01-D24D-4224-A47E-56DA036E4742";
shapes = (
{
ref = E;
},
{
pos = (136,62);
ref = brevecomb.case;
}
);
width = 662;
},
{
background = {
anchors = (
{
name = bottom;
pos = (293,0);
},
{
name = ogonek;
pos = (569,10);
},
{
name = top;
pos = (467,754);
},
{
name = topleft;
pos = (142,754);
}
);
shapes = (
{
closed = 1;
nodes = (
(226,0,l),
(394,754,l),
(243,754,l),
(79,0,l)
);
},
{
closed = 1;
nodes = (
(597,0,l),
(657,232,l),
(617,232,l),
(541,68,o),
(479,30,o),
(390,30,cs),
(-13,30,l),
(-13,0,l)
);
},
{
closed = 1;
nodes = (
(478,227,l),
(543,535,l),
(508,535,l),
(478,441,o),
(429,404,o),
(362,404,cs),
(259,404,l),
(259,374,l),
(346,374,ls),
(406,374,o),
(444,348,o),
(444,227,c)
);
},
{
closed = 1;
nodes = (
(689,548,l),
(725,754,l),
(128,754,l),
(128,724,l),
(488,724,ls),
(612,724,o),
(649,687,o),
(649,548,c)
);
},
{
closed = 1;
nodes = (
(558,780,o),
(623,833,o),
(641,924,c),
(602,924,l),
(591,876,o),
(542,855,o),
(479,855,cs),
(420,855,o),
(374,876,o),
(386,924,c),
(347,924,l),
(325,830,o),
(367,780,o),
(464,780,cs)
);
}
);
};
layerId = "DD3DBCA6-CF88-4DA3-ACF4-A2FFC969FFEC";
shapes = (
{
ref = E;
},
{
pos = (169,71);
ref = brevecomb.case;
}
);
width = 690;
}
);
unicode = 276;
},
{
glyphname = Ecaron;
kernLeft = E;
kernRight = E;
lastChange = "2023-02-02 16:56:08 +0000";
layers = (
{
background = {
anchors = (
{
name = bottom;
pos = (279,0);
},
{
name = ogonek;
pos = (544,10);
},
{
name = top;
pos = (453,754);
},
{
name = topleft;
pos = (142,754);
}
);
shapes = (
{
closed = 1;
nodes = (
(172,0,l),
(340,754,l),
(223,754,l),
(59,0,l)
);
},
{
closed = 1;
nodes = (
(553,0,l),
(613,232,l),
(583,232,l),
(507,64,o),
(445,25,o),
(356,25,cs),
(-37,25,l),
(-37,0,l)
);
},
{
closed = 1;
nodes = (
(422,226,l),
(481,534,l),
(456,534,l),
(425,430,o),
(390,403,o),
(310,403,cs),
(207,403,l),
(207,378,l),
(294,378,ls),
(377,378,o),
(392,351,o),
(392,226,c)
);
},
{
closed = 1;
nodes = (
(645,553,l),
(673,754,l),
(114,754,l),
(114,729,l),
(444,729,ls),
(586,729,o),
(615,692,o),
(615,553,c)
);
},
{
closed = 1;
nodes = (
(464,784,l),
(624,924,l),
(581,924,l),
(449,863,l),
(343,924,l),
(300,924,l),
(402,784,l)
);
}
);
};
layerId = "426C3F01-D24D-4224-A47E-56DA036E4742";
shapes = (
{
ref = E;
},
{
pos = (113,10);
ref = caroncomb.case;
}
);
width = 662;
},
{
background = {
anchors = (
{
name = bottom;
pos = (293,0);
},
{
name = ogonek;
pos = (569,10);
},
{
name = top;
pos = (467,754);
},
{
name = topleft;
pos = (142,754);
}
);
shapes = (
{
closed = 1;
nodes = (
(226,0,l),
(394,754,l),
(243,754,l),
(79,0,l)
);
},
{
closed = 1;
nodes = (
(597,0,l),
(657,232,l),
(617,232,l),
(541,68,o),
(479,30,o),
(390,30,cs),
(-13,30,l),
(-13,0,l)
);
},
{
closed = 1;
nodes = (
(478,227,l),
(543,535,l),
(508,535,l),
(478,441,o),
(429,404,o),
(362,404,cs),
(259,404,l),
(259,374,l),
(346,374,ls),
(406,374,o),
(444,348,o),
(444,227,c)
);
},
{
closed = 1;
nodes = (
(689,548,l),
(725,754,l),
(128,754,l),
(128,724,l),
(488,724,ls),
(612,724,o),
(649,687,o),
(649,548,c)
);
},
{
closed = 1;
nodes = (
(477,791,l),
(655,923,l),
(609,923,l),
(467,878,l),
(345,923,l),
(298,923,l),
(421,791,l)
);
}
);
};
layerId = "DD3DBCA6-CF88-4DA3-ACF4-A2FFC969FFEC";
shapes = (
{
ref = E;
},
{
pos = (155,16);
ref = caroncomb.case;
}
);
width = 690;
}
);
unicode = 282;
},
{
glyphname = Ecircumflex;
kernLeft = E;
kernRight = E;
lastChange = "2023-02-02 16:56:08 +0000";
layers = (
{
background = {
anchors = (
{
name = bottom;
pos = (279,0);
},
{
name = ogonek;
pos = (544,10);
},
{
name = top;
pos = (469,873);
},
{
name = topleft;
pos = (142,754);
}
);
shapes = (
{
closed = 1;
nodes = (
(172,0,l),
(340,754,l),
(223,754,l),
(59,0,l)
);
},
{
closed = 1;
nodes = (
(553,0,l),
(613,232,l),
(583,232,l),
(507,64,o),
(445,25,o),
(356,25,cs),
(-37,25,l),
(-37,0,l)
);
},
{
closed = 1;
nodes = (
(422,226,l),
(481,534,l),
(456,534,l),
(425,430,o),
(390,403,o),
(310,403,cs),
(207,403,l),
(207,378,l),
(294,378,ls),
(377,378,o),
(392,351,o),
(392,226,c)
);
},
{
closed = 1;
nodes = (
(645,553,l),
(673,754,l),
(114,754,l),
(114,729,l),
(444,729,ls),
(586,729,o),
(615,692,o),
(615,553,c)
);
},
{
closed = 1;
nodes = (
(359,843,l),
(471,884,l),
(557,843,l),
(600,843,l),
(508,943,l),
(446,943,l),
(317,843,l)
);
}
);
};
layerId = "426C3F01-D24D-4224-A47E-56DA036E4742";
shapes = (
{
ref = E;
},
{
pos = (132,20);
ref = circumflexcomb.case;
}
);
width = 662;
},
{
background = {
anchors = (
{
name = bottom;
pos = (293,0);
},
{
name = ogonek;
pos = (569,10);
},
{
name = top;
pos = (512,950);
},
{
name = topleft;
pos = (142,754);
}
);
shapes = (
{
closed = 1;
nodes = (
(226,0,l),
(394,754,l),
(243,754,l),
(79,0,l)
);
},
{
closed = 1;
nodes = (
(597,0,l),
(657,232,l),
(617,232,l),
(541,68,o),
(479,30,o),
(390,30,cs),
(-13,30,l),
(-13,0,l)
);
},
{
closed = 1;
nodes = (
(478,227,l),
(543,535,l),
(508,535,l),
(478,441,o),
(429,404,o),
(362,404,cs),
(259,404,l),
(259,374,l),
(346,374,ls),
(406,374,o),
(444,348,o),
(444,227,c)
);
},
{
closed = 1;
nodes = (
(689,548,l),
(725,754,l),
(128,754,l),
(128,724,l),
(488,724,ls),
(612,724,o),
(649,687,o),
(649,548,c)
);
},
{
closed = 1;
nodes = (
(377,838,l),
(509,883,l),
(621,838,l),
(668,838,l),
(545,950,l),
(489,950,l),
(331,838,l)
);
}
);
};
layerId = "DD3DBCA6-CF88-4DA3-ACF4-A2FFC969FFEC";
shapes = (
{
ref = E;
},
{
pos = (160,12);
ref = circumflexcomb.case;
}
);
width = 690;
}
);
unicode = 202;
},
{
glyphname = Ecircumflexacute;
kernLeft = E;
kernRight = E;
lastChange = "2023-02-02 16:56:08 +0000";
layers = (
{
background = {
anchors = (
{
name = bottom;
pos = (279,0);
},
{
name = ogonek;
pos = (544,10);
},
{
name = top;
pos = (511,1117);
},
{
name = topleft;
pos = (142,754);
}
);
shapes = (
{
closed = 1;
nodes = (
(172,0,l),
(340,754,l),
(223,754,l),
(59,0,l)
);
},
{
closed = 1;
nodes = (
(553,0,l),
(613,232,l),
(583,232,l),
(507,64,o),
(445,25,o),
(356,25,cs),
(-37,25,l),
(-37,0,l)
);
},
{
closed = 1;
nodes = (
(422,226,l),
(481,534,l),
(456,534,l),
(425,430,o),
(390,403,o),
(310,403,cs),
(207,403,l),
(207,378,l),
(294,378,ls),
(377,378,o),
(392,351,o),
(392,226,c)
);
},
{
closed = 1;
nodes = (
(645,553,l),
(673,754,l),
(114,754,l),
(114,729,l),
(444,729,ls),
(586,729,o),
(615,692,o),
(615,553,c)
);
},
{
closed = 1;
nodes = (
(363,843,l),
(475,884,l),
(561,843,l),
(604,843,l),
(512,943,l),
(450,943,l),
(321,843,l)
);
},
{
closed = 1;
nodes = (
(395,977,l),
(569,1016,ls),
(617,1027,o),
(638,1049,o),
(638,1078,cs),
(638,1103,o),
(623,1117,o),
(600,1117,cs),
(580,1117,o),
(558,1107,o),
(515,1081,cs),
(343,977,l)
);
}
);
};
layerId = "426C3F01-D24D-4224-A47E-56DA036E4742";
shapes = (
{
ref = E;
},
{
pos = (51,304);
ref = circumflexcomb_acutecomb;
}
);
width = 662;
},
{
background = {
anchors = (
{
name = bottom;
pos = (293,0);
},
{
name = ogonek;
pos = (569,10);
},
{
name = top;
pos = (522,1124);
},
{
name = topleft;
pos = (142,754);
}
);
shapes = (
{
closed = 1;
nodes = (
(226,0,l),
(394,754,l),
(243,754,l),
(79,0,l)
);
},
{
closed = 1;
nodes = (
(597,0,l),
(657,232,l),
(617,232,l),
(541,68,o),
(479,30,o),
(390,30,cs),
(-13,30,l),
(-13,0,l)
);
},
{
closed = 1;
nodes = (
(478,227,l),
(543,535,l),
(508,535,l),
(478,441,o),
(429,404,o),
(362,404,cs),
(259,404,l),
(259,374,l),
(346,374,ls),
(406,374,o),
(444,348,o),
(444,227,c)
);
},
{
closed = 1;
nodes = (
(689,548,l),
(725,754,l),
(128,754,l),
(128,724,l),
(488,724,ls),
(612,724,o),
(649,687,o),
(649,548,c)
);
},
{
closed = 1;
nodes = (
(355,838,l),
(487,883,l),
(599,838,l),
(646,838,l),
(523,950,l),
(467,950,l),
(309,838,l)
);
},
{
closed = 1;
nodes = (
(417,983,l),
(615,1022,ls),
(652,1029,o),
(668,1053,o),
(668,1075,cs),
(668,1100,o),
(647,1124,o),
(610,1124,cs),
(582,1124,o),
(562,1115,o),
(524,1092,cs),
(348,983,l)
);
}
);
};
layerId = "DD3DBCA6-CF88-4DA3-ACF4-A2FFC969FFEC";
shapes = (
{
ref = E;
},
{
pos = (100,304);
ref = circumflexcomb_acutecomb;
}
);
width = 690;
}
);
unicode = 7870;
},
{
glyphname = Ecircumflexdotbelow;
kernLeft = E;
kernRight = E;
lastChange = "2023-02-02 16:56:08 +0000";
layers = (
{
background = {
anchors = (
{
name = bottom;
pos = (232,-203);
},
{
name = ogonek;
pos = (544,10);
},
{
name = top;
pos = (469,873);
},
{
name = topleft;
pos = (142,754);
}
);
shapes = (
{
closed = 1;
nodes = (
(172,0,l),
(340,754,l),
(223,754,l),
(59,0,l)
);
},
{
closed = 1;
nodes = (
(553,0,l),
(613,232,l),
(583,232,l),
(507,64,o),
(445,25,o),
(356,25,cs),
(-37,25,l),
(-37,0,l)
);
},
{
closed = 1;
nodes = (
(422,226,l),
(481,534,l),
(456,534,l),
(425,430,o),
(390,403,o),
(310,403,cs),
(207,403,l),
(207,378,l),
(294,378,ls),
(377,378,o),
(392,351,o),
(392,226,c)
);
},
{
closed = 1;
nodes = (
(645,553,l),
(673,754,l),
(114,754,l),
(114,729,l),
(444,729,ls),
(586,729,o),
(615,692,o),
(615,553,c)
);
},
{
closed = 1;
nodes = (
(285,-203,o),
(315,-174,o),
(315,-136,cs),
(315,-98,o),
(285,-68,o),
(247,-68,cs),
(209,-68,o),
(180,-98,o),
(180,-136,cs),
(180,-174,o),
(209,-203,o),
(247,-203,cs)
);
},
{
closed = 1;
nodes = (
(359,843,l),
(471,884,l),
(557,843,l),
(600,843,l),
(508,943,l),
(446,943,l),
(317,843,l)
);
}
);
};
layerId = "426C3F01-D24D-4224-A47E-56DA036E4742";
shapes = (
{
alignment = -1;
ref = E;
},
{
alignment = -1;
pos = (38,0);
ref = dotbelowcomb;
},
{
alignment = -1;
pos = (112,10);
ref = circumflexcomb.case;
}
);
width = 662;
},
{
background = {
anchors = (
{
name = bottom;
pos = (239,-233);
},
{
name = ogonek;
pos = (569,10);
},
{
name = top;
pos = (512,950);
},
{
name = topleft;
pos = (142,754);
}
);
shapes = (
{
closed = 1;
nodes = (
(226,0,l),
(394,754,l),
(243,754,l),
(79,0,l)
);
},
{
closed = 1;
nodes = (
(597,0,l),
(657,232,l),
(617,232,l),
(541,68,o),
(479,30,o),
(390,30,cs),
(-13,30,l),
(-13,0,l)
);
},
{
closed = 1;
nodes = (
(478,227,l),
(543,535,l),
(508,535,l),
(478,441,o),
(429,404,o),
(362,404,cs),
(259,404,l),
(259,374,l),
(346,374,ls),
(406,374,o),
(444,348,o),
(444,227,c)
);
},
{
closed = 1;
nodes = (
(689,548,l),
(725,754,l),
(128,754,l),
(128,724,l),
(488,724,ls),
(612,724,o),
(649,687,o),
(649,548,c)
);
},
{
closed = 1;
nodes = (
(301,-233,o),
(338,-196,o),
(338,-153,cs),
(338,-109,o),
(301,-72,o),
(257,-72,cs),
(214,-72,o),
(177,-109,o),
(177,-153,cs),
(177,-196,o),
(214,-233,o),
(257,-233,cs)
);
},
{
closed = 1;
nodes = (
(377,838,l),
(509,883,l),
(621,838,l),
(668,838,l),
(545,950,l),
(489,950,l),
(331,838,l)
);
}
);
};
layerId = "DD3DBCA6-CF88-4DA3-ACF4-A2FFC969FFEC";
shapes = (
{
ref = E;
},
{
pos = (43,0);
ref = dotbelowcomb;
},
{
pos = (160,12);
ref = circumflexcomb.case;
}
);
width = 690;
}
);
unicode = 7878;
},
{
glyphname = Ecircumflexgrave;
kernLeft = E;
kernRight = E;
lastChange = "2023-02-02 16:56:08 +0000";
layers = (
{
background = {
anchors = (
{
name = bottom;
pos = (279,0);
},
{
name = ogonek;
pos = (544,10);
},
{
name = top;
pos = (514,1129);
},
{
name = topleft;
pos = (142,754);
}
);
shapes = (
{
closed = 1;
nodes = (
(172,0,l),
(340,754,l),
(223,754,l),
(59,0,l)
);
},
{
closed = 1;
nodes = (
(553,0,l),
(613,232,l),
(583,232,l),
(507,64,o),
(445,25,o),
(356,25,cs),
(-37,25,l),
(-37,0,l)
);
},
{
closed = 1;
nodes = (
(422,226,l),
(481,534,l),
(456,534,l),
(425,430,o),
(390,403,o),
(310,403,cs),
(207,403,l),
(207,378,l),
(294,378,ls),
(377,378,o),
(392,351,o),
(392,226,c)
);
},
{
closed = 1;
nodes = (
(645,553,l),
(673,754,l),
(114,754,l),
(114,729,l),
(444,729,ls),
(586,729,o),
(615,692,o),
(615,553,c)
);
},
{
closed = 1;
nodes = (
(367,843,l),
(479,884,l),
(565,843,l),
(608,843,l),
(516,943,l),
(454,943,l),
(325,843,l)
);
},
{
closed = 1;
nodes = (
(636,989,l),
(497,1093,ls),
(460,1121,o),
(448,1129,o),
(431,1129,cs),
(399,1129,o),
(377,1104,o),
(377,1076,cs),
(377,1055,o),
(390,1040,o),
(417,1033,cs),
(583,989,l)
);
}
);
};
layerId = "426C3F01-D24D-4224-A47E-56DA036E4742";
shapes = (
{
ref = E;
},
{
pos = (55,304);
ref = circumflexcomb_gravecomb;
}
);
width = 662;
},
{
background = {
anchors = (
{
name = bottom;
pos = (293,0);
},
{
name = ogonek;
pos = (569,10);
},
{
name = top;
pos = (535,1118);
},
{
name = topleft;
pos = (142,754);
}
);
shapes = (
{
closed = 1;
nodes = (
(226,0,l),
(394,754,l),
(243,754,l),
(79,0,l)
);
},
{
closed = 1;
nodes = (
(597,0,l),
(657,232,l),
(617,232,l),
(541,68,o),
(479,30,o),
(390,30,cs),
(-13,30,l),
(-13,0,l)
);
},
{
closed = 1;
nodes = (
(478,227,l),
(543,535,l),
(508,535,l),
(478,441,o),
(429,404,o),
(362,404,cs),
(259,404,l),
(259,374,l),
(346,374,ls),
(406,374,o),
(444,348,o),
(444,227,c)
);
},
{
closed = 1;
nodes = (
(689,548,l),
(725,754,l),
(128,754,l),
(128,724,l),
(488,724,ls),
(612,724,o),
(649,687,o),
(649,548,c)
);
},
{
closed = 1;
nodes = (
(359,838,l),
(491,883,l),
(603,838,l),
(650,838,l),
(527,950,l),
(471,950,l),
(313,838,l)
);
},
{
closed = 1;
nodes = (
(693,977,l),
(517,1086,ls),
(479,1109,o),
(459,1118,o),
(431,1118,cs),
(394,1118,o),
(373,1094,o),
(373,1069,cs),
(373,1047,o),
(389,1023,o),
(426,1016,cs),
(624,977,l)
);
}
);
};
layerId = "DD3DBCA6-CF88-4DA3-ACF4-A2FFC969FFEC";
shapes = (
{
ref = E;
},
{
pos = (104,304);
ref = circumflexcomb_gravecomb;
}
);
width = 690;
}
);
unicode = 7872;
},
{
glyphname = Ecircumflexhookabove;
kernLeft = E;
kernRight = E;
lastChange = "2023-02-02 16:56:08 +0000";
layers = (
{
background = {
anchors = (
{
name = bottom;
pos = (279,0);
},
{
name = ogonek;
pos = (544,10);
},
{
name = top;
pos = (542,1089);
},
{
name = topleft;
pos = (142,754);
}
);
shapes = (
{
closed = 1;
nodes = (
(172,0,l),
(340,754,l),
(223,754,l),
(59,0,l)
);
},
{
closed = 1;
nodes = (
(553,0,l),
(613,232,l),
(583,232,l),
(507,64,o),
(445,25,o),
(356,25,cs),
(-37,25,l),
(-37,0,l)
);
},
{
closed = 1;
nodes = (
(422,226,l),
(481,534,l),
(456,534,l),
(425,430,o),
(390,403,o),
(310,403,cs),
(207,403,l),
(207,378,l),
(294,378,ls),
(377,378,o),
(392,351,o),
(392,226,c)
);
},
{
closed = 1;
nodes = (
(645,553,l),
(673,754,l),
(114,754,l),
(114,729,l),
(444,729,ls),
(586,729,o),
(615,692,o),
(615,553,c)
);
},
{
closed = 1;
nodes = (
(361,843,l),
(473,884,l),
(559,843,l),
(602,843,l),
(510,943,l),
(448,943,l),
(319,843,l)
);
},
{
closed = 1;
nodes = (
(593,925,l),
(610,951,o),
(670,961,o),
(677,1001,cs),
(688,1058,o),
(653,1084,o),
(593,1084,cs),
(549,1084,o),
(496,1063,o),
(485,1004,cs),
(481,984,o),
(494,969,o),
(517,969,cs),
(538,969,o),
(551,977,o),
(553,991,cs),
(557,1009,o),
(543,1007,o),
(546,1019,cs),
(549,1034,o),
(567,1044,o),
(587,1044,cs),
(608,1044,o),
(625,1037,o),
(618,999,cs),
(613,975,o),
(573,961,o),
(566,925,c)
);
}
);
};
layerId = "426C3F01-D24D-4224-A47E-56DA036E4742";
shapes = (
{
ref = E;
},
{
pos = (49,304);
ref = circumflexcomb_hookabovecomb;
}
);
width = 662;
},
{
background = {
anchors = (
{
name = bottom;
pos = (293,0);
},
{
name = ogonek;
pos = (569,10);
},
{
name = top;
pos = (566,1110);
},
{
name = topleft;
pos = (142,754);
}
);
shapes = (
{
closed = 1;
nodes = (
(226,0,l),
(394,754,l),
(243,754,l),
(79,0,l)
);
},
{
closed = 1;
nodes = (
(597,0,l),
(657,232,l),
(617,232,l),
(541,68,o),
(479,30,o),
(390,30,cs),
(-13,30,l),
(-13,0,l)
);
},
{
closed = 1;
nodes = (
(478,227,l),
(543,535,l),
(508,535,l),
(478,441,o),
(429,404,o),
(362,404,cs),
(259,404,l),
(259,374,l),
(346,374,ls),
(406,374,o),
(444,348,o),
(444,227,c)
);
},
{
closed = 1;
nodes = (
(689,548,l),
(725,754,l),
(128,754,l),
(128,724,l),
(488,724,ls),
(612,724,o),
(649,687,o),
(649,548,c)
);
},
{
closed = 1;
nodes = (
(356,838,l),
(488,883,l),
(600,838,l),
(647,838,l),
(524,950,l),
(468,950,l),
(310,838,l)
);
},
{
closed = 1;
nodes = (
(649,934,l),
(659,984,o),
(729,965,o),
(741,1027,cs),
(755,1098,o),
(726,1127,o),
(653,1127,cs),
(593,1127,o),
(541,1100,o),
(528,1035,cs),
(522,1005,o),
(538,986,o),
(562,986,cs),
(579,986,o),
(603,993,o),
(606,1012,cs),
(610,1040,o),
(590,1028,o),
(593,1052,cs),
(595,1066,o),
(616,1084,o),
(644,1084,cs),
(673,1084,o),
(688,1068,o),
(681,1036,cs),
(676,1012,o),
(624,1004,o),
(610,934,c)
);
}
);
};
layerId = "DD3DBCA6-CF88-4DA3-ACF4-A2FFC969FFEC";
shapes = (
{
ref = E;
},
{
pos = (101,304);
ref = circumflexcomb_hookabovecomb;
}
);
width = 690;
}
);
unicode = 7874;
},
{
glyphname = Ecircumflextilde;
kernLeft = E;
kernRight = E;
lastChange = "2023-02-02 16:56:08 +0000";
layers = (
{
background = {
anchors = (
{
name = bottom;
pos = (279,0);
},
{
name = ogonek;
pos = (544,10);
},
{
name = top;
pos = (537,1098);
},
{
name = topleft;
pos = (142,754);
}
);
shapes = (
{
closed = 1;
nodes = (
(172,0,l),
(340,754,l),
(223,754,l),
(59,0,l)
);
},
{
closed = 1;
nodes = (
(553,0,l),
(613,232,l),
(583,232,l),
(507,64,o),
(445,25,o),
(356,25,cs),
(-37,25,l),
(-37,0,l)
);
},
{
closed = 1;
nodes = (
(422,226,l),
(481,534,l),
(456,534,l),
(425,430,o),
(390,403,o),
(310,403,cs),
(207,403,l),
(207,378,l),
(294,378,ls),
(377,378,o),
(392,351,o),
(392,226,c)
);
},
{
closed = 1;
nodes = (
(645,553,l),
(673,754,l),
(114,754,l),
(114,729,l),
(444,729,ls),
(586,729,o),
(615,692,o),
(615,553,c)
);
},
{
closed = 1;
nodes = (
(363,843,l),
(475,884,l),
(561,843,l),
(604,843,l),
(512,943,l),
(450,943,l),
(321,843,l)
);
},
{
closed = 1;
nodes = (
(358,970,l),
(371,998,o),
(398,1019,o),
(431,1019,cs),
(479,1019,o),
(499,971,o),
(561,971,cs),
(617,971,o),
(668,1011,o),
(694,1098,c),
(660,1098,l),
(647,1075,o),
(622,1047,o),
(586,1047,cs),
(539,1047,o),
(515,1095,o),
(458,1095,cs),
(398,1095,o),
(346,1042,o),
(326,970,c)
);
}
);
};
layerId = "426C3F01-D24D-4224-A47E-56DA036E4742";
shapes = (
{
ref = E;
},
{
pos = (51,304);
ref = circumflexcomb_tildecomb;
}
);
width = 662;
},
{
background = {
anchors = (
{
name = bottom;
pos = (293,0);
},
{
name = ogonek;
pos = (569,10);
},
{
name = top;
pos = (561,1104);
},
{
name = topleft;
pos = (142,754);
}
);
shapes = (
{
closed = 1;
nodes = (
(226,0,l),
(394,754,l),
(243,754,l),
(79,0,l)
);
},
{
closed = 1;
nodes = (
(597,0,l),
(657,232,l),
(617,232,l),
(541,68,o),
(479,30,o),
(390,30,cs),
(-13,30,l),
(-13,0,l)
);
},
{
closed = 1;
nodes = (
(478,227,l),
(543,535,l),
(508,535,l),
(478,441,o),
(429,404,o),
(362,404,cs),
(259,404,l),
(259,374,l),
(346,374,ls),
(406,374,o),
(444,348,o),
(444,227,c)
);
},
{
closed = 1;
nodes = (
(689,548,l),
(725,754,l),
(128,754,l),
(128,724,l),
(488,724,ls),
(612,724,o),
(649,687,o),
(649,548,c)
);
},
{
closed = 1;
nodes = (
(353,838,l),
(485,883,l),
(597,838,l),
(644,838,l),
(521,950,l),
(465,950,l),
(307,838,l)
);
},
{
closed = 1;
nodes = (
(371,970,l),
(383,995,o),
(414,1015,o),
(450,1015,cs),
(503,1015,o),
(519,971,o),
(582,971,cs),
(652,971,o),
(699,1024,o),
(727,1104,c),
(691,1104,l),
(681,1086,o),
(651,1059,o),
(610,1059,cs),
(559,1059,o),
(543,1103,o),
(480,1103,cs),
(405,1103,o),
(358,1039,o),
(337,970,c)
);
}
);
};
layerId = "DD3DBCA6-CF88-4DA3-ACF4-A2FFC969FFEC";
shapes = (
{
ref = E;
},
{
pos = (98,304);
ref = circumflexcomb_tildecomb;
}
);
width = 690;
}
);
unicode = 7876;
},
{
glyphname = Edblgrave;
kernLeft = E;
kernRight = E;
lastChange = "2023-02-02 16:56:08 +0000";
layers = (
{
background = {
anchors = (
{
name = bottom;
pos = (279,0);
},
{
name = ogonek;
pos = (544,10);
},
{
name = top;
pos = (453,754);
},
{
name = topleft;
pos = (142,754);
}
);
shapes = (
{
closed = 1;
nodes = (
(172,0,l),
(340,754,l),
(223,754,l),
(59,0,l)
);
},
{
closed = 1;
nodes = (
(553,0,l),
(613,232,l),
(583,232,l),
(507,64,o),
(445,25,o),
(356,25,cs),
(-37,25,l),
(-37,0,l)
);
},
{
closed = 1;
nodes = (
(422,226,l),
(481,534,l),
(456,534,l),
(425,430,o),
(390,403,o),
(310,403,cs),
(207,403,l),
(207,378,l),
(294,378,ls),
(377,378,o),
(392,351,o),
(392,226,c)
);
},
{
closed = 1;
nodes = (
(645,553,l),
(673,754,l),
(114,754,l),
(114,729,l),
(444,729,ls),
(586,729,o),
(615,692,o),
(615,553,c)
);
},
{
closed = 1;
nodes = (
(625,784,l),
(486,888,ls),
(449,916,o),
(437,924,o),
(420,924,cs),
(388,924,o),
(366,899,o),
(366,871,cs),
(366,850,o),
(379,835,o),
(406,828,cs),
(572,784,l)
);
},
{
closed = 1;
nodes = (
(421,784,l),
(282,888,ls),
(245,916,o),
(233,924,o),
(216,924,cs),
(184,924,o),
(162,899,o),
(162,871,cs),
(162,850,o),
(175,835,o),
(202,828,cs),
(368,784,l)
);
}
);
};
layerId = "426C3F01-D24D-4224-A47E-56DA036E4742";
shapes = (
{
ref = E;
},
{
pos = (42,0);
ref = dblgravecomb.case;
}
);
width = 662;
},
{
background = {
anchors = (
{
name = bottom;
pos = (293,0);
},
{
name = ogonek;
pos = (569,10);
},
{
name = top;
pos = (467,754);
},
{
name = topleft;
pos = (142,754);
}
);
shapes = (
{
closed = 1;
nodes = (
(226,0,l),
(394,754,l),
(243,754,l),
(79,0,l)
);
},
{
closed = 1;
nodes = (
(597,0,l),
(657,232,l),
(617,232,l),
(541,68,o),
(479,30,o),
(390,30,cs),
(-13,30,l),
(-13,0,l)
);
},
{
closed = 1;
nodes = (
(478,227,l),
(543,535,l),
(508,535,l),
(478,441,o),
(429,404,o),
(362,404,cs),
(259,404,l),
(259,374,l),
(346,374,ls),
(406,374,o),
(444,348,o),
(444,227,c)
);
},
{
closed = 1;
nodes = (
(689,548,l),
(725,754,l),
(128,754,l),
(128,724,l),
(488,724,ls),
(612,724,o),
(649,687,o),
(649,548,c)
);
},
{
closed = 1;
nodes = (
(683,794,l),
(552,895,ls),
(520,919,o),
(498,924,o),
(472,924,cs),
(439,924,o),
(420,902,o),
(420,879,cs),
(420,859,o),
(435,838,o),
(469,830,cs),
(620,794,l)
);
},
{
closed = 1;
nodes = (
(452,794,l),
(321,895,ls),
(289,919,o),
(267,924,o),
(241,924,cs),
(208,924,o),
(189,902,o),
(189,879,cs),
(189,859,o),
(204,838,o),
(238,830,cs),
(389,794,l)
);
}
);
};
layerId = "DD3DBCA6-CF88-4DA3-ACF4-A2FFC969FFEC";
shapes = (
{
ref = E;
},
{
pos = (35,12);
ref = dblgravecomb.case;
}
);
width = 690;
}
);
unicode = 516;
},
{
glyphname = Edieresis;
kernLeft = E;
kernRight = E;
lastChange = "2023-02-02 16:56:08 +0000";
layers = (
{
background = {
anchors = (
{
name = bottom;
pos = (279,0);
},
{
name = ogonek;
pos = (544,10);
},
{
name = top;
pos = (453,754);
},
{
name = topleft;
pos = (142,754);
}
);
shapes = (
{
closed = 1;
nodes = (
(172,0,l),
(340,754,l),
(223,754,l),
(59,0,l)
);
},
{
closed = 1;
nodes = (
(553,0,l),
(613,232,l),
(583,232,l),
(507,64,o),
(445,25,o),
(356,25,cs),
(-37,25,l),
(-37,0,l)
);
},
{
closed = 1;
nodes = (
(422,226,l),
(481,534,l),
(456,534,l),
(425,430,o),
(390,403,o),
(310,403,cs),
(207,403,l),
(207,378,l),
(294,378,ls),
(377,378,o),
(392,351,o),
(392,226,c)
);
},
{
closed = 1;
nodes = (
(645,553,l),
(673,754,l),
(114,754,l),
(114,729,l),
(444,729,ls),
(586,729,o),
(615,692,o),
(615,553,c)
);
},
{
closed = 1;
nodes = (
(569,814,o),
(594,838,o),
(594,869,cs),
(594,899,o),
(569,924,o),
(539,924,cs),
(508,924,o),
(484,899,o),
(484,869,cs),
(484,838,o),
(508,814,o),
(539,814,cs)
);
},
{
closed = 1;
nodes = (
(379,814,o),
(404,838,o),
(404,869,cs),
(404,899,o),
(379,924,o),
(349,924,cs),
(318,924,o),
(294,899,o),
(294,869,cs),
(294,838,o),
(318,814,o),
(349,814,cs)
);
}
);
};
layerId = "426C3F01-D24D-4224-A47E-56DA036E4742";
shapes = (
{
ref = E;
},
{
pos = (121,0);
ref = dieresiscomb.case;
}
);
width = 662;
},
{
background = {
anchors = (
{
name = bottom;
pos = (293,0);
},
{
name = ogonek;
pos = (569,10);
},
{
name = top;
pos = (467,754);
},
{
name = topleft;
pos = (142,754);
}
);
shapes = (
{
closed = 1;
nodes = (
(226,0,l),
(394,754,l),
(243,754,l),
(79,0,l)
);
},
{
closed = 1;
nodes = (
(597,0,l),
(657,232,l),
(617,232,l),
(541,68,o),
(479,30,o),
(390,30,cs),
(-13,30,l),
(-13,0,l)
);
},
{
closed = 1;
nodes = (
(478,227,l),
(543,535,l),
(508,535,l),
(478,441,o),
(429,404,o),
(362,404,cs),
(259,404,l),
(259,374,l),
(346,374,ls),
(406,374,o),
(444,348,o),
(444,227,c)
);
},
{
closed = 1;
nodes = (
(689,548,l),
(725,754,l),
(128,754,l),
(128,724,l),
(488,724,ls),
(612,724,o),
(649,687,o),
(649,548,c)
);
},
{
closed = 1;
nodes = (
(608,797,o),
(637,825,o),
(637,860,cs),
(637,895,o),
(608,923,o),
(573,923,cs),
(539,923,o),
(510,895,o),
(510,860,cs),
(510,825,o),
(539,797,o),
(573,797,cs)
);
},
{
closed = 1;
nodes = (
(425,797,o),
(454,825,o),
(454,860,cs),
(454,895,o),
(425,923,o),
(391,923,cs),
(356,923,o),
(327,895,o),
(327,860,cs),
(327,825,o),
(356,797,o),
(391,797,cs)
);
}
);
};
layerId = "DD3DBCA6-CF88-4DA3-ACF4-A2FFC969FFEC";
shapes = (
{
ref = E;
},
{
pos = (167,11);
ref = dieresiscomb.case;
}
);
width = 690;
}
);
unicode = 203;
},
{
glyphname = Edotaccent;
kernLeft = E;
kernRight = E;
lastChange = "2023-02-02 16:56:08 +0000";
layers = (
{
background = {
anchors = (
{
name = bottom;
pos = (279,0);
},
{
name = ogonek;
pos = (544,10);
},
{
name = top;
pos = (453,754);
},
{
name = topleft;
pos = (142,754);
}
);
shapes = (
{
closed = 1;
nodes = (
(172,0,l),
(340,754,l),
(223,754,l),
(59,0,l)
);
},
{
closed = 1;
nodes = (
(553,0,l),
(613,232,l),
(583,232,l),
(507,64,o),
(445,25,o),
(356,25,cs),
(-37,25,l),
(-37,0,l)
);
},
{
closed = 1;
nodes = (
(422,226,l),
(481,534,l),
(456,534,l),
(425,430,o),
(390,403,o),
(310,403,cs),
(207,403,l),
(207,378,l),
(294,378,ls),
(377,378,o),
(392,351,o),
(392,226,c)
);
},
{
closed = 1;
nodes = (
(645,553,l),
(673,754,l),
(114,754,l),
(114,729,l),
(444,729,ls),
(586,729,o),
(615,692,o),
(615,553,c)
);
},
{
closed = 1;
nodes = (
(502,789,o),
(532,818,o),
(532,856,cs),
(532,894,o),
(502,924,o),
(464,924,cs),
(426,924,o),
(397,894,o),
(397,856,cs),
(397,818,o),
(426,789,o),
(464,789,cs)
);
}
);
};
layerId = "426C3F01-D24D-4224-A47E-56DA036E4742";
shapes = (
{
ref = E;
},
{
pos = (204,0);
ref = dotaccentcomb.case;
}
);
width = 662;
},
{
background = {
anchors = (
{
name = bottom;
pos = (293,0);
},
{
name = ogonek;
pos = (569,10);
},
{
name = top;
pos = (467,754);
},
{
name = topleft;
pos = (142,754);
}
);
shapes = (
{
closed = 1;
nodes = (
(226,0,l),
(394,754,l),
(243,754,l),
(79,0,l)
);
},
{
closed = 1;
nodes = (
(597,0,l),
(657,232,l),
(617,232,l),
(541,68,o),
(479,30,o),
(390,30,cs),
(-13,30,l),
(-13,0,l)
);
},
{
closed = 1;
nodes = (
(478,227,l),
(543,535,l),
(508,535,l),
(478,441,o),
(429,404,o),
(362,404,cs),
(259,404,l),
(259,374,l),
(346,374,ls),
(406,374,o),
(444,348,o),
(444,227,c)
);
},
{
closed = 1;
nodes = (
(689,548,l),
(725,754,l),
(128,754,l),
(128,724,l),
(488,724,ls),
(612,724,o),
(649,687,o),
(649,548,c)
);
},
{
closed = 1;
nodes = (
(493,793,o),
(524,823,o),
(524,858,cs),
(524,893,o),
(493,924,o),
(458,924,cs),
(423,924,o),
(393,893,o),
(393,858,cs),
(393,823,o),
(423,793,o),
(458,793,cs)
);
}
);
};
layerId = "DD3DBCA6-CF88-4DA3-ACF4-A2FFC969FFEC";
shapes = (
{
ref = E;
},
{
pos = (228,15);
ref = dotaccentcomb.case;
}
);
width = 690;
}
);
unicode = 278;
},
{
glyphname = Edotbelow;
kernLeft = E;
kernRight = E;
lastChange = "2023-02-02 16:56:08 +0000";
layers = (
{
background = {
anchors = (
{
name = bottom;
pos = (232,-203);
},
{
name = ogonek;
pos = (544,10);
},
{
name = top;
pos = (453,754);
},
{
name = topleft;
pos = (142,754);
}
);
shapes = (
{
closed = 1;
nodes = (
(172,0,l),
(340,754,l),
(223,754,l),
(59,0,l)
);
},
{
closed = 1;
nodes = (
(553,0,l),
(613,232,l),
(583,232,l),
(507,64,o),
(445,25,o),
(356,25,cs),
(-37,25,l),
(-37,0,l)
);
},
{
closed = 1;
nodes = (
(422,226,l),
(481,534,l),
(456,534,l),
(425,430,o),
(390,403,o),
(310,403,cs),
(207,403,l),
(207,378,l),
(294,378,ls),
(377,378,o),
(392,351,o),
(392,226,c)
);
},
{
closed = 1;
nodes = (
(645,553,l),
(673,754,l),
(114,754,l),
(114,729,l),
(444,729,ls),
(586,729,o),
(615,692,o),
(615,553,c)
);
},
{
closed = 1;
nodes = (
(285,-203,o),
(315,-174,o),
(315,-136,cs),
(315,-98,o),
(285,-68,o),
(247,-68,cs),
(209,-68,o),
(180,-98,o),
(180,-136,cs),
(180,-174,o),
(209,-203,o),
(247,-203,cs)
);
}
);
};
layerId = "426C3F01-D24D-4224-A47E-56DA036E4742";
shapes = (
{
ref = E;
},
{
pos = (38,0);
ref = dotbelowcomb;
}
);
width = 662;
},
{
background = {
anchors = (
{
name = bottom;
pos = (239,-233);
},
{
name = ogonek;
pos = (569,10);
},
{
name = top;
pos = (467,754);
},
{
name = topleft;
pos = (142,754);
}
);
shapes = (
{
closed = 1;
nodes = (
(226,0,l),
(394,754,l),
(243,754,l),
(79,0,l)
);
},
{
closed = 1;
nodes = (
(597,0,l),
(657,232,l),
(617,232,l),
(541,68,o),
(479,30,o),
(390,30,cs),
(-13,30,l),
(-13,0,l)
);
},
{
closed = 1;
nodes = (
(478,227,l),
(543,535,l),
(508,535,l),
(478,441,o),
(429,404,o),
(362,404,cs),
(259,404,l),
(259,374,l),
(346,374,ls),
(406,374,o),
(444,348,o),
(444,227,c)
);
},
{
closed = 1;
nodes = (
(689,548,l),
(725,754,l),
(128,754,l),
(128,724,l),
(488,724,ls),
(612,724,o),
(649,687,o),
(649,548,c)
);
},
{
closed = 1;
nodes = (
(301,-233,o),
(338,-196,o),
(338,-153,cs),
(338,-109,o),
(301,-72,o),
(257,-72,cs),
(214,-72,o),
(177,-109,o),
(177,-153,cs),
(177,-196,o),
(214,-233,o),
(257,-233,cs)
);
}
);
};
layerId = "DD3DBCA6-CF88-4DA3-ACF4-A2FFC969FFEC";
shapes = (
{
ref = E;
},
{
pos = (43,0);
ref = dotbelowcomb;
}
);
width = 690;
}
);
unicode = 7864;
},
{
glyphname = Egrave;
kernLeft = E;
kernRight = E;
lastChange = "2023-02-02 16:56:08 +0000";
layers = (
{
background = {
anchors = (
{
name = bottom;
pos = (279,0);
},
{
name = ogonek;
pos = (544,10);
},
{
name = top;
pos = (508,992);
},
{
name = topleft;
pos = (142,754);
}
);
shapes = (
{
closed = 1;
nodes = (
(172,0,l),
(340,754,l),
(223,754,l),
(59,0,l)
);
},
{
closed = 1;
nodes = (
(553,0,l),
(613,232,l),
(583,232,l),
(507,64,o),
(445,25,o),
(356,25,cs),
(-37,25,l),
(-37,0,l)
);
},
{
closed = 1;
nodes = (
(422,226,l),
(481,534,l),
(456,534,l),
(425,430,o),
(390,403,o),
(310,403,cs),
(207,403,l),
(207,378,l),
(294,378,ls),
(377,378,o),
(392,351,o),
(392,226,c)
);
},
{
closed = 1;
nodes = (
(645,553,l),
(673,754,l),
(114,754,l),
(114,729,l),
(444,729,ls),
(586,729,o),
(615,692,o),
(615,553,c)
);
},
{
closed = 1;
nodes = (
(572,852,l),
(433,956,ls),
(396,984,o),
(384,992,o),
(367,992,cs),
(335,992,o),
(313,967,o),
(313,939,cs),
(313,918,o),
(326,903,o),
(353,896,cs),
(519,852,l)
);
}
);
};
layerId = "426C3F01-D24D-4224-A47E-56DA036E4742";
shapes = (
{
ref = E;
},
{
pos = (143,65);
ref = gravecomb.case;
}
);
width = 662;
},
{
background = {
anchors = (
{
name = bottom;
pos = (293,0);
},
{
name = ogonek;
pos = (569,10);
},
{
name = top;
pos = (522,995);
},
{
name = topleft;
pos = (142,754);
}
);
shapes = (
{
closed = 1;
nodes = (
(226,0,l),
(394,754,l),
(243,754,l),
(79,0,l)
);
},
{
closed = 1;
nodes = (
(597,0,l),
(657,232,l),
(617,232,l),
(541,68,o),
(479,30,o),
(390,30,cs),
(-13,30,l),
(-13,0,l)
);
},
{
closed = 1;
nodes = (
(478,227,l),
(543,535,l),
(508,535,l),
(478,441,o),
(429,404,o),
(362,404,cs),
(259,404,l),
(259,374,l),
(346,374,ls),
(406,374,o),
(444,348,o),
(444,227,c)
);
},
{
closed = 1;
nodes = (
(689,548,l),
(725,754,l),
(128,754,l),
(128,724,l),
(488,724,ls),
(612,724,o),
(649,687,o),
(649,548,c)
);
},
{
closed = 1;
nodes = (
(666,854,l),
(490,963,ls),
(452,986,o),
(432,995,o),
(404,995,cs),
(367,995,o),
(346,971,o),
(346,946,cs),
(346,924,o),
(362,900,o),
(399,893,cs),
(597,854,l)
);
}
);
};
layerId = "DD3DBCA6-CF88-4DA3-ACF4-A2FFC969FFEC";
shapes = (
{
ref = E;
},
{
pos = (175,33);
ref = gravecomb.case;
}
);
width = 690;
}
);
unicode = 200;
},
{
glyphname = Ehookabove;
kernLeft = E;
kernRight = E;
lastChange = "2023-02-02 16:56:08 +0000";
layers = (
{
background = {
anchors = (
{
name = bottom;
pos = (279,0);
},
{
name = ogonek;
pos = (544,10);
},
{
name = top;
pos = (507,987);
},
{
name = topleft;
pos = (142,754);
}
);
shapes = (
{
closed = 1;
nodes = (
(172,0,l),
(340,754,l),
(223,754,l),
(59,0,l)
);
},
{
closed = 1;
nodes = (
(553,0,l),
(613,232,l),
(583,232,l),
(507,64,o),
(445,25,o),
(356,25,cs),
(-37,25,l),
(-37,0,l)
);
},
{
closed = 1;
nodes = (
(422,226,l),
(481,534,l),
(456,534,l),
(425,430,o),
(390,403,o),
(310,403,cs),
(207,403,l),
(207,378,l),
(294,378,ls),
(377,378,o),
(392,351,o),
(392,226,c)
);
},
{
closed = 1;
nodes = (
(645,553,l),
(673,754,l),
(114,754,l),
(114,729,l),
(444,729,ls),
(586,729,o),
(615,692,o),
(615,553,c)
);
},
{
closed = 1;
nodes = (
(500,828,l),
(517,854,o),
(577,864,o),
(584,904,cs),
(595,961,o),
(560,987,o),
(500,987,cs),
(456,987,o),
(403,966,o),
(392,907,cs),
(388,887,o),
(401,872,o),
(424,872,cs),
(445,872,o),
(458,880,o),
(460,894,cs),
(464,912,o),
(450,910,o),
(453,922,cs),
(456,937,o),
(474,947,o),
(494,947,cs),
(515,947,o),
(532,940,o),
(525,902,cs),
(520,878,o),
(480,864,o),
(473,828,c)
);
}
);
};
layerId = "426C3F01-D24D-4224-A47E-56DA036E4742";
shapes = (
{
ref = E;
},
{
pos = (96,304);
ref = hookabovecomb;
}
);
width = 662;
},
{
background = {
anchors = (
{
name = bottom;
pos = (293,0);
},
{
name = ogonek;
pos = (569,10);
},
{
name = top;
pos = (525,1004);
},
{
name = topleft;
pos = (142,754);
}
);
shapes = (
{
closed = 1;
nodes = (
(226,0,l),
(394,754,l),
(243,754,l),
(79,0,l)
);
},
{
closed = 1;
nodes = (
(597,0,l),
(657,232,l),
(617,232,l),
(541,68,o),
(479,30,o),
(390,30,cs),
(-13,30,l),
(-13,0,l)
);
},
{
closed = 1;
nodes = (
(478,227,l),
(543,535,l),
(508,535,l),
(478,441,o),
(429,404,o),
(362,404,cs),
(259,404,l),
(259,374,l),
(346,374,ls),
(406,374,o),
(444,348,o),
(444,227,c)
);
},
{
closed = 1;
nodes = (
(689,548,l),
(725,754,l),
(128,754,l),
(128,724,l),
(488,724,ls),
(612,724,o),
(649,687,o),
(649,548,c)
);
},
{
closed = 1;
nodes = (
(516,811,l),
(526,861,o),
(596,842,o),
(608,904,cs),
(622,975,o),
(593,1004,o),
(520,1004,cs),
(460,1004,o),
(408,977,o),
(395,912,cs),
(389,882,o),
(405,863,o),
(429,863,cs),
(446,863,o),
(470,870,o),
(473,889,cs),
(477,917,o),
(457,905,o),
(460,929,cs),
(462,943,o),
(483,961,o),
(511,961,cs),
(540,961,o),
(555,945,o),
(548,913,cs),
(543,889,o),
(491,881,o),
(477,811,c)
);
}
);
};
layerId = "DD3DBCA6-CF88-4DA3-ACF4-A2FFC969FFEC";
shapes = (
{
ref = E;
},
{
pos = (135,304);
ref = hookabovecomb;
}
);
width = 690;
}
);
unicode = 7866;
},
{
glyphname = Einvertedbreve;
kernLeft = E;
kernRight = E;
lastChange = "2023-02-02 16:56:08 +0000";
layers = (
{
background = {
anchors = (
{
name = bottom;
pos = (279,0);
},
{
name = ogonek;
pos = (544,10);
},
{
name = top;
pos = (453,754);
},
{
name = topleft;
pos = (142,754);
}
);
shapes = (
{
closed = 1;
nodes = (
(172,0,l),
(340,754,l),
(223,754,l),
(59,0,l)
);
},
{
closed = 1;
nodes = (
(553,0,l),
(613,232,l),
(583,232,l),
(507,64,o),
(445,25,o),
(356,25,cs),
(-37,25,l),
(-37,0,l)
);
},
{
closed = 1;
nodes = (
(422,226,l),
(481,534,l),
(456,534,l),
(425,430,o),
(390,403,o),
(310,403,cs),
(207,403,l),
(207,378,l),
(294,378,ls),
(377,378,o),
(392,351,o),
(392,226,c)
);
},
{
closed = 1;
nodes = (
(645,553,l),
(673,754,l),
(114,754,l),
(114,729,l),
(444,729,ls),
(586,729,o),
(615,692,o),
(615,553,c)
);
},
{
closed = 1;
nodes = (
(309,787,l),
(322,831,o),
(372,851,o),
(452,851,cs),
(517,851,o),
(554,838,o),
(554,787,c),
(588,787,l),
(591,799,o),
(592,809,o),
(592,818,cs),
(592,877,o),
(541,924,o),
(455,924,cs),
(358,924,o),
(290,864,o),
(275,787,c)
);
}
);
};
layerId = "426C3F01-D24D-4224-A47E-56DA036E4742";
shapes = (
{
ref = E;
},
{
pos = (114,0);
ref = breveinvertedcomb.case;
}
);
width = 662;
},
{
background = {
anchors = (
{
name = bottom;
pos = (293,0);
},
{
name = ogonek;
pos = (569,10);
},
{
name = top;
pos = (467,754);
},
{
name = topleft;
pos = (142,754);
}
);
shapes = (
{
closed = 1;
nodes = (
(226,0,l),
(394,754,l),
(243,754,l),
(79,0,l)
);
},
{
closed = 1;
nodes = (
(597,0,l),
(657,232,l),
(617,232,l),
(541,68,o),
(479,30,o),
(390,30,cs),
(-13,30,l),
(-13,0,l)
);
},
{
closed = 1;
nodes = (
(478,227,l),
(543,535,l),
(508,535,l),
(478,441,o),
(429,404,o),
(362,404,cs),
(259,404,l),
(259,374,l),
(346,374,ls),
(406,374,o),
(444,348,o),
(444,227,c)
);
},
{
closed = 1;
nodes = (
(689,548,l),
(725,754,l),
(128,754,l),
(128,724,l),
(488,724,ls),
(612,724,o),
(649,687,o),
(649,548,c)
);
},
{
closed = 1;
nodes = (
(357,780,l),
(368,828,o),
(417,849,o),
(480,849,cs),
(539,849,o),
(585,828,o),
(573,780,c),
(612,780,l),
(616,797,o),
(618,811,o),
(618,824,cs),
(618,894,o),
(571,924,o),
(495,924,cs),
(401,924,o),
(336,871,o),
(318,780,c)
);
}
);
};
layerId = "DD3DBCA6-CF88-4DA3-ACF4-A2FFC969FFEC";
shapes = (
{
ref = E;
},
{
pos = (149,0);
ref = breveinvertedcomb.case;
}
);
width = 690;
}
);
unicode = 518;
},
{
glyphname = Emacron;
kernLeft = E;
kernRight = E;
lastChange = "2023-02-02 16:56:08 +0000";
layers = (
{
background = {
anchors = (
{
name = bottom;
pos = (279,0);
},
{
name = ogonek;
pos = (544,10);
},
{
name = top;
pos = (453,754);
},
{
name = topleft;
pos = (142,754);
}
);
shapes = (
{
closed = 1;
nodes = (
(172,0,l),
(340,754,l),
(223,754,l),
(59,0,l)
);
},
{
closed = 1;
nodes = (
(553,0,l),
(613,232,l),
(583,232,l),
(507,64,o),
(445,25,o),
(356,25,cs),
(-37,25,l),
(-37,0,l)
);
},
{
closed = 1;
nodes = (
(422,226,l),
(481,534,l),
(456,534,l),
(425,430,o),
(390,403,o),
(310,403,cs),
(207,403,l),
(207,378,l),
(294,378,ls),
(377,378,o),
(392,351,o),
(392,226,c)
);
},
{
closed = 1;
nodes = (
(645,553,l),
(673,754,l),
(114,754,l),
(114,729,l),
(444,729,ls),
(586,729,o),
(615,692,o),
(615,553,c)
);
},
{
closed = 1;
nodes = (
(610,858,l),
(625,924,l),
(305,924,l),
(290,858,l)
);
}
);
};
layerId = "426C3F01-D24D-4224-A47E-56DA036E4742";
shapes = (
{
ref = E;
},
{
pos = (104,0);
ref = macroncomb.case;
}
);
width = 662;
},
{
background = {
anchors = (
{
name = bottom;
pos = (293,0);
},
{
name = ogonek;
pos = (569,10);
},
{
name = top;
pos = (467,754);
},
{
name = topleft;
pos = (142,754);
}
);
shapes = (
{
closed = 1;
nodes = (
(226,0,l),
(394,754,l),
(243,754,l),
(79,0,l)
);
},
{
closed = 1;
nodes = (
(597,0,l),
(657,232,l),
(617,232,l),
(541,68,o),
(479,30,o),
(390,30,cs),
(-13,30,l),
(-13,0,l)
);
},
{
closed = 1;
nodes = (
(478,227,l),
(543,535,l),
(508,535,l),
(478,441,o),
(429,404,o),
(362,404,cs),
(259,404,l),
(259,374,l),
(346,374,ls),
(406,374,o),
(444,348,o),
(444,227,c)
);
},
{
closed = 1;
nodes = (
(689,548,l),
(725,754,l),
(128,754,l),
(128,724,l),
(488,724,ls),
(612,724,o),
(649,687,o),
(649,548,c)
);
},
{
closed = 1;
nodes = (
(649,837,l),
(668,923,l),
(328,923,l),
(309,837,l)
);
}
);
};
layerId = "DD3DBCA6-CF88-4DA3-ACF4-A2FFC969FFEC";
shapes = (
{
ref = E;
},
{
pos = (150,0);
ref = macroncomb.case;
}
);
width = 690;
}
);
unicode = 274;
},
{
glyphname = Eogonek;
kernLeft = E;
kernRight = E;
lastChange = "2023-02-02 16:56:08 +0000";
layers = (
{
background = {
anchors = (
{
name = bottom;
pos = (279,0);
},
{
name = ogonek;
pos = (544,10);
},
{
name = top;
pos = (453,754);
},
{
name = topleft;
pos = (142,754);
}
);
shapes = (
{
closed = 1;
nodes = (
(172,0,l),
(340,754,l),
(223,754,l),
(59,0,l)
);
},
{
closed = 1;
nodes = (
(553,0,l),
(613,232,l),
(583,232,l),
(507,64,o),
(445,25,o),
(356,25,cs),
(-37,25,l),
(-37,0,l)
);
},
{
closed = 1;
nodes = (
(422,226,l),
(481,534,l),
(456,534,l),
(425,430,o),
(390,403,o),
(310,403,cs),
(207,403,l),
(207,378,l),
(294,378,ls),
(377,378,o),
(392,351,o),
(392,226,c)
);
},
{
closed = 1;
nodes = (
(645,553,l),
(673,754,l),
(114,754,l),
(114,729,l),
(444,729,ls),
(586,729,o),
(615,692,o),
(615,553,c)
);
},
{
closed = 1;
nodes = (
(375,-232,o),
(420,-213,o),
(447,-186,c),
(435,-170,l),
(411,-185,o),
(394,-191,o),
(378,-191,cs),
(354,-191,o),
(340,-177,o),
(340,-151,cs),
(340,-102,o),
(391,-43,o),
(480,12,c),
(444,18,l),
(331,-41,o),
(257,-116,o),
(257,-172,cs),
(257,-208,o),
(288,-232,o),
(334,-232,cs),
(334,-232,ls)
);
}
);
};
layerId = "426C3F01-D24D-4224-A47E-56DA036E4742";
shapes = (
{
ref = E;
},
{
pos = (366,0);
ref = ogonekcomb;
}
);
width = 662;
},
{
background = {
anchors = (
{
name = bottom;
pos = (293,0);
},
{
name = ogonek;
pos = (569,10);
},
{
name = top;
pos = (467,754);
},
{
name = topleft;
pos = (142,754);
}
);
shapes = (
{
closed = 1;
nodes = (
(226,0,l),
(394,754,l),
(243,754,l),
(79,0,l)
);
},
{
closed = 1;
nodes = (
(597,0,l),
(657,232,l),
(617,232,l),
(541,68,o),
(479,30,o),
(390,30,cs),
(-13,30,l),
(-13,0,l)
);
},
{
closed = 1;
nodes = (
(478,227,l),
(543,535,l),
(508,535,l),
(478,441,o),
(429,404,o),
(362,404,cs),
(259,404,l),
(259,374,l),
(346,374,ls),
(406,374,o),
(444,348,o),
(444,227,c)
);
},
{
closed = 1;
nodes = (
(689,548,l),
(725,754,l),
(128,754,l),
(128,724,l),
(488,724,ls),
(612,724,o),
(649,687,o),
(649,548,c)
);
},
{
closed = 1;
nodes = (
(440,-237,o),
(504,-214,o),
(532,-186,c),
(517,-155,l),
(484,-170,o),
(460,-176,o),
(441,-176,cs),
(411,-176,o),
(392,-161,o),
(392,-136,cs),
(392,-91,o),
(449,-33,o),
(535,12,c),
(489,12,l),
(356,-57,o),
(299,-111,o),
(299,-168,cs),
(299,-211,o),
(332,-237,o),
(388,-237,cs),
(388,-237,ls)
);
}
);
};
layerId = "DD3DBCA6-CF88-4DA3-ACF4-A2FFC969FFEC";
shapes = (
{
ref = E;
},
{
pos = (390,0);
ref = ogonekcomb;
}
);
width = 690;
}
);
unicode = 280;
},
{
glyphname = Etilde;
kernLeft = E;
kernRight = E;
lastChange = "2023-02-02 16:56:08 +0000";
layers = (
{
background = {
anchors = (
{
name = bottom;
pos = (279,0);
},
{
name = ogonek;
pos = (544,10);
},
{
name = top;
pos = (505,979);
},
{
name = topleft;
pos = (142,754);
}
);
shapes = (
{
closed = 1;
nodes = (
(172,0,l),
(340,754,l),
(223,754,l),
(59,0,l)
);
},
{
closed = 1;
nodes = (
(553,0,l),
(613,232,l),
(583,232,l),
(507,64,o),
(445,25,o),
(356,25,cs),
(-37,25,l),
(-37,0,l)
);
},
{
closed = 1;
nodes = (
(422,226,l),
(481,534,l),
(456,534,l),
(425,430,o),
(390,403,o),
(310,403,cs),
(207,403,l),
(207,378,l),
(294,378,ls),
(377,378,o),
(392,351,o),
(392,226,c)
);
},
{
closed = 1;
nodes = (
(645,553,l),
(673,754,l),
(114,754,l),
(114,729,l),
(444,729,ls),
(586,729,o),
(615,692,o),
(615,553,c)
);
},
{
closed = 1;
nodes = (
(338,851,l),
(351,879,o),
(378,900,o),
(411,900,cs),
(459,900,o),
(479,852,o),
(541,852,cs),
(597,852,o),
(648,892,o),
(674,979,c),
(640,979,l),
(627,956,o),
(602,928,o),
(566,928,cs),
(519,928,o),
(495,976,o),
(438,976,cs),
(378,976,o),
(326,923,o),
(306,851,c)
);
}
);
};
layerId = "426C3F01-D24D-4224-A47E-56DA036E4742";
shapes = (
{
ref = E;
},
{
pos = (96,52);
ref = tildecomb.case;
}
);
width = 662;
},
{
background = {
anchors = (
{
name = bottom;
pos = (293,0);
},
{
name = ogonek;
pos = (569,10);
},
{
name = top;
pos = (520,984);
},
{
name = topleft;
pos = (142,754);
}
);
shapes = (
{
closed = 1;
nodes = (
(226,0,l),
(394,754,l),
(243,754,l),
(79,0,l)
);
},
{
closed = 1;
nodes = (
(597,0,l),
(657,232,l),
(617,232,l),
(541,68,o),
(479,30,o),
(390,30,cs),
(-13,30,l),
(-13,0,l)
);
},
{
closed = 1;
nodes = (
(478,227,l),
(543,535,l),
(508,535,l),
(478,441,o),
(429,404,o),
(362,404,cs),
(259,404,l),
(259,374,l),
(346,374,ls),
(406,374,o),
(444,348,o),
(444,227,c)
);
},
{
closed = 1;
nodes = (
(689,548,l),
(725,754,l),
(128,754,l),
(128,724,l),
(488,724,ls),
(612,724,o),
(649,687,o),
(649,548,c)
);
},
{
closed = 1;
nodes = (
(344,850,l),
(356,875,o),
(387,895,o),
(423,895,cs),
(476,895,o),
(492,851,o),
(555,851,cs),
(625,851,o),
(672,904,o),
(700,984,c),
(664,984,l),
(654,966,o),
(624,939,o),
(583,939,cs),
(532,939,o),
(516,983,o),
(453,983,cs),
(378,983,o),
(331,919,o),
(310,850,c)
);
}
);
};
layerId = "DD3DBCA6-CF88-4DA3-ACF4-A2FFC969FFEC";
shapes = (
{
ref = E;
},
{
pos = (151,60);
ref = tildecomb.case;
}
);
width = 690;
}
);
unicode = 7868;
},
{
glyphname = Schwa;
lastChange = "2023-02-02 16:56:08 +0000";
layers = (
{
background = {
shapes = (
{
closed = 1;
nodes = (
(529,-13,o),
(731,225,o),
(731,462,cs),
(731,619,o),
(642,763,o),
(473,763,cs),
(343,763,o),
(218,678,o),
(123,544,c),
(157,521,l),
(237,643,o),
(356,729,o),
(470,729,cs),
(560,729,o),
(600,675,o),
(600,538,cs),
(600,323,o),
(502,20,o),
(315,20,cs),
(249,20,o),
(211,57,o),
(211,157,cs),
(211,286,o),
(275,388,o),
(466,388,cs),
(508,388,o),
(551,383,o),
(592,371,c),
(595,408,l),
(574,413,o),
(473,426,o),
(400,426,cs),
(204,426,o),
(65,331,o),
(65,189,cs),
(65,61,o),
(177,-13,o),
(303,-13,cs)
);
}
);
};
layerId = "426C3F01-D24D-4224-A47E-56DA036E4742";
shapes = (
{
closed = 1;
nodes = (
(529,-13,o),
(731,225,o),
(731,462,cs),
(731,619,o),
(642,763,o),
(473,763,cs),
(343,763,o),
(218,678,o),
(123,544,c),
(157,521,l),
(237,643,o),
(356,729,o),
(470,729,cs),
(560,729,o),
(600,675,o),
(600,538,cs),
(600,323,o),
(502,20,o),
(315,20,cs),
(249,20,o),
(211,57,o),
(211,157,cs),
(211,286,o),
(275,388,o),
(466,388,cs),
(508,388,o),
(551,383,o),
(592,371,c),
(595,408,l),
(574,413,o),
(473,426,o),
(400,426,cs),
(204,426,o),
(65,331,o),
(65,189,cs),
(65,61,o),
(177,-13,o),
(303,-13,cs)
);
}
);
width = 729;
},
{
background = {
shapes = (
{
closed = 1;
nodes = (
(533,-11,o),
(745,223,o),
(745,453,cs),
(745,613,o),
(642,763,o),
(449,763,cs),
(301,763,o),
(179,675,o),
(101,532,c),
(142,500,l),
(235,654,o),
(327,697,o),
(437,697,cs),
(538,697,o),
(577,661,o),
(577,527,cs),
(577,306,o),
(472,23,o),
(307,23,cs),
(236,23,o),
(203,76,o),
(203,160,cs),
(203,282,o),
(274,380,o),
(441,380,cs),
(528,380,o),
(567,380,o),
(605,363,c),
(613,421,l),
(595,425,o),
(473,440,o),
(390,440,cs),
(156,440,o),
(34,318,o),
(34,191,cs),
(34,69,o),
(148,-11,o),
(290,-11,cs)
);
}
);
};
layerId = "DD3DBCA6-CF88-4DA3-ACF4-A2FFC969FFEC";
shapes = (
{
closed = 1;
nodes = (
(533,-11,o),
(745,223,o),
(745,453,cs),
(745,613,o),
(642,763,o),
(449,763,cs),
(301,763,o),
(179,675,o),
(101,532,c),
(142,500,l),
(235,654,o),
(327,697,o),
(437,697,cs),
(538,697,o),
(577,661,o),
(577,527,cs),
(577,306,o),
(472,23,o),
(307,23,cs),
(236,23,o),
(203,76,o),
(203,160,cs),
(203,282,o),
(274,380,o),
(441,380,cs),
(528,380,o),
(567,380,o),
(605,363,c),
(613,421,l),
(595,425,o),
(473,440,o),
(390,440,cs),
(156,440,o),
(34,318,o),
(34,191,cs),
(34,69,o),
(148,-11,o),
(290,-11,cs)
);
}
);
width = 749;
}
);
unicode = 399;
},
{
glyphname = F;
lastChange = "2023-02-02 16:56:08 +0000";
layers = (
{
anchors = (
{
name = bottom;
pos = (266,0);
},
{
name = top;
pos = (440,754);
}
);
background = {
anchors = (
{
name = bottom;
pos = (266,0);
},
{
name = top;
pos = (440,754);
}
);
shapes = (
{
closed = 1;
nodes = (
(211,0,l),
(379,754,l),
(262,754,l),
(98,0,l)
);
},
{
closed = 1;
nodes = (
(321,0,l),
(321,25,l),
(2,25,l),
(2,0,l)
);
},
{
closed = 1;
nodes = (
(450,224,l),
(506,528,l),
(481,528,l),
(450,428,o),
(415,401,o),
(338,401,cs),
(235,401,l),
(235,376,l),
(322,376,ls),
(405,376,o),
(420,349,o),
(420,224,c)
);
},
{
closed = 1;
nodes = (
(681,529,l),
(712,754,l),
(153,754,l),
(153,729,l),
(483,729,ls),
(622,729,o),
(651,692,o),
(651,529,c)
);
}
);
};
layerId = "426C3F01-D24D-4224-A47E-56DA036E4742";
shapes = (
{
closed = 1;
nodes = (
(211,0,l),
(379,754,l),
(262,754,l),
(98,0,l)
);
},
{
closed = 1;
nodes = (
(321,0,l),
(321,25,l),
(2,25,l),
(2,0,l)
);
},
{
closed = 1;
nodes = (
(450,224,l),
(506,528,l),
(481,528,l),
(450,428,o),
(415,401,o),
(338,401,cs),
(235,401,l),
(235,376,l),
(322,376,ls),
(405,376,o),
(420,349,o),
(420,224,c)
);
},
{
closed = 1;
nodes = (
(681,529,l),
(712,754,l),
(153,754,l),
(153,729,l),
(483,729,ls),
(622,729,o),
(651,692,o),
(651,529,c)
);
}
);
width = 635;
},
{
anchors = (
{
name = bottom;
pos = (278,0);
},
{
name = top;
pos = (452,754);
}
);
background = {
anchors = (
{
name = bottom;
pos = (278,0);
},
{
name = top;
pos = (452,754);
}
);
shapes = (
{
closed = 1;
nodes = (
(214,0,l),
(382,754,l),
(231,754,l),
(67,0,l)
);
},
{
closed = 1;
nodes = (
(349,0,l),
(349,31,l),
(-20,31,l),
(-20,0,l)
);
},
{
closed = 1;
nodes = (
(466,227,l),
(531,535,l),
(496,535,l),
(466,441,o),
(417,404,o),
(350,404,cs),
(247,404,l),
(247,374,l),
(334,374,ls),
(394,374,o),
(432,348,o),
(432,227,c)
);
},
{
closed = 1;
nodes = (
(677,548,l),
(713,754,l),
(116,754,l),
(116,724,l),
(476,724,ls),
(600,724,o),
(637,687,o),
(637,548,c)
);
}
);
};
layerId = "DD3DBCA6-CF88-4DA3-ACF4-A2FFC969FFEC";
shapes = (
{
closed = 1;
nodes = (
(214,0,l),
(382,754,l),
(231,754,l),
(67,0,l)
);
},
{
closed = 1;
nodes = (
(349,0,l),
(349,31,l),
(-20,31,l),
(-20,0,l)
);
},
{
closed = 1;
nodes = (
(466,227,l),
(531,535,l),
(496,535,l),
(466,441,o),
(417,404,o),
(350,404,cs),
(247,404,l),
(247,374,l),
(334,374,ls),
(394,374,o),
(432,348,o),
(432,227,c)
);
},
{
closed = 1;
nodes = (
(677,548,l),
(713,754,l),
(116,754,l),
(116,724,l),
(476,724,ls),
(600,724,o),
(637,687,o),
(637,548,c)
);
}
);
width = 659;
}
);
unicode = 70;
},
{
glyphname = G;
kernLeft = G;
kernRight = G;
lastChange = "2023-02-02 16:56:08 +0000";
layers = (
{
anchors = (
{
name = bottom;
pos = (323,0);
},
{
name = top;
pos = (497,754);
}
);
background = {
anchors = (
{
name = bottom;
pos = (323,0);
},
{
name = top;
pos = (497,754);
}
);
shapes = (
{
closed = 1;
nodes = (
(519,-13,o),
(652,69,o),
(702,256,c),
(547,256,l),
(515,76,o),
(469,19,o),
(363,19,cs),
(271,19,o),
(222,62,o),
(222,205,cs),
(222,390,o),
(304,736,o),
(505,736,cs),
(598,736,o),
(673,662,o),
(673,541,c),
(698,541,l),
(745,754,l),
(720,754,l),
(671,702,l),
(618,751,o),
(569,765,o),
(509,765,cs),
(259,765,o),
(84,519,o),
(84,314,cs),
(84,188,o),
(149,-13,o),
(375,-13,cs)
);
},
{
closed = 1;
nodes = (
(778,253,l),
(778,278,l),
(441,278,l),
(441,253,l)
);
}
);
};
layerId = "426C3F01-D24D-4224-A47E-56DA036E4742";
shapes = (
{
closed = 1;
nodes = (
(519,-13,o),
(652,69,o),
(702,256,c),
(547,256,l),
(515,76,o),
(469,19,o),
(363,19,cs),
(271,19,o),
(222,62,o),
(222,205,cs),
(222,390,o),
(304,736,o),
(505,736,cs),
(598,736,o),
(673,662,o),
(673,541,c),
(698,541,l),
(745,754,l),
(720,754,l),
(671,702,l),
(618,751,o),
(569,765,o),
(509,765,cs),
(259,765,o),
(84,519,o),
(84,314,cs),
(84,188,o),
(149,-13,o),
(375,-13,cs)
);
},
{
closed = 1;
nodes = (
(778,253,l),
(778,278,l),
(441,278,l),
(441,253,l)
);
}
);
width = 749;
},
{
anchors = (
{
name = bottom;
pos = (329,0);
},
{
name = top;
pos = (503,754);
}
);
background = {
anchors = (
{
name = bottom;
pos = (329,0);
},
{
name = top;
pos = (503,754);
}
);
shapes = (
{
closed = 1;
nodes = (
(559,-13,o),
(644,73,o),
(698,243,c),
(522,243,l),
(494,65,o),
(430,24,o),
(363,24,cs),
(290,24,o),
(248,73,o),
(248,207,cs),
(248,399,o),
(335,731,o),
(502,731,cs),
(585,731,o),
(651,650,o),
(651,521,c),
(681,521,l),
(728,754,l),
(693,754,l),
(649,707,l),
(607,748,o),
(565,765,o),
(509,765,cs),
(297,765,o),
(72,525,o),
(72,287,cs),
(72,134,o),
(165,-13,o),
(364,-13,cs)
);
},
{
closed = 1;
nodes = (
(773,237,l),
(773,267,l),
(423,267,l),
(423,237,l)
);
}
);
};
layerId = "DD3DBCA6-CF88-4DA3-ACF4-A2FFC969FFEC";
shapes = (
{
closed = 1;
nodes = (
(559,-13,o),
(644,73,o),
(698,243,c),
(522,243,l),
(494,65,o),
(430,24,o),
(363,24,cs),
(290,24,o),
(248,73,o),
(248,207,cs),
(248,399,o),
(335,731,o),
(502,731,cs),
(585,731,o),
(651,650,o),
(651,521,c),
(681,521,l),
(728,754,l),
(693,754,l),
(649,707,l),
(607,748,o),
(565,765,o),
(509,765,cs),
(297,765,o),
(72,525,o),
(72,287,cs),
(72,134,o),
(165,-13,o),
(364,-13,cs)
);
},
{
closed = 1;
nodes = (
(773,237,l),
(773,267,l),
(423,267,l),
(423,237,l)
);
}
);
width = 762;
}
);
unicode = 71;
},
{
glyphname = Gacute;
kernLeft = G;
kernRight = G;
lastChange = "2023-02-02 16:56:08 +0000";
layers = (
{
background = {
anchors = (
{
name = bottom;
pos = (323,0);
},
{
name = top;
pos = (497,754);
}
);
shapes = (
{
closed = 1;
nodes = (
(519,-13,o),
(652,69,o),
(702,256,c),
(547,256,l),
(515,76,o),
(469,19,o),
(363,19,cs),
(271,19,o),
(222,62,o),
(222,205,cs),
(222,390,o),
(304,736,o),
(505,736,cs),
(598,736,o),
(673,662,o),
(673,541,c),
(698,541,l),
(745,754,l),
(720,754,l),
(671,702,l),
(618,751,o),
(569,765,o),
(509,765,cs),
(259,765,o),
(84,519,o),
(84,314,cs),
(84,188,o),
(149,-13,o),
(375,-13,cs)
);
},
{
closed = 1;
nodes = (
(778,253,l),
(778,278,l),
(441,278,l),
(441,253,l)
);
},
{
closed = 1;
nodes = (
(457,784,l),
(631,823,ls),
(679,834,o),
(700,856,o),
(700,885,cs),
(700,910,o),
(685,924,o),
(662,924,cs),
(642,924,o),
(620,914,o),
(577,888,cs),
(405,784,l)
);
}
);
};
layerId = "426C3F01-D24D-4224-A47E-56DA036E4742";
shapes = (
{
ref = G;
},
{
pos = (198,63);
ref = acutecomb.case;
}
);
width = 749;
},
{
background = {
anchors = (
{
name = bottom;
pos = (329,0);
},
{
name = top;
pos = (503,754);
}
);
shapes = (
{
closed = 1;
nodes = (
(559,-13,o),
(644,73,o),
(698,243,c),
(522,243,l),
(494,65,o),
(430,24,o),
(363,24,cs),
(290,24,o),
(248,73,o),
(248,207,cs),
(248,399,o),
(335,731,o),
(502,731,cs),
(585,731,o),
(651,650,o),
(651,521,c),
(681,521,l),
(728,754,l),
(693,754,l),
(649,707,l),
(607,748,o),
(565,765,o),
(509,765,cs),
(297,765,o),
(72,525,o),
(72,287,cs),
(72,134,o),
(165,-13,o),
(364,-13,cs)
);
},
{
closed = 1;
nodes = (
(773,237,l),
(773,267,l),
(423,267,l),
(423,237,l)
);
},
{
closed = 1;
nodes = (
(459,783,l),
(657,822,ls),
(694,829,o),
(710,853,o),
(710,875,cs),
(710,900,o),
(689,924,o),
(652,924,cs),
(624,924,o),
(604,915,o),
(566,892,cs),
(390,783,l)
);
}
);
};
layerId = "DD3DBCA6-CF88-4DA3-ACF4-A2FFC969FFEC";
shapes = (
{
ref = G;
},
{
pos = (231,82);
ref = acutecomb.case;
}
);
width = 762;
}
);
unicode = 500;
},
{
glyphname = Gbreve;
kernLeft = G;
kernRight = G;
lastChange = "2023-02-02 16:56:08 +0000";
layers = (
{
background = {
anchors = (
{
name = bottom;
pos = (323,0);
},
{
name = top;
pos = (497,754);
}
);
shapes = (
{
closed = 1;
nodes = (
(519,-13,o),
(652,69,o),
(702,256,c),
(547,256,l),
(515,76,o),
(469,19,o),
(363,19,cs),
(271,19,o),
(222,62,o),
(222,205,cs),
(222,390,o),
(304,736,o),
(505,736,cs),
(598,736,o),
(673,662,o),
(673,541,c),
(698,541,l),
(745,754,l),
(720,754,l),
(671,702,l),
(618,751,o),
(569,765,o),
(509,765,cs),
(259,765,o),
(84,519,o),
(84,314,cs),
(84,188,o),
(149,-13,o),
(375,-13,cs)
);
},
{
closed = 1;
nodes = (
(778,253,l),
(778,278,l),
(441,278,l),
(441,253,l)
);
},
{
closed = 1;
nodes = (
(629,787,o),
(694,846,o),
(710,924,c),
(676,924,l),
(663,880,o),
(613,860,o),
(533,860,cs),
(468,860,o),
(431,873,o),
(431,924,c),
(397,924,l),
(377,842,o),
(430,787,o),
(526,787,cs)
);
}
);
};
layerId = "426C3F01-D24D-4224-A47E-56DA036E4742";
shapes = (
{
ref = G;
},
{
pos = (214,62);
ref = brevecomb.case;
}
);
width = 749;
},
{
background = {
anchors = (
{
name = bottom;
pos = (329,0);
},
{
name = top;
pos = (503,754);
}
);
shapes = (
{
closed = 1;
nodes = (
(559,-13,o),
(644,73,o),
(698,243,c),
(522,243,l),
(494,65,o),
(430,24,o),
(363,24,cs),
(290,24,o),
(248,73,o),
(248,207,cs),
(248,399,o),
(335,731,o),
(502,731,cs),
(585,731,o),
(651,650,o),
(651,521,c),
(681,521,l),
(728,754,l),
(693,754,l),
(649,707,l),
(607,748,o),
(565,765,o),
(509,765,cs),
(297,765,o),
(72,525,o),
(72,287,cs),
(72,134,o),
(165,-13,o),
(364,-13,cs)
);
},
{
closed = 1;
nodes = (
(773,237,l),
(773,267,l),
(423,267,l),
(423,237,l)
);
},
{
closed = 1;
nodes = (
(585,780,o),
(650,833,o),
(668,924,c),
(629,924,l),
(618,876,o),
(569,855,o),
(506,855,cs),
(447,855,o),
(401,876,o),
(413,924,c),
(374,924,l),
(352,830,o),
(394,780,o),
(491,780,cs)
);
}
);
};
layerId = "DD3DBCA6-CF88-4DA3-ACF4-A2FFC969FFEC";
shapes = (
{
ref = G;
},
{
pos = (205,71);
ref = brevecomb.case;
}
);
width = 762;
}
);
unicode = 286;
},
{
glyphname = Gcircumflex;
kernLeft = G;
kernRight = G;
lastChange = "2023-02-02 16:56:08 +0000";
layers = (
{
background = {
anchors = (
{
name = bottom;
pos = (323,0);
},
{
name = top;
pos = (497,754);
}
);
shapes = (
{
closed = 1;
nodes = (
(519,-13,o),
(652,69,o),
(702,256,c),
(547,256,l),
(515,76,o),
(469,19,o),
(363,19,cs),
(271,19,o),
(222,62,o),
(222,205,cs),
(222,390,o),
(304,736,o),
(505,736,cs),
(598,736,o),
(673,662,o),
(673,541,c),
(698,541,l),
(745,754,l),
(720,754,l),
(671,702,l),
(618,751,o),
(569,765,o),
(509,765,cs),
(259,765,o),
(84,519,o),
(84,314,cs),
(84,188,o),
(149,-13,o),
(375,-13,cs)
);
},
{
closed = 1;
nodes = (
(778,253,l),
(778,278,l),
(441,278,l),
(441,253,l)
);
},
{
closed = 1;
nodes = (
(410,784,l),
(542,845,l),
(648,784,l),
(691,784,l),
(589,924,l),
(527,924,l),
(368,784,l)
);
}
);
};
layerId = "426C3F01-D24D-4224-A47E-56DA036E4742";
shapes = (
{
ref = G;
},
{
pos = (210,20);
ref = circumflexcomb.case;
}
);
width = 749;
},
{
background = {
anchors = (
{
name = bottom;
pos = (329,0);
},
{
name = top;
pos = (503,754);
}
);
shapes = (
{
closed = 1;
nodes = (
(559,-13,o),
(644,73,o),
(698,243,c),
(522,243,l),
(494,65,o),
(430,24,o),
(363,24,cs),
(290,24,o),
(248,73,o),
(248,207,cs),
(248,399,o),
(335,731,o),
(502,731,cs),
(585,731,o),
(651,650,o),
(651,521,c),
(681,521,l),
(728,754,l),
(693,754,l),
(649,707,l),
(607,748,o),
(565,765,o),
(509,765,cs),
(297,765,o),
(72,525,o),
(72,287,cs),
(72,134,o),
(165,-13,o),
(364,-13,cs)
);
},
{
closed = 1;
nodes = (
(773,237,l),
(773,267,l),
(423,267,l),
(423,237,l)
);
},
{
closed = 1;
nodes = (
(366,792,l),
(508,837,l),
(630,792,l),
(677,792,l),
(554,924,l),
(498,924,l),
(320,792,l)
);
}
);
};
layerId = "DD3DBCA6-CF88-4DA3-ACF4-A2FFC969FFEC";
shapes = (
{
ref = G;
},
{
pos = (196,12);
ref = circumflexcomb.case;
}
);
width = 762;
}
);
unicode = 284;
},
{
glyphname = Gcommaaccent;
kernLeft = G;
kernRight = G;
lastChange = "2023-02-02 16:56:08 +0000";
layers = (
{
background = {
anchors = (
{
name = bottom;
pos = (323,0);
},
{
name = top;
pos = (497,754);
}
);
shapes = (
{
closed = 1;
nodes = (
(519,-13,o),
(652,69,o),
(702,256,c),
(547,256,l),
(515,76,o),
(469,19,o),
(363,19,cs),
(271,19,o),
(222,62,o),
(222,205,cs),
(222,390,o),
(304,736,o),
(505,736,cs),
(598,736,o),
(673,662,o),
(673,541,c),
(698,541,l),
(745,754,l),
(720,754,l),
(671,702,l),
(618,751,o),
(569,765,o),
(509,765,cs),
(259,765,o),
(84,519,o),
(84,314,cs),
(84,188,o),
(149,-13,o),
(375,-13,cs)
);
},
{
closed = 1;
nodes = (
(778,253,l),
(778,278,l),
(441,278,l),
(441,253,l)
);
},
{
closed = 1;
nodes = (
(354,-274,o),
(400,-220,o),
(400,-164,cs),
(400,-120,o),
(371,-81,o),
(326,-81,cs),
(291,-81,o),
(258,-104,o),
(258,-145,cs),
(258,-175,o),
(276,-195,o),
(304,-195,cs),
(335,-195,o),
(343,-169,o),
(353,-169,cs),
(357,-169,o),
(364,-174,o),
(364,-186,cs),
(364,-211,o),
(334,-247,o),
(240,-287,c),
(253,-310,l)
);
}
);
};
layerId = "426C3F01-D24D-4224-A47E-56DA036E4742";
shapes = (
{
ref = G;
},
{
pos = (299,0);
ref = commaaccentcomb;
}
);
width = 749;
},
{
background = {
anchors = (
{
name = bottom;
pos = (329,0);
},
{
name = top;
pos = (503,754);
}
);
shapes = (
{
closed = 1;
nodes = (
(559,-13,o),
(644,73,o),
(698,243,c),
(522,243,l),
(494,65,o),
(430,24,o),
(363,24,cs),
(290,24,o),
(248,73,o),
(248,207,cs),
(248,399,o),
(335,731,o),
(502,731,cs),
(585,731,o),
(651,650,o),
(651,521,c),
(681,521,l),
(728,754,l),
(693,754,l),
(649,707,l),
(607,748,o),
(565,765,o),
(509,765,cs),
(297,765,o),
(72,525,o),
(72,287,cs),
(72,134,o),
(165,-13,o),
(364,-13,cs)
);
},
{
closed = 1;
nodes = (
(773,237,l),
(773,267,l),
(423,267,l),
(423,237,l)
);
},
{
closed = 1;
nodes = (
(348,-280,o),
(409,-235,o),
(409,-167,cs),
(409,-124,o),
(385,-69,o),
(322,-69,cs),
(277,-69,o),
(237,-98,o),
(237,-144,cs),
(237,-174,o),
(254,-204,o),
(291,-204,cs),
(333,-204,o),
(339,-166,o),
(350,-166,cs),
(355,-166,o),
(363,-174,o),
(363,-188,cs),
(363,-226,o),
(307,-260,o),
(226,-286,c),
(240,-315,l)
);
}
);
};
layerId = "DD3DBCA6-CF88-4DA3-ACF4-A2FFC969FFEC";
shapes = (
{
ref = G;
},
{
pos = (310,0);
ref = commaaccentcomb;
}
);
width = 762;
}
);
unicode = 290;
},
{
glyphname = Gdotaccent;
kernLeft = G;
kernRight = G;
lastChange = "2023-02-02 16:56:08 +0000";
layers = (
{
background = {
anchors = (
{
name = bottom;
pos = (323,0);
},
{
name = top;
pos = (497,754);
}
);
shapes = (
{
closed = 1;
nodes = (
(519,-13,o),
(652,69,o),
(702,256,c),
(547,256,l),
(515,76,o),
(469,19,o),
(363,19,cs),
(271,19,o),
(222,62,o),
(222,205,cs),
(222,390,o),
(304,736,o),
(505,736,cs),
(598,736,o),
(673,662,o),
(673,541,c),
(698,541,l),
(745,754,l),
(720,754,l),
(671,702,l),
(618,751,o),
(569,765,o),
(509,765,cs),
(259,765,o),
(84,519,o),
(84,314,cs),
(84,188,o),
(149,-13,o),
(375,-13,cs)
);
},
{
closed = 1;
nodes = (
(778,253,l),
(778,278,l),
(441,278,l),
(441,253,l)
);
},
{
closed = 1;
nodes = (
(588,789,o),
(618,818,o),
(618,856,cs),
(618,894,o),
(588,924,o),
(550,924,cs),
(512,924,o),
(483,894,o),
(483,856,cs),
(483,818,o),
(512,789,o),
(550,789,cs)
);
}
);
};
layerId = "426C3F01-D24D-4224-A47E-56DA036E4742";
shapes = (
{
ref = G;
},
{
pos = (282,0);
ref = dotaccentcomb.case;
}
);
width = 749;
},
{
background = {
anchors = (
{
name = bottom;
pos = (329,0);
},
{
name = top;
pos = (503,754);
}
);
shapes = (
{
closed = 1;
nodes = (
(559,-13,o),
(644,73,o),
(698,243,c),
(522,243,l),
(494,65,o),
(430,24,o),
(363,24,cs),
(290,24,o),
(248,73,o),
(248,207,cs),
(248,399,o),
(335,731,o),
(502,731,cs),
(585,731,o),
(651,650,o),
(651,521,c),
(681,521,l),
(728,754,l),
(693,754,l),
(649,707,l),
(607,748,o),
(565,765,o),
(509,765,cs),
(297,765,o),
(72,525,o),
(72,287,cs),
(72,134,o),
(165,-13,o),
(364,-13,cs)
);
},
{
closed = 1;
nodes = (
(773,237,l),
(773,267,l),
(423,267,l),
(423,237,l)
);
},
{
closed = 1;
nodes = (
(544,793,o),
(575,823,o),
(575,858,cs),
(575,893,o),
(544,924,o),
(509,924,cs),
(474,924,o),
(444,893,o),
(444,858,cs),
(444,823,o),
(474,793,o),
(509,793,cs)
);
}
);
};
layerId = "DD3DBCA6-CF88-4DA3-ACF4-A2FFC969FFEC";
shapes = (
{
ref = G;
},
{
pos = (264,15);
ref = dotaccentcomb.case;
}
);
width = 762;
}
);
unicode = 288;
},
{
glyphname = H;
kernLeft = H;
kernRight = H;
lastChange = "2023-02-02 16:56:08 +0000";
layers = (
{
anchors = (
{
name = bottom;
pos = (342,0);
},
{
name = center;
pos = (429,377);
},
{
name = top;
pos = (516,754);
},
{
name = topleft;
pos = (142,754);
}
);
background = {
anchors = (
{
name = bottom;
pos = (342,0);
},
{
name = center;
pos = (429,377);
},
{
name = top;
pos = (516,754);
},
{
name = topleft;
pos = (142,754);
}
);
shapes = (
{
closed = 1;
nodes = (
(625,0,l),
(793,754,l),
(676,754,l),
(512,0,l)
);
},
{
closed = 1;
nodes = (
(288,0,l),
(288,25,l),
(-1,25,l),
(-1,0,l)
);
},
{
closed = 1;
nodes = (
(727,0,l),
(727,25,l),
(431,25,l),
(431,0,l)
);
},
{
closed = 1;
nodes = (
(188,0,l),
(356,754,l),
(239,754,l),
(75,0,l)
);
},
{
closed = 1;
nodes = (
(631,377,l),
(631,405,l),
(192,405,l),
(192,377,l)
);
},
{
closed = 1;
nodes = (
(441,729,l),
(441,754,l),
(152,754,l),
(152,729,l)
);
},
{
closed = 1;
nodes = (
(876,729,l),
(876,754,l),
(580,754,l),
(580,729,l)
);
}
);
};
layerId = "426C3F01-D24D-4224-A47E-56DA036E4742";
shapes = (
{
closed = 1;
nodes = (
(625,0,l),
(793,754,l),
(676,754,l),
(512,0,l)
);
},
{
closed = 1;
nodes = (
(288,0,l),
(288,25,l),
(-1,25,l),
(-1,0,l)
);
},
{
closed = 1;
nodes = (
(727,0,l),
(727,25,l),
(431,25,l),
(431,0,l)
);
},
{
closed = 1;
nodes = (
(188,0,l),
(356,754,l),
(239,754,l),
(75,0,l)
);
},
{
closed = 1;
nodes = (
(631,377,l),
(631,405,l),
(192,405,l),
(192,377,l)
);
},
{
closed = 1;
nodes = (
(441,729,l),
(441,754,l),
(152,754,l),
(152,729,l)
);
},
{
closed = 1;
nodes = (
(876,729,l),
(876,754,l),
(580,754,l),
(580,729,l)
);
}
);
width = 787;
},
{
anchors = (
{
name = bottom;
pos = (352,0);
},
{
name = center;
pos = (439,377);
},
{
name = top;
pos = (526,754);
},
{
name = topleft;
pos = (142,754);
}
);
background = {
anchors = (
{
name = bottom;
pos = (352,0);
},
{
name = center;
pos = (439,377);
},
{
name = top;
pos = (526,754);
},
{
name = topleft;
pos = (142,754);
}
);
shapes = (
{
closed = 1;
nodes = (
(630,0,l),
(798,754,l),
(647,754,l),
(483,0,l)
);
},
{
closed = 1;
nodes = (
(336,0,l),
(336,31,l),
(-13,31,l),
(-13,0,l)
);
},
{
closed = 1;
nodes = (
(745,0,l),
(745,31,l),
(396,31,l),
(396,0,l)
);
},
{
closed = 1;
nodes = (
(221,0,l),
(389,754,l),
(238,754,l),
(74,0,l)
);
},
{
closed = 1;
nodes = (
(608,365,l),
(608,395,l),
(269,395,l),
(269,365,l)
);
},
{
closed = 1;
nodes = (
(477,724,l),
(477,754,l),
(138,754,l),
(138,724,l)
);
},
{
closed = 1;
nodes = (
(886,724,l),
(886,754,l),
(547,754,l),
(547,724,l)
);
}
);
};
layerId = "DD3DBCA6-CF88-4DA3-ACF4-A2FFC969FFEC";
shapes = (
{
closed = 1;
nodes = (
(630,0,l),
(798,754,l),
(647,754,l),
(483,0,l)
);
},
{
closed = 1;
nodes = (
(336,0,l),
(336,31,l),
(-13,31,l),
(-13,0,l)
);
},
{
closed = 1;
nodes = (
(745,0,l),
(745,31,l),
(396,31,l),
(396,0,l)
);
},
{
closed = 1;
nodes = (
(221,0,l),
(389,754,l),
(238,754,l),
(74,0,l)
);
},
{
closed = 1;
nodes = (
(608,365,l),
(608,395,l),
(269,395,l),
(269,365,l)
);
},
{
closed = 1;
nodes = (
(477,724,l),
(477,754,l),
(138,754,l),
(138,724,l)
);
},
{
closed = 1;
nodes = (
(886,724,l),
(886,754,l),
(547,754,l),
(547,724,l)
);
}
);
width = 807;
}
);
unicode = 72;
},
{
glyphname = Hbar;
lastChange = "2023-02-02 16:56:08 +0000";
layers = (
{
background = {
anchors = (
{
name = bottom;
pos = (342,0);
},
{
name = center;
pos = (429,377);
},
{
name = top;
pos = (516,754);
},
{
name = topleft;
pos = (142,754);
}
);
shapes = (
{
closed = 1;
nodes = (
(857,548,l),
(857,578,l),
(88,578,l),
(88,548,l)
);
},
{
closed = 1;
nodes = (
(625,0,l),
(793,754,l),
(676,754,l),
(512,0,l)
);
},
{
closed = 1;
nodes = (
(288,0,l),
(288,25,l),
(-1,25,l),
(-1,0,l)
);
},
{
closed = 1;
nodes = (
(727,0,l),
(727,25,l),
(431,25,l),
(431,0,l)
);
},
{
closed = 1;
nodes = (
(188,0,l),
(356,754,l),
(239,754,l),
(75,0,l)
);
},
{
closed = 1;
nodes = (
(631,377,l),
(631,405,l),
(192,405,l),
(192,377,l)
);
},
{
closed = 1;
nodes = (
(441,729,l),
(441,754,l),
(152,754,l),
(152,729,l)
);
},
{
closed = 1;
nodes = (
(876,729,l),
(876,754,l),
(580,754,l),
(580,729,l)
);
}
);
};
layerId = "426C3F01-D24D-4224-A47E-56DA036E4742";
shapes = (
{
closed = 1;
nodes = (
(857,548,l),
(857,578,l),
(88,578,l),
(88,548,l)
);
},
{
ref = H;
}
);
width = 787;
},
{
background = {
anchors = (
{
name = bottom;
pos = (352,0);
},
{
name = center;
pos = (439,377);
},
{
name = top;
pos = (526,754);
},
{
name = topleft;
pos = (142,754);
}
);
shapes = (
{
closed = 1;
nodes = (
(869,538,l),
(869,578,l),
(100,578,l),
(100,538,l)
);
},
{
closed = 1;
nodes = (
(630,0,l),
(798,754,l),
(647,754,l),
(483,0,l)
);
},
{
closed = 1;
nodes = (
(336,0,l),
(336,31,l),
(-13,31,l),
(-13,0,l)
);
},
{
closed = 1;
nodes = (
(745,0,l),
(745,31,l),
(396,31,l),
(396,0,l)
);
},
{
closed = 1;
nodes = (
(221,0,l),
(389,754,l),
(238,754,l),
(74,0,l)
);
},
{
closed = 1;
nodes = (
(608,365,l),
(608,395,l),
(269,395,l),
(269,365,l)
);
},
{
closed = 1;
nodes = (
(477,724,l),
(477,754,l),
(138,754,l),
(138,724,l)
);
},
{
closed = 1;
nodes = (
(886,724,l),
(886,754,l),
(547,754,l),
(547,724,l)
);
}
);
};
layerId = "DD3DBCA6-CF88-4DA3-ACF4-A2FFC969FFEC";
shapes = (
{
closed = 1;
nodes = (
(869,538,l),
(869,578,l),
(100,578,l),
(100,538,l)
);
},
{
ref = H;
}
);
width = 807;
}
);
unicode = 294;
},
{
glyphname = Hcircumflex;
kernLeft = H;
kernRight = H;
lastChange = "2023-02-02 16:56:08 +0000";
layers = (
{
background = {
anchors = (
{
name = bottom;
pos = (342,0);
},
{
name = center;
pos = (429,377);
},
{
name = top;
pos = (516,754);
},
{
name = topleft;
pos = (142,754);
}
);
shapes = (
{
closed = 1;
nodes = (
(625,0,l),
(793,754,l),
(676,754,l),
(512,0,l)
);
},
{
closed = 1;
nodes = (
(288,0,l),
(288,25,l),
(-1,25,l),
(-1,0,l)
);
},
{
closed = 1;
nodes = (
(727,0,l),
(727,25,l),
(431,25,l),
(431,0,l)
);
},
{
closed = 1;
nodes = (
(188,0,l),
(356,754,l),
(239,754,l),
(75,0,l)
);
},
{
closed = 1;
nodes = (
(631,377,l),
(631,405,l),
(192,405,l),
(192,377,l)
);
},
{
closed = 1;
nodes = (
(441,729,l),
(441,754,l),
(152,754,l),
(152,729,l)
);
},
{
closed = 1;
nodes = (
(876,729,l),
(876,754,l),
(580,754,l),
(580,729,l)
);
},
{
closed = 1;
nodes = (
(417,784,l),
(549,845,l),
(655,784,l),
(698,784,l),
(596,924,l),
(534,924,l),
(375,784,l)
);
}
);
};
layerId = "426C3F01-D24D-4224-A47E-56DA036E4742";
shapes = (
{
ref = H;
},
{
pos = (229,20);
ref = circumflexcomb.case;
}
);
width = 787;
},
{
background = {
anchors = (
{
name = bottom;
pos = (352,0);
},
{
name = center;
pos = (439,377);
},
{
name = top;
pos = (526,754);
},
{
name = topleft;
pos = (142,754);
}
);
shapes = (
{
closed = 1;
nodes = (
(630,0,l),
(798,754,l),
(647,754,l),
(483,0,l)
);
},
{
closed = 1;
nodes = (
(336,0,l),
(336,31,l),
(-13,31,l),
(-13,0,l)
);
},
{
closed = 1;
nodes = (
(745,0,l),
(745,31,l),
(396,31,l),
(396,0,l)
);
},
{
closed = 1;
nodes = (
(221,0,l),
(389,754,l),
(238,754,l),
(74,0,l)
);
},
{
closed = 1;
nodes = (
(608,365,l),
(608,395,l),
(269,395,l),
(269,365,l)
);
},
{
closed = 1;
nodes = (
(477,724,l),
(477,754,l),
(138,754,l),
(138,724,l)
);
},
{
closed = 1;
nodes = (
(886,724,l),
(886,754,l),
(547,754,l),
(547,724,l)
);
},
{
closed = 1;
nodes = (
(413,791,l),
(555,836,l),
(677,791,l),
(724,791,l),
(601,923,l),
(545,923,l),
(367,791,l)
);
}
);
};
layerId = "DD3DBCA6-CF88-4DA3-ACF4-A2FFC969FFEC";
shapes = (
{
ref = H;
},
{
pos = (219,12);
ref = circumflexcomb.case;
}
);
width = 807;
}
);
unicode = 292;
},
{
glyphname = Hdotbelow;
kernLeft = H;
kernRight = H;
lastChange = "2023-02-02 16:56:08 +0000";
layers = (
{
background = {
anchors = (
{
name = bottom;
pos = (342,0);
},
{
name = center;
pos = (429,377);
},
{
name = top;
pos = (516,754);
},
{
name = topleft;
pos = (142,754);
}
);
shapes = (
{
closed = 1;
nodes = (
(625,0,l),
(793,754,l),
(676,754,l),
(512,0,l)
);
},
{
closed = 1;
nodes = (
(288,0,l),
(288,25,l),
(-1,25,l),
(-1,0,l)
);
},
{
closed = 1;
nodes = (
(727,0,l),
(727,25,l),
(431,25,l),
(431,0,l)
);
},
{
closed = 1;
nodes = (
(188,0,l),
(356,754,l),
(239,754,l),
(75,0,l)
);
},
{
closed = 1;
nodes = (
(631,377,l),
(631,405,l),
(192,405,l),
(192,377,l)
);
},
{
closed = 1;
nodes = (
(441,729,l),
(441,754,l),
(152,754,l),
(152,729,l)
);
},
{
closed = 1;
nodes = (
(876,729,l),
(876,754,l),
(580,754,l),
(580,729,l)
);
},
{
closed = 1;
nodes = (
(346,-233,o),
(376,-204,o),
(376,-166,cs),
(376,-128,o),
(346,-98,o),
(308,-98,cs),
(270,-98,o),
(241,-128,o),
(241,-166,cs),
(241,-166,ls),
(241,-204,o),
(270,-233,o),
(308,-233,cs)
);
}
);
};
layerId = "426C3F01-D24D-4224-A47E-56DA036E4742";
shapes = (
{
ref = H;
},
{
pos = (101,0);
ref = dotbelowcomb;
}
);
width = 787;
},
{
background = {
anchors = (
{
name = bottom;
pos = (352,0);
},
{
name = center;
pos = (439,377);
},
{
name = top;
pos = (526,754);
},
{
name = topleft;
pos = (142,754);
}
);
shapes = (
{
closed = 1;
nodes = (
(630,0,l),
(798,754,l),
(647,754,l),
(483,0,l)
);
},
{
closed = 1;
nodes = (
(336,0,l),
(336,31,l),
(-13,31,l),
(-13,0,l)
);
},
{
closed = 1;
nodes = (
(745,0,l),
(745,31,l),
(396,31,l),
(396,0,l)
);
},
{
closed = 1;
nodes = (
(221,0,l),
(389,754,l),
(238,754,l),
(74,0,l)
);
},
{
closed = 1;
nodes = (
(608,365,l),
(608,395,l),
(269,395,l),
(269,365,l)
);
},
{
closed = 1;
nodes = (
(477,724,l),
(477,754,l),
(138,754,l),
(138,724,l)
);
},
{
closed = 1;
nodes = (
(886,724,l),
(886,754,l),
(547,754,l),
(547,724,l)
);
},
{
closed = 1;
nodes = (
(360,-260,o),
(397,-223,o),
(397,-180,cs),
(397,-136,o),
(360,-99,o),
(316,-99,cs),
(273,-99,o),
(236,-136,o),
(236,-180,cs),
(236,-180,ls),
(236,-223,o),
(273,-260,o),
(316,-260,cs)
);
}
);
};
layerId = "DD3DBCA6-CF88-4DA3-ACF4-A2FFC969FFEC";
shapes = (
{
ref = H;
},
{
pos = (102,0);
ref = dotbelowcomb;
}
);
width = 807;
}
);
unicode = 7716;
},
{
glyphname = I;
kernLeft = I;
kernRight = I;
lastChange = "2023-02-02 16:56:08 +0000";
layers = (
{
anchors = (
{
name = bottom;
pos = (128,0);
},
{
name = ogonek;
pos = (145,22);
},
{
name = top;
pos = (302,754);
},
{
name = topleft;
pos = (142,754);
}
);
background = {
anchors = (
{
name = bottom;
pos = (128,0);
},
{
name = ogonek;
pos = (272,10);
},
{
name = top;
pos = (302,754);
},
{
name = topleft;
pos = (142,754);
}
);
shapes = (
{
closed = 1;
nodes = (
(193,0,l),
(361,754,l),
(244,754,l),
(80,0,l)
);
},
{
closed = 1;
nodes = (
(303,0,l),
(303,25,l),
(-6,25,l),
(-6,0,l)
);
},
{
closed = 1;
nodes = (
(444,729,l),
(444,754,l),
(145,754,l),
(145,729,l)
);
}
);
};
layerId = "426C3F01-D24D-4224-A47E-56DA036E4742";
shapes = (
{
closed = 1;
nodes = (
(193,0,l),
(361,754,l),
(244,754,l),
(80,0,l)
);
},
{
closed = 1;
nodes = (
(303,0,l),
(303,25,l),
(-6,25,l),
(-6,0,l)
);
},
{
closed = 1;
nodes = (
(444,729,l),
(444,754,l),
(145,754,l),
(145,729,l)
);
}
);
width = 360;
},
{
anchors = (
{
name = bottom;
pos = (143,0);
},
{
name = ogonek;
pos = (218,10);
},
{
name = top;
pos = (317,754);
},
{
name = topleft;
pos = (142,754);
}
);
background = {
anchors = (
{
name = bottom;
pos = (143,0);
},
{
name = ogonek;
pos = (299,10);
},
{
name = top;
pos = (317,754);
},
{
name = topleft;
pos = (142,754);
}
);
shapes = (
{
closed = 1;
nodes = (
(207,0,l),
(375,754,l),
(224,754,l),
(60,0,l)
);
},
{
closed = 1;
nodes = (
(302,0,l),
(302,31,l),
(-7,31,l),
(-7,0,l)
);
},
{
closed = 1;
nodes = (
(443,724,l),
(443,754,l),
(144,754,l),
(144,724,l)
);
}
);
};
layerId = "DD3DBCA6-CF88-4DA3-ACF4-A2FFC969FFEC";
shapes = (
{
closed = 1;
nodes = (
(207,0,l),
(375,754,l),
(224,754,l),
(60,0,l)
);
},
{
closed = 1;
nodes = (
(302,0,l),
(302,31,l),
(-7,31,l),
(-7,0,l)
);
},
{
closed = 1;
nodes = (
(443,724,l),
(443,754,l),
(144,754,l),
(144,724,l)
);
}
);
width = 390;
}
);
unicode = 73;
},
{
glyphname = IJ;
kernLeft = I;
kernRight = J;
lastChange = "2023-02-02 16:56:08 +0000";
layers = (
{
background = {
anchors = (
{
name = bottom;
pos = (492,0);
},
{
name = ogonek;
pos = (272,10);
},
{
name = top;
pos = (666,754);
},
{
name = topleft;
pos = (142,754);
}
);
shapes = (
{
closed = 1;
nodes = (
(193,0,l),
(361,754,l),
(244,754,l),
(80,0,l)
);
},
{
closed = 1;
nodes = (
(303,0,l),
(303,25,l),
(-6,25,l),
(-6,0,l)
);
},
{
closed = 1;
nodes = (
(444,729,l),
(444,754,l),
(145,754,l),
(145,729,l)
);
},
{
closed = 1;
nodes = (
(491,-101,o),
(571,-36,o),
(613,152,cs),
(747,754,l),
(630,754,l),
(481,71,ls),
(451,-67,o),
(415,-71,o),
(397,-71,cs),
(374,-71,o),
(361,-65,o),
(361,-50,cs),
(361,-31,o),
(383,-21,o),
(383,7,cs),
(383,33,o),
(364,60,o),
(329,60,cs),
(295,60,o),
(268,34,o),
(268,-8,cs),
(268,-60,o),
(310,-101,o),
(390,-101,cs)
);
},
{
closed = 1;
nodes = (
(830,729,l),
(830,754,l),
(541,754,l),
(541,729,l)
);
}
);
};
layerId = "426C3F01-D24D-4224-A47E-56DA036E4742";
shapes = (
{
ref = I;
},
{
pos = (360,0);
ref = J;
}
);
width = 728;
},
{
background = {
anchors = (
{
name = bottom;
pos = (558,0);
},
{
name = ogonek;
pos = (299,10);
},
{
name = top;
pos = (732,754);
},
{
name = topleft;
pos = (142,754);
}
);
shapes = (
{
closed = 1;
nodes = (
(207,0,l),
(375,754,l),
(224,754,l),
(60,0,l)
);
},
{
closed = 1;
nodes = (
(302,0,l),
(302,31,l),
(-7,31,l),
(-7,0,l)
);
},
{
closed = 1;
nodes = (
(443,724,l),
(443,754,l),
(144,754,l),
(144,724,l)
);
},
{
closed = 1;
nodes = (
(531,-119,o),
(647,-46,o),
(686,142,cs),
(813,754,l),
(662,754,l),
(504,34,ls),
(483,-64,o),
(463,-83,o),
(435,-83,cs),
(417,-83,o),
(409,-75,o),
(409,-65,cs),
(409,-48,o),
(437,-31,o),
(437,12,cs),
(437,59,o),
(403,84,o),
(366,84,cs),
(317,84,o),
(289,39,o),
(289,-3,cs),
(289,-61,o),
(341,-119,o),
(431,-119,cs)
);
},
{
closed = 1;
nodes = (
(881,724,l),
(881,754,l),
(552,754,l),
(552,724,l)
);
}
);
};
layerId = "DD3DBCA6-CF88-4DA3-ACF4-A2FFC969FFEC";
shapes = (
{
ref = I;
},
{
pos = (390,0);
ref = J;
}
);
width = 830;
}
);
unicode = 306;
},
{
glyphname = Iacute;
kernLeft = I;
kernRight = I;
lastChange = "2023-02-02 16:56:08 +0000";
layers = (
{
background = {
anchors = (
{
name = bottom;
pos = (128,0);
},
{
name = ogonek;
pos = (272,10);
},
{
name = top;
pos = (362,1011);
},
{
name = topleft;
pos = (142,754);
}
);
shapes = (
{
closed = 1;
nodes = (
(193,0,l),
(361,754,l),
(244,754,l),
(80,0,l)
);
},
{
closed = 1;
nodes = (
(303,0,l),
(303,25,l),
(-6,25,l),
(-6,0,l)
);
},
{
closed = 1;
nodes = (
(444,729,l),
(444,754,l),
(145,754,l),
(145,729,l)
);
},
{
closed = 1;
nodes = (
(302,871,l),
(476,910,ls),
(524,921,o),
(545,943,o),
(545,972,cs),
(545,997,o),
(530,1011,o),
(507,1011,cs),
(487,1011,o),
(465,1001,o),
(422,975,cs),
(250,871,l)
);
}
);
};
layerId = "426C3F01-D24D-4224-A47E-56DA036E4742";
shapes = (
{
ref = I;
},
{
pos = (3,63);
ref = acutecomb.case;
}
);
width = 360;
},
{
background = {
anchors = (
{
name = bottom;
pos = (143,0);
},
{
name = ogonek;
pos = (299,10);
},
{
name = top;
pos = (370,986);
},
{
name = topleft;
pos = (142,754);
}
);
shapes = (
{
closed = 1;
nodes = (
(207,0,l),
(375,754,l),
(224,754,l),
(60,0,l)
);
},
{
closed = 1;
nodes = (
(302,0,l),
(302,31,l),
(-7,31,l),
(-7,0,l)
);
},
{
closed = 1;
nodes = (
(443,724,l),
(443,754,l),
(144,754,l),
(144,724,l)
);
},
{
closed = 1;
nodes = (
(263,845,l),
(461,884,ls),
(498,891,o),
(514,915,o),
(514,937,cs),
(514,962,o),
(493,986,o),
(456,986,cs),
(428,986,o),
(408,977,o),
(370,954,cs),
(194,845,l)
);
}
);
};
layerId = "DD3DBCA6-CF88-4DA3-ACF4-A2FFC969FFEC";
shapes = (
{
ref = I;
},
{
pos = (45,82);
ref = acutecomb.case;
}
);
width = 390;
}
);
unicode = 205;
},
{
glyphname = Ibreve;
kernLeft = I;
kernRight = I;
lastChange = "2023-02-02 16:56:08 +0000";
layers = (
{
background = {
anchors = (
{
name = bottom;
pos = (128,0);
},
{
name = ogonek;
pos = (272,10);
},
{
name = top;
pos = (302,754);
},
{
name = topleft;
pos = (142,754);
}
);
shapes = (
{
closed = 1;
nodes = (
(193,0,l),
(361,754,l),
(244,754,l),
(80,0,l)
);
},
{
closed = 1;
nodes = (
(303,0,l),
(303,25,l),
(-6,25,l),
(-6,0,l)
);
},
{
closed = 1;
nodes = (
(444,729,l),
(444,754,l),
(145,754,l),
(145,729,l)
);
},
{
closed = 1;
nodes = (
(430,787,o),
(495,846,o),
(511,924,c),
(477,924,l),
(464,880,o),
(414,860,o),
(334,860,cs),
(269,860,o),
(232,873,o),
(232,924,c),
(198,924,l),
(178,842,o),
(231,787,o),
(327,787,cs)
);
}
);
};
layerId = "426C3F01-D24D-4224-A47E-56DA036E4742";
shapes = (
{
ref = I;
},
{
pos = (19,62);
ref = brevecomb.case;
}
);
width = 360;
},
{
background = {
anchors = (
{
name = bottom;
pos = (143,0);
},
{
name = ogonek;
pos = (299,10);
},
{
name = top;
pos = (317,754);
},
{
name = topleft;
pos = (142,754);
}
);
shapes = (
{
closed = 1;
nodes = (
(207,0,l),
(375,754,l),
(224,754,l),
(60,0,l)
);
},
{
closed = 1;
nodes = (
(302,0,l),
(302,31,l),
(-7,31,l),
(-7,0,l)
);
},
{
closed = 1;
nodes = (
(443,724,l),
(443,754,l),
(144,754,l),
(144,724,l)
);
},
{
closed = 1;
nodes = (
(407,780,o),
(472,833,o),
(490,924,c),
(451,924,l),
(440,876,o),
(391,855,o),
(328,855,cs),
(269,855,o),
(223,876,o),
(235,924,c),
(196,924,l),
(174,830,o),
(216,780,o),
(313,780,cs)
);
}
);
};
layerId = "DD3DBCA6-CF88-4DA3-ACF4-A2FFC969FFEC";
shapes = (
{
ref = I;
},
{
pos = (19,71);
ref = brevecomb.case;
}
);
width = 390;
}
);
unicode = 300;
},
{
glyphname = Icircumflex;
kernLeft = I;
kernRight = I;
lastChange = "2023-02-02 16:56:08 +0000";
layers = (
{
background = {
anchors = (
{
name = bottom;
pos = (128,0);
},
{
name = ogonek;
pos = (272,10);
},
{
name = top;
pos = (302,754);
},
{
name = topleft;
pos = (142,754);
}
);
shapes = (
{
closed = 1;
nodes = (
(193,0,l),
(361,754,l),
(244,754,l),
(80,0,l)
);
},
{
closed = 1;
nodes = (
(303,0,l),
(303,25,l),
(-6,25,l),
(-6,0,l)
);
},
{
closed = 1;
nodes = (
(444,729,l),
(444,754,l),
(145,754,l),
(145,729,l)
);
},
{
closed = 1;
nodes = (
(205,784,l),
(337,845,l),
(443,784,l),
(486,784,l),
(384,924,l),
(322,924,l),
(163,784,l)
);
}
);
};
layerId = "426C3F01-D24D-4224-A47E-56DA036E4742";
shapes = (
{
ref = I;
},
{
pos = (15,20);
ref = circumflexcomb.case;
}
);
width = 360;
},
{
background = {
anchors = (
{
name = bottom;
pos = (143,0);
},
{
name = ogonek;
pos = (299,10);
},
{
name = top;
pos = (317,754);
},
{
name = topleft;
pos = (142,754);
}
);
shapes = (
{
closed = 1;
nodes = (
(207,0,l),
(375,754,l),
(224,754,l),
(60,0,l)
);
},
{
closed = 1;
nodes = (
(302,0,l),
(302,31,l),
(-7,31,l),
(-7,0,l)
);
},
{
closed = 1;
nodes = (
(443,724,l),
(443,754,l),
(144,754,l),
(144,724,l)
);
},
{
closed = 1;
nodes = (
(191,791,l),
(333,836,l),
(455,791,l),
(502,791,l),
(379,923,l),
(323,923,l),
(145,791,l)
);
}
);
};
layerId = "DD3DBCA6-CF88-4DA3-ACF4-A2FFC969FFEC";
shapes = (
{
ref = I;
},
{
pos = (10,12);
ref = circumflexcomb.case;
}
);
width = 390;
}
);
unicode = 206;
},
{
glyphname = Idblgrave;
kernLeft = I;
kernRight = I;
lastChange = "2023-02-02 16:56:08 +0000";
layers = (
{
background = {
anchors = (
{
name = bottom;
pos = (128,0);
},
{
name = ogonek;
pos = (272,10);
},
{
name = top;
pos = (302,754);
},
{
name = topleft;
pos = (142,754);
}
);
shapes = (
{
closed = 1;
nodes = (
(193,0,l),
(361,754,l),
(244,754,l),
(80,0,l)
);
},
{
closed = 1;
nodes = (
(303,0,l),
(303,25,l),
(-6,25,l),
(-6,0,l)
);
},
{
closed = 1;
nodes = (
(444,729,l),
(444,754,l),
(145,754,l),
(145,729,l)
);
},
{
closed = 1;
nodes = (
(518,784,l),
(379,888,ls),
(342,916,o),
(330,924,o),
(313,924,cs),
(281,924,o),
(259,899,o),
(259,871,cs),
(259,850,o),
(272,835,o),
(299,828,cs),
(465,784,l)
);
},
{
closed = 1;
nodes = (
(314,784,l),
(175,888,ls),
(138,916,o),
(126,924,o),
(109,924,cs),
(77,924,o),
(55,899,o),
(55,871,cs),
(55,850,o),
(68,835,o),
(95,828,cs),
(261,784,l)
);
}
);
};
layerId = "426C3F01-D24D-4224-A47E-56DA036E4742";
shapes = (
{
ref = I;
},
{
pos = (-75,0);
ref = dblgravecomb.case;
}
);
width = 360;
},
{
background = {
anchors = (
{
name = bottom;
pos = (143,0);
},
{
name = ogonek;
pos = (299,10);
},
{
name = top;
pos = (317,754);
},
{
name = topleft;
pos = (142,754);
}
);
shapes = (
{
closed = 1;
nodes = (
(207,0,l),
(375,754,l),
(224,754,l),
(60,0,l)
);
},
{
closed = 1;
nodes = (
(302,0,l),
(302,31,l),
(-7,31,l),
(-7,0,l)
);
},
{
closed = 1;
nodes = (
(443,724,l),
(443,754,l),
(144,754,l),
(144,724,l)
);
},
{
closed = 1;
nodes = (
(540,794,l),
(409,895,ls),
(377,919,o),
(355,924,o),
(329,924,cs),
(296,924,o),
(277,902,o),
(277,879,cs),
(277,859,o),
(292,838,o),
(326,830,cs),
(477,794,l)
);
},
{
closed = 1;
nodes = (
(309,794,l),
(178,895,ls),
(146,919,o),
(124,924,o),
(98,924,cs),
(65,924,o),
(46,902,o),
(46,879,cs),
(46,859,o),
(61,838,o),
(95,830,cs),
(246,794,l)
);
}
);
};
layerId = "DD3DBCA6-CF88-4DA3-ACF4-A2FFC969FFEC";
shapes = (
{
ref = I;
},
{
pos = (-115,12);
ref = dblgravecomb.case;
}
);
width = 390;
}
);
unicode = 520;
},
{
glyphname = Idieresis;
kernLeft = I;
kernRight = I;
lastChange = "2023-02-02 16:56:08 +0000";
layers = (
{
background = {
anchors = (
{
name = bottom;
pos = (128,0);
},
{
name = ogonek;
pos = (272,10);
},
{
name = top;
pos = (302,754);
},
{
name = topleft;
pos = (142,754);
}
);
shapes = (
{
closed = 1;
nodes = (
(193,0,l),
(361,754,l),
(244,754,l),
(80,0,l)
);
},
{
closed = 1;
nodes = (
(303,0,l),
(303,25,l),
(-6,25,l),
(-6,0,l)
);
},
{
closed = 1;
nodes = (
(444,729,l),
(444,754,l),
(145,754,l),
(145,729,l)
);
},
{
closed = 1;
nodes = (
(462,814,o),
(487,838,o),
(487,869,cs),
(487,899,o),
(462,924,o),
(432,924,cs),
(401,924,o),
(377,899,o),
(377,869,cs),
(377,838,o),
(401,814,o),
(432,814,cs)
);
},
{
closed = 1;
nodes = (
(272,814,o),
(297,838,o),
(297,869,cs),
(297,899,o),
(272,924,o),
(242,924,cs),
(211,924,o),
(187,899,o),
(187,869,cs),
(187,838,o),
(211,814,o),
(242,814,cs)
);
}
);
};
layerId = "426C3F01-D24D-4224-A47E-56DA036E4742";
shapes = (
{
ref = I;
},
{
pos = (4,0);
ref = dieresiscomb.case;
}
);
width = 360;
},
{
background = {
anchors = (
{
name = bottom;
pos = (143,0);
},
{
name = ogonek;
pos = (299,10);
},
{
name = top;
pos = (317,754);
},
{
name = topleft;
pos = (142,754);
}
);
shapes = (
{
closed = 1;
nodes = (
(207,0,l),
(375,754,l),
(224,754,l),
(60,0,l)
);
},
{
closed = 1;
nodes = (
(302,0,l),
(302,31,l),
(-7,31,l),
(-7,0,l)
);
},
{
closed = 1;
nodes = (
(443,724,l),
(443,754,l),
(144,754,l),
(144,724,l)
);
},
{
closed = 1;
nodes = (
(464,797,o),
(493,825,o),
(493,860,cs),
(493,895,o),
(464,923,o),
(429,923,cs),
(395,923,o),
(366,895,o),
(366,860,cs),
(366,825,o),
(395,797,o),
(429,797,cs)
);
},
{
closed = 1;
nodes = (
(281,797,o),
(310,825,o),
(310,860,cs),
(310,895,o),
(281,923,o),
(247,923,cs),
(212,923,o),
(183,895,o),
(183,860,cs),
(183,825,o),
(212,797,o),
(247,797,cs)
);
}
);
};
layerId = "DD3DBCA6-CF88-4DA3-ACF4-A2FFC969FFEC";
shapes = (
{
ref = I;
},
{
pos = (17,11);
ref = dieresiscomb.case;
}
);
width = 390;
}
);
unicode = 207;
},
{
glyphname = Idotaccent;
kernLeft = I;
kernRight = I;
lastChange = "2023-02-02 16:56:08 +0000";
layers = (
{
background = {
anchors = (
{
name = bottom;
pos = (128,0);
},
{
name = ogonek;
pos = (272,10);
},
{
name = top;
pos = (302,754);
},
{
name = topleft;
pos = (142,754);
}
);
shapes = (
{
closed = 1;
nodes = (
(193,0,l),
(361,754,l),
(244,754,l),
(80,0,l)
);
},
{
closed = 1;
nodes = (
(303,0,l),
(303,25,l),
(-6,25,l),
(-6,0,l)
);
},
{
closed = 1;
nodes = (
(444,729,l),
(444,754,l),
(145,754,l),
(145,729,l)
);
},
{
closed = 1;
nodes = (
(364,789,o),
(394,818,o),
(394,856,cs),
(394,894,o),
(364,924,o),
(326,924,cs),
(288,924,o),
(259,894,o),
(259,856,cs),
(259,818,o),
(288,789,o),
(326,789,cs)
);
}
);
};
layerId = "426C3F01-D24D-4224-A47E-56DA036E4742";
shapes = (
{
ref = I;
},
{
pos = (87,0);
ref = dotaccentcomb.case;
}
);
width = 360;
},
{
background = {
anchors = (
{
name = bottom;
pos = (143,0);
},
{
name = ogonek;
pos = (299,10);
},
{
name = top;
pos = (317,754);
},
{
name = topleft;
pos = (142,754);
}
);
shapes = (
{
closed = 1;
nodes = (
(207,0,l),
(375,754,l),
(224,754,l),
(60,0,l)
);
},
{
closed = 1;
nodes = (
(302,0,l),
(302,31,l),
(-7,31,l),
(-7,0,l)
);
},
{
closed = 1;
nodes = (
(443,724,l),
(443,754,l),
(144,754,l),
(144,724,l)
);
},
{
closed = 1;
nodes = (
(348,793,o),
(379,823,o),
(379,858,cs),
(379,893,o),
(348,924,o),
(313,924,cs),
(278,924,o),
(248,893,o),
(248,858,cs),
(248,823,o),
(278,793,o),
(313,793,cs)
);
}
);
};
layerId = "DD3DBCA6-CF88-4DA3-ACF4-A2FFC969FFEC";
shapes = (
{
ref = I;
},
{
pos = (78,15);
ref = dotaccentcomb.case;
}
);
width = 390;
}
);
unicode = 304;
},
{
glyphname = Idotbelow;
kernLeft = I;
kernRight = I;
lastChange = "2023-02-02 16:56:08 +0000";
layers = (
{
background = {
anchors = (
{
name = bottom;
pos = (81,-203);
},
{
name = ogonek;
pos = (272,10);
},
{
name = top;
pos = (302,754);
},
{
name = topleft;
pos = (142,754);
}
);
shapes = (
{
closed = 1;
nodes = (
(193,0,l),
(361,754,l),
(244,754,l),
(80,0,l)
);
},
{
closed = 1;
nodes = (
(303,0,l),
(303,25,l),
(-6,25,l),
(-6,0,l)
);
},
{
closed = 1;
nodes = (
(444,729,l),
(444,754,l),
(145,754,l),
(145,729,l)
);
},
{
closed = 1;
nodes = (
(134,-203,o),
(164,-174,o),
(164,-136,cs),
(164,-98,o),
(134,-68,o),
(96,-68,cs),
(58,-68,o),
(29,-98,o),
(29,-136,cs),
(29,-174,o),
(58,-203,o),
(96,-203,cs)
);
}
);
};
layerId = "426C3F01-D24D-4224-A47E-56DA036E4742";
shapes = (
{
ref = I;
},
{
pos = (-113,0);
ref = dotbelowcomb;
}
);
width = 360;
},
{
background = {
anchors = (
{
name = bottom;
pos = (89,-233);
},
{
name = ogonek;
pos = (299,10);
},
{
name = top;
pos = (317,754);
},
{
name = topleft;
pos = (142,754);
}
);
shapes = (
{
closed = 1;
nodes = (
(207,0,l),
(375,754,l),
(224,754,l),
(60,0,l)
);
},
{
closed = 1;
nodes = (
(302,0,l),
(302,31,l),
(-7,31,l),
(-7,0,l)
);
},
{
closed = 1;
nodes = (
(443,724,l),
(443,754,l),
(144,754,l),
(144,724,l)
);
},
{
closed = 1;
nodes = (
(151,-233,o),
(188,-196,o),
(188,-153,cs),
(188,-109,o),
(151,-72,o),
(107,-72,cs),
(64,-72,o),
(27,-109,o),
(27,-153,cs),
(27,-196,o),
(64,-233,o),
(107,-233,cs)
);
}
);
};
layerId = "DD3DBCA6-CF88-4DA3-ACF4-A2FFC969FFEC";
shapes = (
{
ref = I;
},
{
pos = (-107,0);
ref = dotbelowcomb;
}
);
width = 390;
}
);
unicode = 7882;
},
{
glyphname = Igrave;
kernLeft = I;
kernRight = I;
lastChange = "2023-02-02 16:56:08 +0000";
layers = (
{
background = {
anchors = (
{
name = bottom;
pos = (128,0);
},
{
name = ogonek;
pos = (272,10);
},
{
name = top;
pos = (357,992);
},
{
name = topleft;
pos = (142,754);
}
);
shapes = (
{
closed = 1;
nodes = (
(193,0,l),
(361,754,l),
(244,754,l),
(80,0,l)
);
},
{
closed = 1;
nodes = (
(303,0,l),
(303,25,l),
(-6,25,l),
(-6,0,l)
);
},
{
closed = 1;
nodes = (
(444,729,l),
(444,754,l),
(145,754,l),
(145,729,l)
);
},
{
closed = 1;
nodes = (
(421,852,l),
(282,956,ls),
(245,984,o),
(233,992,o),
(216,992,cs),
(184,992,o),
(162,967,o),
(162,939,cs),
(162,918,o),
(175,903,o),
(202,896,cs),
(368,852,l)
);
}
);
};
layerId = "426C3F01-D24D-4224-A47E-56DA036E4742";
shapes = (
{
ref = I;
},
{
pos = (26,65);
ref = gravecomb.case;
}
);
width = 360;
},
{
background = {
anchors = (
{
name = bottom;
pos = (143,0);
},
{
name = ogonek;
pos = (299,10);
},
{
name = top;
pos = (372,995);
},
{
name = topleft;
pos = (142,754);
}
);
shapes = (
{
closed = 1;
nodes = (
(207,0,l),
(375,754,l),
(224,754,l),
(60,0,l)
);
},
{
closed = 1;
nodes = (
(302,0,l),
(302,31,l),
(-7,31,l),
(-7,0,l)
);
},
{
closed = 1;
nodes = (
(443,724,l),
(443,754,l),
(144,754,l),
(144,724,l)
);
},
{
closed = 1;
nodes = (
(516,854,l),
(340,963,ls),
(302,986,o),
(282,995,o),
(254,995,cs),
(217,995,o),
(196,971,o),
(196,946,cs),
(196,924,o),
(212,900,o),
(249,893,cs),
(447,854,l)
);
}
);
};
layerId = "DD3DBCA6-CF88-4DA3-ACF4-A2FFC969FFEC";
shapes = (
{
ref = I;
},
{
pos = (25,33);
ref = gravecomb.case;
}
);
width = 390;
}
);
unicode = 204;
},
{
glyphname = Ihookabove;
kernLeft = I;
kernRight = I;
lastChange = "2023-02-02 16:56:08 +0000";
layers = (
{
background = {
anchors = (
{
name = bottom;
pos = (128,0);
},
{
name = ogonek;
pos = (272,10);
},
{
name = top;
pos = (356,987);
},
{
name = topleft;
pos = (142,754);
}
);
shapes = (
{
closed = 1;
nodes = (
(193,0,l),
(361,754,l),
(244,754,l),
(80,0,l)
);
},
{
closed = 1;
nodes = (
(303,0,l),
(303,25,l),
(-6,25,l),
(-6,0,l)
);
},
{
closed = 1;
nodes = (
(444,729,l),
(444,754,l),
(145,754,l),
(145,729,l)
);
},
{
closed = 1;
nodes = (
(349,828,l),
(366,854,o),
(426,864,o),
(433,904,cs),
(444,961,o),
(409,987,o),
(349,987,cs),
(305,987,o),
(252,966,o),
(241,907,cs),
(237,887,o),
(250,872,o),
(273,872,cs),
(294,872,o),
(307,880,o),
(309,894,cs),
(313,912,o),
(299,910,o),
(302,922,cs),
(305,937,o),
(323,947,o),
(343,947,cs),
(364,947,o),
(381,940,o),
(374,902,cs),
(369,878,o),
(329,864,o),
(322,828,c)
);
}
);
};
layerId = "426C3F01-D24D-4224-A47E-56DA036E4742";
shapes = (
{
ref = I;
},
{
pos = (-21,304);
ref = hookabovecomb;
}
);
width = 360;
},
{
background = {
anchors = (
{
name = bottom;
pos = (143,0);
},
{
name = ogonek;
pos = (299,10);
},
{
name = top;
pos = (375,1004);
},
{
name = topleft;
pos = (142,754);
}
);
shapes = (
{
closed = 1;
nodes = (
(207,0,l),
(375,754,l),
(224,754,l),
(60,0,l)
);
},
{
closed = 1;
nodes = (
(302,0,l),
(302,31,l),
(-7,31,l),
(-7,0,l)
);
},
{
closed = 1;
nodes = (
(443,724,l),
(443,754,l),
(144,754,l),
(144,724,l)
);
},
{
closed = 1;
nodes = (
(366,811,l),
(376,861,o),
(446,842,o),
(458,904,cs),
(472,975,o),
(443,1004,o),
(370,1004,cs),
(310,1004,o),
(258,977,o),
(245,912,cs),
(239,882,o),
(255,863,o),
(279,863,cs),
(296,863,o),
(320,870,o),
(323,889,cs),
(327,917,o),
(307,905,o),
(310,929,cs),
(312,943,o),
(333,961,o),
(361,961,cs),
(390,961,o),
(405,945,o),
(398,913,cs),
(393,889,o),
(341,881,o),
(327,811,c)
);
}
);
};
layerId = "DD3DBCA6-CF88-4DA3-ACF4-A2FFC969FFEC";
shapes = (
{
ref = I;
},
{
pos = (-15,304);
ref = hookabovecomb;
}
);
width = 390;
}
);
unicode = 7880;
},
{
glyphname = Iinvertedbreve;
kernLeft = I;
kernRight = I;
lastChange = "2023-02-02 16:56:08 +0000";
layers = (
{
background = {
anchors = (
{
name = bottom;
pos = (128,0);
},
{
name = ogonek;
pos = (272,10);
},
{
name = top;
pos = (302,754);
},
{
name = topleft;
pos = (142,754);
}
);
shapes = (
{
closed = 1;
nodes = (
(193,0,l),
(361,754,l),
(244,754,l),
(80,0,l)
);
},
{
closed = 1;
nodes = (
(303,0,l),
(303,25,l),
(-6,25,l),
(-6,0,l)
);
},
{
closed = 1;
nodes = (
(444,729,l),
(444,754,l),
(145,754,l),
(145,729,l)
);
},
{
closed = 1;
nodes = (
(202,787,l),
(215,831,o),
(265,851,o),
(345,851,cs),
(410,851,o),
(447,838,o),
(447,787,c),
(481,787,l),
(484,799,o),
(485,809,o),
(485,818,cs),
(485,877,o),
(434,924,o),
(348,924,cs),
(251,924,o),
(183,864,o),
(168,787,c)
);
}
);
};
layerId = "426C3F01-D24D-4224-A47E-56DA036E4742";
shapes = (
{
ref = I;
},
{
pos = (-3,0);
ref = breveinvertedcomb.case;
}
);
width = 360;
},
{
background = {
anchors = (
{
name = bottom;
pos = (143,0);
},
{
name = ogonek;
pos = (299,10);
},
{
name = top;
pos = (317,754);
},
{
name = topleft;
pos = (142,754);
}
);
shapes = (
{
closed = 1;
nodes = (
(207,0,l),
(375,754,l),
(224,754,l),
(60,0,l)
);
},
{
closed = 1;
nodes = (
(302,0,l),
(302,31,l),
(-7,31,l),
(-7,0,l)
);
},
{
closed = 1;
nodes = (
(443,724,l),
(443,754,l),
(144,754,l),
(144,724,l)
);
},
{
closed = 1;
nodes = (
(203,780,l),
(214,828,o),
(263,849,o),
(326,849,cs),
(385,849,o),
(431,828,o),
(419,780,c),
(458,780,l),
(462,797,o),
(464,811,o),
(464,824,cs),
(464,894,o),
(417,924,o),
(341,924,cs),
(247,924,o),
(182,871,o),
(164,780,c)
);
}
);
};
layerId = "DD3DBCA6-CF88-4DA3-ACF4-A2FFC969FFEC";
shapes = (
{
ref = I;
},
{
pos = (-1,0);
ref = breveinvertedcomb.case;
}
);
width = 390;
}
);
unicode = 522;
},
{
glyphname = Imacron;
kernLeft = I;
kernRight = I;
lastChange = "2023-02-02 16:56:08 +0000";
layers = (
{
background = {
anchors = (
{
name = bottom;
pos = (128,0);
},
{
name = ogonek;
pos = (272,10);
},
{
name = top;
pos = (302,754);
},
{
name = topleft;
pos = (142,754);
}
);
shapes = (
{
closed = 1;
nodes = (
(193,0,l),
(361,754,l),
(244,754,l),
(80,0,l)
);
},
{
closed = 1;
nodes = (
(303,0,l),
(303,25,l),
(-6,25,l),
(-6,0,l)
);
},
{
closed = 1;
nodes = (
(444,729,l),
(444,754,l),
(145,754,l),
(145,729,l)
);
},
{
closed = 1;
nodes = (
(503,858,l),
(518,924,l),
(198,924,l),
(183,858,l)
);
}
);
};
layerId = "426C3F01-D24D-4224-A47E-56DA036E4742";
shapes = (
{
ref = I;
},
{
pos = (-13,0);
ref = macroncomb.case;
}
);
width = 360;
},
{
background = {
anchors = (
{
name = bottom;
pos = (143,0);
},
{
name = ogonek;
pos = (299,10);
},
{
name = top;
pos = (317,754);
},
{
name = topleft;
pos = (142,754);
}
);
shapes = (
{
closed = 1;
nodes = (
(207,0,l),
(375,754,l),
(224,754,l),
(60,0,l)
);
},
{
closed = 1;
nodes = (
(302,0,l),
(302,31,l),
(-7,31,l),
(-7,0,l)
);
},
{
closed = 1;
nodes = (
(443,724,l),
(443,754,l),
(144,754,l),
(144,724,l)
);
},
{
closed = 1;
nodes = (
(511,837,l),
(530,923,l),
(190,923,l),
(171,837,l)
);
}
);
};
layerId = "DD3DBCA6-CF88-4DA3-ACF4-A2FFC969FFEC";
shapes = (
{
ref = I;
},
{
ref = macroncomb.case;
}
);
width = 390;
}
);
unicode = 298;
},
{
glyphname = Iogonek;
kernLeft = I;
kernRight = I;
lastChange = "2023-02-02 16:56:08 +0000";
layers = (
{
background = {
anchors = (
{
name = bottom;
pos = (128,0);
},
{
name = ogonek;
pos = (272,10);
},
{
name = top;
pos = (302,754);
},
{
name = topleft;
pos = (142,754);
}
);
shapes = (
{
closed = 1;
nodes = (
(193,0,l),
(361,754,l),
(244,754,l),
(80,0,l)
);
},
{
closed = 1;
nodes = (
(303,0,l),
(303,25,l),
(-6,25,l),
(-6,0,l)
);
},
{
closed = 1;
nodes = (
(444,729,l),
(444,754,l),
(145,754,l),
(145,729,l)
);
},
{
closed = 1;
nodes = (
(104,-232,o),
(149,-213,o),
(176,-186,c),
(164,-170,l),
(140,-185,o),
(123,-191,o),
(107,-191,cs),
(83,-191,o),
(69,-177,o),
(69,-151,cs),
(69,-102,o),
(120,-43,o),
(209,12,c),
(173,18,l),
(60,-41,o),
(-14,-116,o),
(-14,-172,cs),
(-14,-208,o),
(17,-232,o),
(63,-232,cs),
(63,-232,ls)
);
}
);
};
layerId = "426C3F01-D24D-4224-A47E-56DA036E4742";
shapes = (
{
ref = I;
},
{
pos = (95,0);
ref = ogonekcomb;
}
);
width = 360;
},
{
background = {
anchors = (
{
name = bottom;
pos = (143,0);
},
{
name = ogonek;
pos = (299,10);
},
{
name = top;
pos = (317,754);
},
{
name = topleft;
pos = (142,754);
}
);
shapes = (
{
closed = 1;
nodes = (
(207,0,l),
(375,754,l),
(224,754,l),
(60,0,l)
);
},
{
closed = 1;
nodes = (
(302,0,l),
(302,31,l),
(-7,31,l),
(-7,0,l)
);
},
{
closed = 1;
nodes = (
(443,724,l),
(443,754,l),
(144,754,l),
(144,724,l)
);
},
{
closed = 1;
nodes = (
(121,-237,o),
(185,-214,o),
(213,-186,c),
(198,-155,l),
(165,-170,o),
(141,-176,o),
(122,-176,cs),
(92,-176,o),
(73,-161,o),
(73,-136,cs),
(73,-91,o),
(130,-33,o),
(216,12,c),
(170,12,l),
(37,-57,o),
(-20,-111,o),
(-20,-168,cs),
(-20,-211,o),
(13,-237,o),
(69,-237,cs),
(69,-237,ls)
);
}
);
};
layerId = "DD3DBCA6-CF88-4DA3-ACF4-A2FFC969FFEC";
shapes = (
{
ref = I;
},
{
pos = (71,0);
ref = ogonekcomb;
}
);
width = 390;
}
);
unicode = 302;
},
